<svg width="14" height="11" viewBox="0 0 14 11" fill="none" xmlns="http://www.w3.org/2000/svg">
<path d="M0 0.75C0 0.551088 0.0790177 0.360322 0.21967 0.21967C0.360322 0.0790175 0.551088 0 0.75 0H11.75C11.9489 0 12.1397 0.0790175 12.2803 0.21967C12.421 0.360322 12.5 0.551088 12.5 0.75C12.5 0.948912 12.421 1.13968 12.2803 1.28033C12.1397 1.42098 11.9489 1.5 11.75 1.5H0.75C0.551088 1.5 0.360322 1.42098 0.21967 1.28033C0.0790177 1.13968 0 0.948912 0 0.75ZM0.75 5.5H8C8.19891 5.5 8.38968 5.42098 8.53033 5.28033C8.67098 5.13968 8.75 4.94891 8.75 4.75C8.75 4.55109 8.67098 4.36032 8.53033 4.21967C8.38968 4.07902 8.19891 4 8 4H0.75C0.551088 4 0.360322 4.07902 0.21967 4.21967C0.0790177 4.36032 0 4.55109 0 4.75C0 4.94891 0.0790177 5.13968 0.21967 5.28033C0.360322 5.42098 0.551088 5.5 0.75 5.5ZM5 8H0.75C0.551088 8 0.360322 8.07902 0.21967 8.21967C0.0790177 8.36032 0 8.55109 0 8.75C0 8.94891 0.0790177 9.13968 0.21967 9.28033C0.360322 9.42098 0.551088 9.5 0.75 9.5H5C5.19891 9.5 5.38968 9.42098 5.53033 9.28033C5.67098 9.13968 5.75 8.94891 5.75 8.75C5.75 8.55109 5.67098 8.36032 5.53033 8.21967C5.38968 8.07902 5.19891 8 5 8ZM13.9681 4.71562C13.9104 4.90559 13.7796 5.0649 13.6046 5.15863C13.4296 5.25236 13.2245 5.27286 13.0344 5.21562L11.5 4.75813V8.75C11.5 9.22762 11.348 9.69286 11.0661 10.0784C10.7841 10.4639 10.3868 10.7497 9.93159 10.8944C9.4764 11.039 8.98699 11.0351 8.53418 10.8832C8.08137 10.7312 7.68867 10.4391 7.4129 10.0491C7.13714 9.65916 6.99263 9.19155 7.00029 8.71399C7.00795 8.23643 7.16738 7.77369 7.45551 7.39276C7.74363 7.01183 8.1455 6.73247 8.60295 6.59512C9.0604 6.45776 9.54969 6.46954 10 6.62875V3.75C10 3.63309 10.0274 3.5178 10.0799 3.41335C10.1324 3.30889 10.2086 3.21816 10.3024 3.14839C10.3962 3.07862 10.5051 3.03176 10.6202 3.01152C10.7354 2.99129 10.8536 2.99826 10.9656 3.03188L13.4656 3.78188C13.6561 3.83911 13.816 3.96962 13.9102 4.14472C14.0044 4.31982 14.0253 4.52517 13.9681 4.71562ZM10 8.75C10 8.60166 9.95601 8.45666 9.8736 8.33332C9.79119 8.20999 9.67406 8.11386 9.53701 8.05709C9.39997 8.00033 9.24917 7.98547 9.10368 8.01441C8.9582 8.04335 8.82456 8.11478 8.71967 8.21967C8.61478 8.32456 8.54335 8.4582 8.51441 8.60368C8.48547 8.74917 8.50033 8.89997 8.55709 9.03701C8.61386 9.17406 8.70999 9.29119 8.83332 9.3736C8.95666 9.45601 9.10166 9.5 9.25 9.5C9.44891 9.5 9.63968 9.42098 9.78033 9.28033C9.92098 9.13968 10 8.94891 10 8.75Z" fill="white"/>
</svg>
