<svg width="14" height="10" viewBox="0 0 14 10" fill="none" xmlns="http://www.w3.org/2000/svg">
<path d="M13.9077 3.40369L12.512 0.502429C12.4605 0.395644 12.3894 0.300427 12.3025 0.222217C12.2157 0.144007 12.1149 0.0843346 12.0058 0.0466083C11.8968 0.008882 11.7817 -0.00615949 11.667 0.00234288C11.5524 0.0108452 11.4405 0.042725 11.3377 0.0961614L9.97753 0.802442L7.11223 0.0149079C7.03871 -0.00496929 6.96151 -0.00496929 6.88799 0.0149079L4.02268 0.802442L2.6625 0.0961614C2.55972 0.042725 2.44782 0.0108452 2.33318 0.00234288C2.21855 -0.00615949 2.10342 0.008882 1.99438 0.0466083C1.88534 0.0843346 1.78452 0.144007 1.69768 0.222217C1.61084 0.300427 1.53968 0.395644 1.48826 0.502429L0.092525 3.40312C0.0410906 3.5099 0.0104053 3.62616 0.00222146 3.74525C-0.00596237 3.86435 0.00851556 3.98396 0.0448285 4.09724C0.0811414 4.21053 0.138578 4.31527 0.213858 4.40549C0.289138 4.49571 0.380788 4.56964 0.483572 4.62306L1.96025 5.39071L4.9951 7.64251C5.03982 7.67557 5.09009 7.69965 5.14332 7.71354L8.6436 8.62267C8.7169 8.64177 8.79372 8.64081 8.86656 8.6199C8.9394 8.59899 9.00579 8.55884 9.05926 8.50334L11.2469 6.23052L12.0717 5.37366L13.5166 4.62306C13.7241 4.51518 13.8818 4.32613 13.9551 4.09748C14.0285 3.86882 14.0114 3.61928 13.9077 3.40369ZM10.9057 5.2998L9.02371 3.73382C8.9394 3.66367 8.83309 3.6284 8.72526 3.6348C8.61742 3.6412 8.51567 3.68882 8.4396 3.76848C7.46554 4.78784 6.3799 4.65886 5.6875 4.20429L8.05238 1.81783H9.79213L11.2803 4.90944L10.9057 5.2998ZM8.61571 7.67831L5.43702 6.8527L2.74617 4.85603L4.27755 1.67407L7.00011 0.924606L7.53609 1.07177L5.07496 3.5537L5.07058 3.55881C4.97793 3.65506 4.90728 3.7717 4.86382 3.90011C4.82036 4.02852 4.80521 4.16543 4.81949 4.30074C4.83377 4.43605 4.87711 4.5663 4.94631 4.68188C5.01552 4.79746 5.10882 4.89542 5.21934 4.96853C6.34381 5.71459 7.70071 5.59356 8.76939 4.68443L10.2816 5.94641L8.61571 7.67831ZM7.20903 9.65567C7.18539 9.75391 7.13086 9.84115 7.05407 9.90353C6.97728 9.9659 6.88264 9.99986 6.78517 10C6.74922 9.99995 6.71341 9.99537 6.67852 9.98636L4.39732 9.39372C4.34402 9.38006 4.29371 9.35595 4.24911 9.3227L2.80798 8.25333C2.71937 8.18105 2.66101 8.07605 2.64505 7.96018C2.6291 7.84431 2.65678 7.72652 2.72233 7.63132C2.78787 7.53613 2.88624 7.47087 2.99694 7.44914C3.10764 7.42741 3.22215 7.45088 3.31661 7.51466L4.68992 8.53403L6.89073 9.10451C7.00328 9.13376 7.10004 9.20825 7.15973 9.31161C7.21942 9.41497 7.23715 9.53873 7.20903 9.65567Z" fill="black"/>
</svg>
