<svg width="17" height="20" viewBox="0 0 17 20" fill="none" xmlns="http://www.w3.org/2000/svg">
<path d="M4.84211 4.61628C5.4368 4.61628 6.15449 4.73726 6.99517 4.97955C7.84364 5.22167 8.40669 5.34281 8.68433 5.34281C9.04131 5.34281 9.62416 5.20617 10.433 4.93255C11.2417 4.65927 11.9439 4.52263 12.5386 4.52263C13.5143 4.52263 14.3827 4.78025 15.144 5.29582C15.5721 5.59243 15.9967 5.99485 16.4168 6.50259C15.7824 7.03382 15.3185 7.5064 15.0251 7.92032C14.4938 8.67017 14.2282 9.49835 14.2282 10.4042C14.2282 11.3961 14.5096 12.2905 15.0725 13.0873C15.6359 13.8838 16.2781 14.3877 17 14.5987C16.6983 15.5595 16.1987 16.564 15.501 17.6105C14.4461 19.1802 13.3992 19.965 12.3604 19.965C11.9479 19.965 11.3769 19.8367 10.6474 19.5784C9.92565 19.3201 9.31505 19.1918 8.81545 19.1918C8.31567 19.1918 7.73266 19.3251 7.06674 19.5901C6.4086 19.8634 5.87313 20 5.46065 20C4.21544 20 2.99426 18.9619 1.79676 16.8839C0.598919 14.8293 0 12.8139 0 10.8378C0 9.00211 0.455957 7.5064 1.36804 6.35028C2.2879 5.19417 3.44565 4.61628 4.84143 4.61628M12.3366 0C12.3682 0.101647 12.3882 0.19163 12.3961 0.269448C12.4039 0.347767 12.4079 0.425752 12.4079 0.503903C12.4079 1.00381 12.289 1.5507 12.051 2.14442C11.8131 2.73798 11.4365 3.2887 10.9208 3.79644C10.4769 4.22586 10.0366 4.51464 9.60047 4.66327C9.32301 4.74926 8.90258 4.81558 8.33953 4.8624C8.3556 3.67513 8.66876 2.64783 9.27952 1.78099C9.89807 0.913992 10.9172 0.320272 12.3367 0.000166633" fill="white"/>
</svg>
