<svg width="9" height="9" viewBox="0 0 9 9" fill="none" xmlns="http://www.w3.org/2000/svg">
<path d="M6.55366 2.93891L6.26176 3.2308C4.69984 4.79273 3.13776 6.35481 1.57553 7.91704C1.2595 8.23307 0.886097 8.30228 0.513147 8.1297C0.153858 7.96075 -0.0433177 7.65156 0.00904998 7.2777C0.0560998 7.00758 0.183539 6.75794 0.374713 6.5614C1.88518 5.0236 3.41523 3.50539 4.93936 1.98126L5.22807 1.69256C5.13491 1.67663 5.04097 1.66569 4.94665 1.65977C4.33554 1.65704 3.72397 1.66296 3.11332 1.65522C2.62972 1.64975 2.29593 1.31688 2.28955 0.854218C2.28318 0.349666 2.586 0.011324 3.09192 0.00813626C4.4975 -0.000971361 5.90232 -0.0020338 7.30639 0.00494808C7.87424 0.00813573 8.19391 0.315058 8.20438 0.876531C8.23019 2.27027 8.24552 3.66417 8.25037 5.05821C8.2522 5.56914 7.91977 5.86969 7.41203 5.86559C6.93298 5.86103 6.61786 5.5532 6.60329 5.05685C6.58781 4.4676 6.58644 3.87789 6.57779 3.28818C6.57597 3.19529 6.56413 3.10421 6.55366 2.93891Z" fill="#E2FC0B"/>
</svg>
