<svg width="14" height="16" viewBox="0 0 14 16" fill="none" xmlns="http://www.w3.org/2000/svg">
<path d="M12.8532 7.22886C12.7661 7.31626 12.6626 7.38561 12.5486 7.43293C12.4347 7.48025 12.3125 7.5046 12.1891 7.5046C12.0657 7.5046 11.9436 7.48025 11.8296 7.43293C11.7157 7.38561 11.6122 7.31626 11.5251 7.22886L7.50241 3.20621V14.6906C7.50241 14.9392 7.40364 15.1777 7.22782 15.3535C7.052 15.5293 6.81355 15.6281 6.56491 15.6281C6.31627 15.6281 6.07781 15.5293 5.90199 15.3535C5.72618 15.1777 5.62741 14.9392 5.62741 14.6906V3.20621L1.60319 7.22886C1.42707 7.40498 1.1882 7.50393 0.939126 7.50393C0.690055 7.50393 0.451184 7.40498 0.275064 7.22886C0.0989435 7.05274 0 6.81387 0 6.5648C0 6.31573 0.0989435 6.07686 0.275064 5.90074L5.90006 0.275739C5.98716 0.188339 6.09065 0.118992 6.20461 0.0716747C6.31856 0.0243572 6.44074 0 6.56413 0C6.68751 0 6.80969 0.0243572 6.92364 0.0716747C7.0376 0.118992 7.14109 0.188339 7.22819 0.275739L12.8532 5.90074C12.9406 5.98784 13.0099 6.09133 13.0573 6.20528C13.1046 6.31924 13.1289 6.44141 13.1289 6.5648C13.1289 6.68819 13.1046 6.81036 13.0573 6.92432C13.0099 7.03827 12.9406 7.14177 12.8532 7.22886Z" fill="black"/>
</svg>
