<svg width="11" height="13" viewBox="0 0 11 13" fill="none" xmlns="http://www.w3.org/2000/svg">
<path d="M10.2826 5.78309C10.2129 5.85301 10.1301 5.90849 10.0389 5.94634C9.94775 5.9842 9.85001 6.00368 9.7513 6.00368C9.65259 6.00368 9.55485 5.9842 9.46369 5.94634C9.37252 5.90849 9.28973 5.85301 9.22005 5.78309L6.00193 2.56497V11.7525C6.00193 11.9514 5.92291 12.1421 5.78226 12.2828C5.6416 12.4234 5.45084 12.5025 5.25193 12.5025C5.05301 12.5025 4.86225 12.4234 4.7216 12.2828C4.58094 12.1421 4.50193 11.9514 4.50193 11.7525V2.56497L1.28255 5.78309C1.14165 5.92399 0.950558 6.00314 0.751301 6.00314C0.552044 6.00314 0.360947 5.92399 0.220051 5.78309C0.0791548 5.6422 0 5.4511 0 5.25184C0 5.05258 0.0791548 4.86149 0.220051 4.72059L4.72005 0.220591C4.78973 0.150671 4.87252 0.0951938 4.96369 0.0573398C5.05485 0.0194858 5.15259 0 5.2513 0C5.35001 0 5.44775 0.0194858 5.53892 0.0573398C5.63008 0.0951938 5.71287 0.150671 5.78255 0.220591L10.2826 4.72059C10.3525 4.79027 10.4079 4.87306 10.4458 4.96423C10.4837 5.05539 10.5031 5.15313 10.5031 5.25184C10.5031 5.35055 10.4837 5.44829 10.4458 5.53946C10.4079 5.63062 10.3525 5.71341 10.2826 5.78309Z" fill="#808080"/>
</svg>
