<svg width="16" height="16" viewBox="0 0 16 16" fill="none" xmlns="http://www.w3.org/2000/svg">
<path d="M13.5306 10.4678L8.5306 5.4678C8.46092 5.39788 8.37813 5.3424 8.28696 5.30455C8.1958 5.2667 8.09806 5.24721 7.99935 5.24721C7.90064 5.24721 7.8029 5.2667 7.71173 5.30455C7.62057 5.3424 7.53778 5.39788 7.4681 5.4678L2.4681 10.4678C2.3272 10.6087 2.24805 10.7998 2.24805 10.9991C2.24805 11.1983 2.3272 11.3894 2.4681 11.5303C2.60899 11.6712 2.80009 11.7504 2.99935 11.7504C3.19861 11.7504 3.3897 11.6712 3.5306 11.5303L7.99997 7.06093L12.4693 11.5309C12.6102 11.6718 12.8013 11.751 13.0006 11.751C13.1999 11.751 13.391 11.6718 13.5318 11.5309C13.6727 11.39 13.7519 11.1989 13.7519 10.9997C13.7519 10.8004 13.6727 10.6093 13.5318 10.4684L13.5306 10.4678Z" fill="white"/>
</svg>
