<svg width="9" height="11" viewBox="0 0 9 11" fill="none" xmlns="http://www.w3.org/2000/svg">
<path d="M7.3175 4.90375C7.67811 4.46457 7.90656 3.93201 7.97628 3.36804C8.04599 2.80408 7.9541 2.23192 7.71129 1.71815C7.46848 1.20438 7.08475 0.770137 6.60476 0.465965C6.12477 0.161792 5.56825 0.000201386 5 0H0.75C0.551088 0 0.360322 0.0790175 0.21967 0.21967C0.0790175 0.360322 0 0.551088 0 0.75V10.25C0 10.4489 0.0790175 10.6397 0.21967 10.7803C0.360322 10.921 0.551088 11 0.75 11H5.75C6.47084 10.9997 7.17112 10.7598 7.74067 10.3179C8.31023 9.8761 8.71674 9.25746 8.89624 8.55933C9.07575 7.8612 9.01807 7.12321 8.73227 6.46145C8.44648 5.79969 7.94879 5.25172 7.3175 4.90375ZM1.5 1.5H5C5.39782 1.5 5.77936 1.65804 6.06066 1.93934C6.34196 2.22064 6.5 2.60218 6.5 3C6.5 3.39782 6.34196 3.77936 6.06066 4.06066C5.77936 4.34196 5.39782 4.5 5 4.5H1.5V1.5ZM5.75 9.5H1.5V6H5.75C6.21413 6 6.65925 6.18437 6.98744 6.51256C7.31563 6.84075 7.5 7.28587 7.5 7.75C7.5 8.21413 7.31563 8.65925 6.98744 8.98744C6.65925 9.31563 6.21413 9.5 5.75 9.5Z" fill="white"/>
</svg>
