<svg width="20" height="20" viewBox="0 0 20 20" fill="none" xmlns="http://www.w3.org/2000/svg">
<path d="M18.125 5.6248H12.5C12.0315 5.62465 11.5679 5.7206 11.1379 5.90671C10.7079 6.09282 10.3206 6.36514 10 6.70684C9.67941 6.36514 9.29215 6.09282 8.86215 5.90671C8.43215 5.7206 7.96855 5.62465 7.5 5.6248H1.875C1.62636 5.6248 1.3879 5.72358 1.21209 5.89939C1.03627 6.07521 0.9375 6.31366 0.9375 6.5623V15.6248C0.9375 15.8734 1.03627 16.1119 1.21209 16.2877C1.3879 16.4635 1.62636 16.5623 1.875 16.5623H7.5C7.9144 16.5623 8.31183 16.7269 8.60485 17.0199C8.89788 17.313 9.0625 17.7104 9.0625 18.1248C9.0625 18.3734 9.16127 18.6119 9.33709 18.7877C9.5129 18.9635 9.75136 19.0623 10 19.0623C10.2486 19.0623 10.4871 18.9635 10.6629 18.7877C10.8387 18.6119 10.9375 18.3734 10.9375 18.1248C10.9375 17.7104 11.1021 17.313 11.3951 17.0199C11.6882 16.7269 12.0856 16.5623 12.5 16.5623H18.125C18.3736 16.5623 18.6121 16.4635 18.7879 16.2877C18.9637 16.1119 19.0625 15.8734 19.0625 15.6248V6.5623C19.0625 6.31366 18.9637 6.07521 18.7879 5.89939C18.6121 5.72358 18.3736 5.6248 18.125 5.6248ZM7.5 14.6873H2.8125V7.4998H7.5C7.9144 7.4998 8.31183 7.66442 8.60485 7.95745C8.89788 8.25048 9.0625 8.6479 9.0625 9.0623V15.0631C8.57889 14.8155 8.04328 14.6867 7.5 14.6873ZM17.1875 14.6873H12.5C11.9566 14.687 11.4209 14.8163 10.9375 15.0646V9.0623C10.9375 8.6479 11.1021 8.25048 11.3951 7.95745C11.6882 7.66442 12.0856 7.4998 12.5 7.4998H17.1875V14.6873ZM6.75 3.18652C7.12841 2.68198 7.61909 2.27246 8.1832 1.99041C8.7473 1.70836 9.36932 1.56152 10 1.56152C10.6307 1.56152 11.2527 1.70836 11.8168 1.99041C12.3809 2.27246 12.8716 2.68198 13.25 3.18652C13.3994 3.38533 13.4637 3.63534 13.4287 3.88156C13.3938 4.12777 13.2625 4.35002 13.0637 4.49941C12.8649 4.64881 12.6149 4.7131 12.3686 4.67816C12.1224 4.64322 11.9002 4.51189 11.7508 4.31309C11.5471 4.04111 11.2828 3.82034 10.9789 3.66828C10.675 3.51621 10.3398 3.43704 10 3.43704C9.66018 3.43704 9.32504 3.51621 9.02114 3.66828C8.71724 3.82034 8.45295 4.04111 8.24922 4.31309C8.09983 4.51189 7.87758 4.64322 7.63136 4.67816C7.38515 4.7131 7.13514 4.64881 6.93633 4.49941C6.73752 4.35002 6.6062 4.12777 6.57126 3.88156C6.53631 3.63534 6.60061 3.38533 6.75 3.18652Z" fill="white"/>
</svg>
