<svg width="13" height="13" viewBox="0 0 13 13" fill="none" xmlns="http://www.w3.org/2000/svg">
<path d="M3.66667 7.37966C3.84345 7.37966 4.013 7.44999 4.13802 7.57497C4.26301 7.69997 4.3333 7.86957 4.33333 8.04633C4.33333 8.2231 4.263 8.39267 4.13802 8.51768C4.013 8.6427 3.84347 8.713 3.66667 8.713H2.27604L2.9056 9.3432C3.80503 10.2426 5.02297 10.7511 6.29492 10.7586C7.56687 10.766 8.79057 10.2717 9.70052 9.38292L9.74935 9.33539H9.75781C9.87709 9.24544 10.0238 9.19782 10.1745 9.20128C10.3486 9.20529 10.5144 9.27725 10.6361 9.4018C10.7576 9.52627 10.8254 9.69332 10.8255 9.86729C10.8255 10.0414 10.7577 10.2089 10.6361 10.3334L10.6335 10.336C9.48403 11.4651 7.93605 12.0959 6.32487 12.0919H6.29102C4.76745 12.0874 3.30376 11.5162 2.18229 10.4955L1.96289 10.2853L1.33333 9.6557V11.0463C1.33333 11.2231 1.263 11.3927 1.13802 11.5177C1.013 11.6427 0.843471 11.713 0.666667 11.713C0.489862 11.713 0.320336 11.6427 0.195312 11.5177C0.0703342 11.3927 6.80306e-06 11.2231 0 11.0463V8.04633C3.36654e-05 7.86957 0.0703262 7.69997 0.195312 7.57497C0.320331 7.44999 0.489886 7.37966 0.666667 7.37966H3.66667Z" fill="white"/>
<path d="M6.04688 0.000104048C7.67033 0.00960429 9.22468 0.65917 10.3724 1.8074L11 2.4363V1.04633C11 0.869569 11.0703 0.699967 11.1953 0.574974C11.3203 0.449989 11.4899 0.379661 11.6667 0.379661C11.8434 0.379661 12.013 0.449989 12.138 0.574974C12.263 0.699967 12.3333 0.869569 12.3333 1.04633V4.04633C12.3333 4.2231 12.263 4.39267 12.138 4.51768C12.013 4.6427 11.8435 4.71299 11.6667 4.71299H8.66667C8.48986 4.71299 8.32034 4.6427 8.19531 4.51768C8.07033 4.39267 8.00001 4.2231 8 4.04633C8.00003 3.86957 8.07033 3.69997 8.19531 3.57497C8.32033 3.44999 8.48989 3.37966 8.66667 3.37966H10.0573L9.42708 2.74945C8.52898 1.84738 7.30938 1.33817 6.03646 1.33409H6.00846C4.74625 1.33121 3.53361 1.82556 2.63281 2.70974L2.62956 2.71299L2.62891 2.71234C2.50163 2.83101 2.33348 2.89602 2.15951 2.89203C1.98543 2.88803 1.81963 2.81603 1.69792 2.69151C1.57621 2.56697 1.50848 2.3995 1.50846 2.22536C1.50847 2.05122 1.5762 1.88376 1.69792 1.75922L1.70052 1.75661L1.92318 1.54958C3.05732 0.545379 4.525 -0.0087309 6.04688 0.000104048Z" fill="white"/>
</svg>
