<svg width="542" height="115" viewBox="0 0 542 115" fill="none" xmlns="http://www.w3.org/2000/svg">
<path d="M2 109.219C4.18628 108.166 9.30836 106.165 12.3064 106.586C16.0539 107.113 19.3331 109.745 22.1438 111.324C24.9545 112.904 28.7021 111.851 32.6839 109.219C36.6657 106.586 40.8818 107.113 46.0348 109.219C51.1877 111.324 54.4669 107.113 55.8722 105.358C57.2776 103.603 64.2958 97.8122 70.507 106.586C76.7183 115.36 82.3397 109.745 84.2135 108.166C86.0873 106.586 91.9429 107.113 94.7536 108.166C97.5643 109.219 102.717 110.272 106.465 105.358C110.212 100.444 117.708 100.971 121.221 100.444C124.734 99.918 127.779 100.093 130.824 95.18C133.869 90.2666 137.851 89.5647 143.238 92.3723C148.625 95.18 154.949 91.3195 156.823 86.5815C158.697 81.8435 163.85 81.1416 169.003 78.5094C174.156 75.8772 175.796 74.8243 178.84 67.1032C181.885 59.3821 188.678 53.5911 194.065 66.0502C199.452 78.5094 201.326 77.6319 209.758 81.1415C218.19 84.6511 223.812 87.108 226.388 78.5094C228.965 69.9108 231.775 61.6632 239.271 61.6632C246.766 61.6632 248.405 62.0142 252.621 51.6608C256.837 41.3075 256.838 41.3076 264.567 40.7811C272.296 40.2547 270.891 39.9037 273.467 26.2162C276.044 12.5288 275.576 2 282.368 2C289.161 2 289.629 4.6322 290.097 11.3005C290.566 17.9687 293.142 27.62 298.998 26.2162C304.854 24.8124 310.709 24.8124 312.817 31.4807C314.925 38.1489 317.033 44.4662 326.637 41.834C336.24 39.2018 335.069 45.8701 338.582 49.2042C342.095 52.5383 344.906 54.4687 350.528 53.0648C356.149 51.6608 353.807 50.608 361.302 53.0648C368.797 55.5215 371.374 56.9253 375.121 61.6633C378.869 66.4013 380.274 68.3316 387.301 66.7522C394.328 65.1729 394.093 67.6296 396.436 71.1392C398.778 74.6489 402.291 80.7907 405.336 81.3171C408.381 81.8436 410.958 79.5623 416.345 82.8964C421.732 86.2306 421.264 85.1777 423.606 89.3892C425.948 93.6007 428.056 95.882 435.083 95.3555C442.11 94.8291 442.812 95.3555 445.155 98.8651C447.497 102.375 454.758 110.447 459.677 104.656C464.595 98.8651 469.982 92.5479 472.325 85.7041C474.667 78.8604 477.233 69.209 483.211 73.596C489.189 77.983 490.126 84.4758 495.747 82.8964C501.369 81.3171 503.711 79.9133 508.395 84.6512C513.08 89.3892 514.017 92.0214 521.044 89.3892C528.07 86.757 529.241 88.3363 533.458 91.8459C537.674 95.3555 537.205 95.3555 539.782 95.3555" stroke="#E2FC0B" stroke-width="4" stroke-linecap="round"/>
</svg>
