<svg width="54" height="54" viewBox="0 0 54 54" fill="none" xmlns="http://www.w3.org/2000/svg">
<path d="M39.1225 18.8775C39.4022 19.1562 39.6241 19.4874 39.7755 19.852C39.9269 20.2167 40.0049 20.6077 40.0049 21.0025C40.0049 21.3973 39.9269 21.7883 39.7755 22.153C39.6241 22.5176 39.4022 22.8488 39.1225 23.1275L25.1225 37.1275C24.8438 37.4072 24.5126 37.6291 24.148 37.7805C23.7833 37.9319 23.3924 38.0099 22.9975 38.0099C22.6027 38.0099 22.2117 37.9319 21.8471 37.7805C21.4824 37.6291 21.1512 37.4072 20.8725 37.1275L14.8725 31.1275C14.5935 30.8484 14.3721 30.5172 14.2211 30.1525C14.07 29.7879 13.9923 29.3971 13.9923 29.0025C13.9923 28.6078 14.07 28.2171 14.2211 27.8525C14.3721 27.4879 14.5935 27.1566 14.8725 26.8775C15.1516 26.5984 15.4829 26.3771 15.8475 26.2261C16.2121 26.075 16.6029 25.9973 16.9975 25.9973C17.3922 25.9973 17.7829 26.075 18.1476 26.2261C18.5122 26.3771 18.8435 26.5984 19.1225 26.8775L23 30.75L34.8775 18.87C35.1566 18.5916 35.4879 18.3709 35.8523 18.2205C36.2168 18.0702 36.6073 17.9932 37.0016 17.9939C37.3958 17.9946 37.7861 18.073 38.15 18.2246C38.5139 18.3762 38.8444 18.5981 39.1225 18.8775ZM54 27C54 32.3401 52.4165 37.5603 49.4497 42.0004C46.4829 46.4405 42.2661 49.9012 37.3325 51.9447C32.3989 53.9883 26.9701 54.523 21.7326 53.4812C16.4951 52.4394 11.6841 49.8679 7.90813 46.0919C4.13211 42.3159 1.56061 37.5049 0.51881 32.2674C-0.522991 27.0299 0.0116987 21.6012 2.05526 16.6675C4.09883 11.7339 7.55949 7.51712 11.9996 4.55032C16.4397 1.58352 21.6599 0 27 0C34.1584 0.00794056 41.0214 2.85513 46.0831 7.91689C51.1449 12.9786 53.9921 19.8416 54 27ZM48 27C48 22.8466 46.7684 18.7865 44.4609 15.333C42.1534 11.8796 38.8736 9.18797 35.0364 7.59853C31.1991 6.00909 26.9767 5.59322 22.9031 6.40351C18.8295 7.2138 15.0877 9.21385 12.1508 12.1508C9.21387 15.0877 7.21381 18.8295 6.40352 22.9031C5.59323 26.9767 6.0091 31.1991 7.59854 35.0364C9.18798 38.8736 11.8796 42.1534 15.333 44.4609C18.7865 46.7684 22.8466 48 27 48C32.5677 47.994 37.9057 45.7796 41.8427 41.8427C45.7796 37.9057 47.9941 32.5677 48 27Z" fill="#E2FC0B"/>
</svg>
