<svg width="41" height="41" viewBox="0 0 41 41" fill="none" xmlns="http://www.w3.org/2000/svg">
<path d="M29.3419 14.1581C29.5516 14.3672 29.7181 14.6155 29.8316 14.889C29.9452 15.1625 30.0037 15.4557 30.0037 15.7519C30.0037 16.048 29.9452 16.3412 29.8316 16.6147C29.7181 16.8882 29.5516 17.1366 29.3419 17.3456L18.8419 27.8456C18.6329 28.0554 18.3845 28.2218 18.111 28.3354C17.8375 28.4489 17.5443 28.5074 17.2481 28.5074C16.952 28.5074 16.6588 28.4489 16.3853 28.3354C16.1118 28.2218 15.8634 28.0554 15.6544 27.8456L11.1544 23.3456C10.9451 23.1363 10.7791 22.8879 10.6658 22.6144C10.5525 22.341 10.4942 22.0479 10.4942 21.7519C10.4942 21.4559 10.5525 21.1628 10.6658 20.8893C10.7791 20.6159 10.9451 20.3674 11.1544 20.1581C11.3637 19.9488 11.6121 19.7828 11.8856 19.6695C12.1591 19.5563 12.4521 19.498 12.7481 19.498C13.0441 19.498 13.3372 19.5563 13.6107 19.6695C13.8841 19.7828 14.1326 19.9488 14.3419 20.1581L17.25 23.0625L26.1581 14.1525C26.3675 13.9437 26.6159 13.7782 26.8893 13.6654C27.1626 13.5527 27.4555 13.4949 27.7512 13.4954C28.0469 13.4959 28.3395 13.5547 28.6125 13.6684C28.8854 13.7822 29.1333 13.9486 29.3419 14.1581ZM40.5 20.25C40.5 24.2551 39.3124 28.1702 37.0873 31.5003C34.8622 34.8304 31.6996 37.4259 27.9993 38.9586C24.2991 40.4912 20.2275 40.8923 16.2994 40.1109C12.3713 39.3296 8.76311 37.4009 5.9311 34.5689C3.09908 31.7369 1.17046 28.1287 0.389107 24.2006C-0.392244 20.2725 0.00877404 16.2009 1.54145 12.5007C3.07412 8.80046 5.66962 5.63784 8.99971 3.41274C12.3298 1.18764 16.2449 0 20.25 0C25.6188 0.00595542 30.766 2.14134 34.5623 5.93767C38.3587 9.73399 40.4941 14.8812 40.5 20.25ZM36 20.25C36 17.1349 35.0763 14.0898 33.3457 11.4998C31.615 8.90969 29.1552 6.89098 26.2773 5.6989C23.3993 4.50682 20.2325 4.19491 17.1773 4.80263C14.1221 5.41035 11.3158 6.91039 9.11308 9.11307C6.9104 11.3157 5.41036 14.1221 4.80264 17.1773C4.19492 20.2325 4.50683 23.3993 5.69891 26.2773C6.89099 29.1552 8.9097 31.615 11.4998 33.3456C14.0899 35.0763 17.135 36 20.25 36C24.4258 35.9955 28.4293 34.3347 31.382 31.382C34.3347 28.4293 35.9955 24.4258 36 20.25Z" fill="#E2FC0B"/>
</svg>
