<svg width="17" height="17" viewBox="0 0 17 17" fill="none" xmlns="http://www.w3.org/2000/svg">
<path d="M14.6875 0H3.4375C3.0231 0 2.62567 0.16462 2.33265 0.457646C2.03962 0.750671 1.875 1.1481 1.875 1.5625V3.125H0.9375C0.68886 3.125 0.450403 3.22377 0.274587 3.39959C0.0987721 3.5754 0 3.81386 0 4.0625C0 4.31114 0.0987721 4.5496 0.274587 4.72541C0.450403 4.90123 0.68886 5 0.9375 5H1.875V7.5H0.9375C0.68886 7.5 0.450403 7.59877 0.274587 7.77459C0.0987721 7.9504 0 8.18886 0 8.4375C0 8.68614 0.0987721 8.9246 0.274587 9.10041C0.450403 9.27623 0.68886 9.375 0.9375 9.375H1.875V11.875H0.9375C0.68886 11.875 0.450403 11.9738 0.274587 12.1496C0.0987721 12.3254 0 12.5639 0 12.8125C0 13.0611 0.0987721 13.2996 0.274587 13.4754C0.450403 13.6512 0.68886 13.75 0.9375 13.75H1.875V15.3125C1.875 15.7269 2.03962 16.1243 2.33265 16.4174C2.62567 16.7104 3.0231 16.875 3.4375 16.875H14.6875C15.1019 16.875 15.4993 16.7104 15.7924 16.4174C16.0854 16.1243 16.25 15.7269 16.25 15.3125V1.5625C16.25 1.1481 16.0854 0.750671 15.7924 0.457646C15.4993 0.16462 15.1019 0 14.6875 0ZM14.375 15H3.75V1.875H14.375V15ZM6.3125 11.8258C6.66354 11.4471 7.08899 11.1451 7.56219 10.9385C8.0354 10.7319 8.54617 10.6253 9.0625 10.6253C9.57883 10.6253 10.0896 10.7319 10.5628 10.9385C11.036 11.1451 11.4615 11.4471 11.8125 11.8258C11.9816 12.0081 12.2162 12.1158 12.4646 12.1252C12.7131 12.1346 12.9552 12.0449 13.1375 11.8758C13.3198 11.7067 13.4275 11.4721 13.4369 11.2236C13.4463 10.9752 13.3566 10.7331 13.1875 10.5508C12.7555 10.0866 12.248 9.69887 11.6867 9.40391C12.11 8.90343 12.3814 8.29235 12.4689 7.64272C12.5563 6.99309 12.4562 6.332 12.1804 5.73738C11.9045 5.14277 11.4644 4.63942 10.9119 4.28668C10.3594 3.93395 9.7176 3.74653 9.06211 3.74653C8.40662 3.74653 7.7648 3.93395 7.21231 4.28668C6.65982 4.63942 6.2197 5.14277 5.94384 5.73738C5.66798 6.332 5.56788 6.99309 5.65535 7.64272C5.74282 8.29235 6.0142 8.90343 6.4375 9.40391C5.87655 9.6991 5.36943 10.0868 4.9375 10.5508C4.76842 10.7331 4.67871 10.9752 4.68808 11.2236C4.69746 11.4721 4.80516 11.7067 4.9875 11.8758C5.16984 12.0449 5.41187 12.1346 5.66036 12.1252C5.90884 12.1158 6.14342 12.0081 6.3125 11.8258ZM7.5 7.1875C7.5 6.87847 7.59164 6.57637 7.76333 6.31942C7.93502 6.06247 8.17905 5.8622 8.46456 5.74394C8.75007 5.62568 9.06423 5.59473 9.36733 5.65502C9.67042 5.71531 9.94883 5.86413 10.1674 6.08265C10.3859 6.30117 10.5347 6.57958 10.595 6.88267C10.6553 7.18577 10.6243 7.49993 10.5061 7.78544C10.3878 8.07095 10.1875 8.31498 9.93058 8.48667C9.67363 8.65836 9.37153 8.75 9.0625 8.75C8.6481 8.75 8.25067 8.58538 7.95765 8.29235C7.66462 7.99933 7.5 7.6019 7.5 7.1875Z" fill="white"/>
</svg>
