<svg width="13" height="10" viewBox="0 0 13 10" fill="none" xmlns="http://www.w3.org/2000/svg">
<path d="M12.0402 3.56531C12.0402 3.57123 12.0403 3.57661 12.0365 3.58254L10.8442 9.17758C10.8076 9.37457 10.7035 9.55263 10.5498 9.68109C10.396 9.80955 10.2022 9.88036 10.0019 9.88131L2.11542 9.92087C1.91516 9.92179 1.72084 9.85287 1.56592 9.72598C1.41099 9.59908 1.30515 9.42214 1.26661 9.22562L0.0182421 3.64282C0.0182124 3.6369 0.0154951 3.63153 0.0143893 3.62562C-0.0199381 3.44075 0.00720459 3.24972 0.09167 3.08172C0.176135 2.91373 0.313279 2.77801 0.482144 2.69529C0.651009 2.61258 0.84231 2.58743 1.02682 2.62368C1.21132 2.65993 1.37889 2.75559 1.50391 2.89604L3.32538 4.83961L5.22999 0.509797C5.23007 0.508004 5.23007 0.506209 5.22997 0.504417C5.2981 0.354675 5.40771 0.227589 5.54582 0.138203C5.68393 0.0488165 5.84476 0.000873318 6.00927 4.82472e-05C6.17378 -0.000776822 6.33508 0.0455508 6.47409 0.133547C6.61309 0.221543 6.72396 0.347524 6.79359 0.496575C6.79351 0.498367 6.79352 0.500163 6.79362 0.501955L8.74157 4.81244L10.5435 2.85071C10.6673 2.71006 10.8337 2.61366 11.0173 2.57617C11.201 2.53869 11.3918 2.56214 11.5609 2.64299C11.73 2.72383 11.8681 2.85765 11.9542 3.02411C12.0403 3.19058 12.0698 3.3806 12.0381 3.56532L12.0402 3.56531Z" fill="black"/>
</svg>
