<svg width="24" height="24" viewBox="0 0 24 24" fill="none" xmlns="http://www.w3.org/2000/svg">
<path d="M22.2188 16.7372C21.9723 17.0163 21.6693 17.2399 21.3299 17.3929C20.9905 17.546 20.6224 17.6251 20.25 17.625H15.375V18.75C15.3738 19.8436 14.9388 20.8921 14.1654 21.6654C13.3921 22.4388 12.3436 22.8738 11.25 22.875C11.0412 22.875 10.8364 22.8168 10.6588 22.707C10.4811 22.5973 10.3375 22.4402 10.2441 22.2534L6.80438 15.375H3C2.50272 15.375 2.02581 15.1775 1.67417 14.8258C1.32254 14.4742 1.125 13.9973 1.125 13.5V5.25C1.125 4.75272 1.32254 4.27581 1.67417 3.92418C2.02581 3.57254 2.50272 3.375 3 3.375H19.125C19.7648 3.3751 20.3825 3.60884 20.8621 4.03232C21.3417 4.45579 21.6501 5.03983 21.7294 5.67469L22.8544 14.6747C22.9007 15.0439 22.8679 15.4187 22.7583 15.7743C22.6487 16.1299 22.4648 16.4581 22.2188 16.7372ZM3.375 13.125H6.375V5.625H3.375V13.125ZM20.625 14.9531L19.5 5.95312C19.4885 5.862 19.444 5.77825 19.3749 5.71777C19.3058 5.65729 19.2168 5.62428 19.125 5.625H8.625V13.9847L11.8894 20.5125C12.2514 20.3812 12.5642 20.1416 12.7853 19.8262C13.0064 19.5109 13.125 19.1351 13.125 18.75V16.5C13.125 16.2016 13.2435 15.9155 13.4545 15.7045C13.6655 15.4935 13.9516 15.375 14.25 15.375H20.25C20.3035 15.3754 20.3564 15.3644 20.4052 15.3427C20.4541 15.321 20.4977 15.2891 20.5332 15.2491C20.5687 15.2092 20.5953 15.1621 20.6111 15.1111C20.627 15.06 20.6317 15.0062 20.625 14.9531Z" fill="white"/>
</svg>
