<svg width="24" height="17" viewBox="0 0 24 17" fill="none" xmlns="http://www.w3.org/2000/svg">
<path d="M11.6288 4.35002C10.813 4.35002 10.0154 4.59195 9.33709 5.04521C8.65874 5.49847 8.13003 6.14271 7.81782 6.89645C7.50561 7.6502 7.42392 8.4796 7.58308 9.27977C7.74225 10.0799 8.13511 10.8149 8.712 11.3918C9.2889 11.9687 10.0239 12.3616 10.8241 12.5208C11.6242 12.6799 12.4536 12.5982 13.2074 12.286C13.9611 11.9738 14.6054 11.4451 15.0586 10.7667C15.5119 10.0884 15.7538 9.29087 15.7538 8.47502C15.7526 7.38138 15.3176 6.33289 14.5443 5.55957C13.7709 4.78626 12.7225 4.35126 11.6288 4.35002ZM11.6288 10.35C11.258 10.35 10.8955 10.2401 10.5871 10.034C10.2788 9.828 10.0385 9.53516 9.89655 9.19255C9.75463 8.84994 9.7175 8.47294 9.78985 8.10923C9.8622 7.74551 10.0408 7.41142 10.303 7.14919C10.5652 6.88697 10.8993 6.70839 11.263 6.63605C11.6267 6.5637 12.0037 6.60083 12.3464 6.74275C12.689 6.88466 12.9818 7.12498 13.1878 7.43333C13.3939 7.74167 13.5038 8.10418 13.5038 8.47502C13.5038 8.9723 13.3063 9.44921 12.9546 9.80085C12.603 10.1525 12.1261 10.35 11.6288 10.35ZM18.8841 11.5406C18.5459 12.3402 18.0777 13.0783 17.4985 13.725C17.2996 13.9474 17.0205 14.0817 16.7226 14.0983C16.4246 14.1149 16.1323 14.0125 15.9099 13.8136C15.6875 13.6147 15.5532 13.3356 15.5366 13.0377C15.52 12.7397 15.6224 12.4474 15.8213 12.225C16.7453 11.1945 17.2563 9.85911 17.2563 8.47502C17.2563 7.09093 16.7453 5.75556 15.8213 4.72502C15.6224 4.50261 15.52 4.21029 15.5366 3.91237C15.5532 3.61446 15.6875 3.33534 15.9099 3.13643C16.1323 2.93751 16.4246 2.8351 16.7226 2.85171C17.0205 2.86833 17.2996 3.00261 17.4985 3.22502C18.4931 4.33771 19.1513 5.70991 19.3966 7.182C19.6419 8.6541 19.4642 10.1656 18.8841 11.5406ZM7.43632 12.225C7.63523 12.4474 7.73765 12.7397 7.72103 13.0377C7.70442 13.3356 7.57014 13.6147 7.34773 13.8136C7.12532 14.0125 6.833 14.1149 6.53508 14.0983C6.23716 14.0817 5.95805 13.9474 5.75913 13.725C4.46659 12.2818 3.75189 10.4124 3.75189 8.47502C3.75189 6.5376 4.46659 4.66826 5.75913 3.22502C5.95805 3.00261 6.23716 2.86833 6.53508 2.85171C6.833 2.8351 7.12532 2.93751 7.34773 3.13643C7.57014 3.33534 7.70442 3.61446 7.72103 3.91237C7.73765 4.21029 7.63523 4.50261 7.43632 4.72502C6.51236 5.75556 6.00138 7.09093 6.00138 8.47502C6.00138 9.85911 6.51236 11.1945 7.43632 12.225ZM23.2538 8.47502C23.2575 11.5178 22.0644 14.4399 19.9323 16.6106C19.8304 16.722 19.7071 16.8117 19.5698 16.8744C19.4326 16.9371 19.2841 16.9716 19.1332 16.9757C18.9823 16.9798 18.8322 16.9536 18.6917 16.8985C18.5512 16.8434 18.4232 16.7606 18.3153 16.655C18.2075 16.5494 18.122 16.4232 18.0639 16.2839C18.0059 16.1446 17.9764 15.9951 17.9774 15.8441C17.9783 15.6932 18.0096 15.544 18.0694 15.4055C18.1292 15.2669 18.2162 15.1418 18.3254 15.0375C20.0458 13.2865 21.0098 10.9298 21.0098 8.47502C21.0098 6.02021 20.0458 3.66358 18.3254 1.91252C18.1165 1.69943 18.0009 1.41211 18.0039 1.11375C18.0068 0.815391 18.1282 0.53044 18.3413 0.321582C18.5544 0.112724 18.8417 -0.00293234 19.1401 5.65217e-05C19.4384 0.00304538 19.7234 0.124434 19.9323 0.337519C22.0649 2.50873 23.2579 5.43163 23.2538 8.47502ZM4.93226 15.0375C5.14112 15.2506 5.25677 15.5379 5.25378 15.8363C5.25079 16.1346 5.12941 16.4196 4.91632 16.6285C4.70324 16.8373 4.41591 16.953 4.11755 16.95C3.81919 16.947 3.53424 16.8256 3.32538 16.6125C1.19405 14.4409 0 11.5197 0 8.4769C0 5.43413 1.19405 2.51287 3.32538 0.341269C3.53713 0.144534 3.81647 0.0368441 4.10548 0.0405325C4.3945 0.0442208 4.671 0.159004 4.87766 0.361079C5.08431 0.563154 5.20527 0.837016 5.21543 1.12587C5.2256 1.41473 5.1242 1.69642 4.93226 1.91252C3.21183 3.66358 2.24783 6.02021 2.24783 8.47502C2.24783 10.9298 3.21183 13.2865 4.93226 15.0375Z" fill="#E2FC0B"/>
</svg>
