<svg width="20" height="15" viewBox="0 0 20 15" fill="none" xmlns="http://www.w3.org/2000/svg">
<path d="M9.69068 3.62502C9.01081 3.62502 8.3462 3.82662 7.78091 4.20434C7.21562 4.58206 6.77502 5.11892 6.51485 5.74704C6.25467 6.37516 6.1866 7.06633 6.31923 7.73314C6.45187 8.39995 6.77926 9.01245 7.26 9.4932C7.74075 9.97394 8.35325 10.3013 9.02006 10.434C9.68687 10.5666 10.378 10.4985 11.0062 10.2384C11.6343 9.97818 12.1711 9.53758 12.5489 8.97229C12.9266 8.40699 13.1282 7.74239 13.1282 7.06252C13.1272 6.15115 12.7647 5.27741 12.1202 4.63298C11.4758 3.98855 10.602 3.62605 9.69068 3.62502ZM9.69068 8.62502C9.38165 8.62502 9.07956 8.53338 8.82261 8.36169C8.56565 8.19 8.36538 7.94597 8.24712 7.66046C8.12886 7.37495 8.09792 7.06078 8.15821 6.75769C8.2185 6.45459 8.36731 6.17618 8.58583 5.95766C8.80435 5.73914 9.08276 5.59033 9.38585 5.53004C9.68895 5.46975 10.0031 5.50069 10.2886 5.61895C10.5741 5.73722 10.8182 5.93749 10.9899 6.19444C11.1615 6.45139 11.2532 6.75348 11.2532 7.06252C11.2532 7.47692 11.0886 7.87434 10.7955 8.16737C10.5025 8.4604 10.1051 8.62502 9.69068 8.62502ZM15.7368 9.6172C15.4549 10.2835 15.0648 10.8986 14.5821 11.4375C14.4163 11.6229 14.1837 11.7348 13.9355 11.7486C13.6872 11.7624 13.4436 11.6771 13.2583 11.5113C13.0729 11.3456 12.961 11.113 12.9472 10.8647C12.9333 10.6165 13.0187 10.3729 13.1844 10.1875C13.9544 9.32873 14.3802 8.21593 14.3802 7.06252C14.3802 5.90911 13.9544 4.7963 13.1844 3.93752C13.0187 3.75218 12.9333 3.50858 12.9472 3.26031C12.961 3.01205 13.0729 2.77945 13.2583 2.61369C13.4436 2.44793 13.6872 2.36258 13.9355 2.37643C14.1837 2.39027 14.4163 2.50218 14.5821 2.68752C15.4109 3.61476 15.9594 4.75826 16.1638 5.985C16.3682 7.21175 16.2201 8.47132 15.7368 9.6172ZM6.19693 10.1875C6.36269 10.3729 6.44804 10.6165 6.43419 10.8647C6.42035 11.113 6.30845 11.3456 6.12311 11.5113C5.93776 11.6771 5.69417 11.7624 5.4459 11.7486C5.19764 11.7348 4.96504 11.6229 4.79928 11.4375C3.72216 10.2348 3.12657 8.67704 3.12657 7.06252C3.12657 5.448 3.72216 3.89022 4.79928 2.68752C4.96504 2.50218 5.19764 2.39027 5.4459 2.37643C5.69417 2.36258 5.93776 2.44793 6.12311 2.61369C6.30845 2.77945 6.42035 3.01205 6.43419 3.26031C6.44804 3.50858 6.36269 3.75218 6.19693 3.93752C5.42697 4.7963 5.00115 5.90911 5.00115 7.06252C5.00115 8.21593 5.42697 9.32873 6.19693 10.1875ZM19.3782 7.06252C19.3812 9.59813 18.387 12.0332 16.6102 13.8422C16.5253 13.935 16.4226 14.0097 16.3082 14.062C16.1938 14.1143 16.0701 14.143 15.9443 14.1464C15.8186 14.1499 15.6935 14.128 15.5764 14.0821C15.4593 14.0362 15.3526 13.9672 15.2628 13.8792C15.1729 13.7912 15.1017 13.686 15.0533 13.5699C15.0049 13.4539 14.9804 13.3292 14.9811 13.2034C14.9819 13.0777 15.008 12.9534 15.0578 12.8379C15.1076 12.7224 15.1802 12.6181 15.2712 12.5313C16.7048 11.0721 17.5082 9.10819 17.5082 7.06252C17.5082 5.01684 16.7048 3.05298 15.2712 1.59377C15.0971 1.4162 15.0007 1.17676 15.0032 0.928125C15.0057 0.679493 15.1069 0.442033 15.2844 0.267985C15.462 0.0939363 15.7014 -0.00244361 15.9501 4.71014e-05C16.1987 0.00253782 16.4362 0.103695 16.6102 0.281266C18.3874 2.09061 19.3816 4.52636 19.3782 7.06252ZM4.11021 12.5313C4.28426 12.7088 4.38064 12.9483 4.37815 13.1969C4.37566 13.4455 4.2745 13.683 4.09693 13.857C3.91936 14.0311 3.67992 14.1275 3.43129 14.125C3.18266 14.1225 2.9452 14.0213 2.77115 13.8438C0.995038 12.0341 0 9.59972 0 7.06408C0 4.52844 0.995038 2.09406 2.77115 0.284391C2.94761 0.120445 3.18039 0.0307034 3.42124 0.0337771C3.66208 0.0368507 3.8925 0.132503 4.06471 0.300899C4.23693 0.469295 4.33772 0.697513 4.34619 0.938227C4.35467 1.17894 4.27016 1.41368 4.11021 1.59377C2.67652 3.05298 1.8732 5.01684 1.8732 7.06252C1.8732 9.10819 2.67652 11.0721 4.11021 12.5313Z" fill="#808080"/>
</svg>
