<svg width="9" height="14" viewBox="0 0 9 14" fill="none" xmlns="http://www.w3.org/2000/svg">
<path d="M2.5 1.25C2.5 1.49723 2.42669 1.7389 2.28934 1.94446C2.15199 2.15002 1.95676 2.31024 1.72835 2.40485C1.49995 2.49946 1.24861 2.52421 1.00614 2.47598C0.763662 2.42775 0.540933 2.3087 0.366117 2.13388C0.191302 1.95907 0.0722505 1.73634 0.024019 1.49386C-0.0242126 1.25139 0.000541601 1.00005 0.0951511 0.771646C0.189761 0.543239 0.349977 0.348016 0.555538 0.210664C0.761099 0.073312 1.00277 6.73618e-07 1.25 6.73618e-07C1.58152 6.73618e-07 1.89946 0.131697 2.13388 0.366117C2.3683 0.600538 2.5 0.91848 2.5 1.25ZM6.875 2.5C7.12223 2.5 7.3639 2.42669 7.56946 2.28934C7.77503 2.15199 7.93524 1.95676 8.02985 1.72835C8.12446 1.49995 8.14921 1.24861 8.10098 1.00614C8.05275 0.763662 7.9337 0.540933 7.75888 0.366117C7.58407 0.191301 7.36134 0.0722505 7.11886 0.024019C6.87639 -0.0242126 6.62505 0.000541601 6.39665 0.0951511C6.16824 0.189761 5.97302 0.349977 5.83566 0.555538C5.69831 0.761099 5.625 1.00277 5.625 1.25C5.625 1.58152 5.7567 1.89946 5.99112 2.13388C6.22554 2.3683 6.54348 2.5 6.875 2.5ZM1.25 5.3125C1.00277 5.3125 0.761099 5.38581 0.555538 5.52316C0.349977 5.66052 0.189761 5.85574 0.0951511 6.08415C0.000541601 6.31255 -0.0242126 6.56389 0.024019 6.80636C0.0722505 7.04884 0.191302 7.27157 0.366117 7.44638C0.540933 7.6212 0.763662 7.74025 1.00614 7.78848C1.24861 7.83671 1.49995 7.81196 1.72835 7.71735C1.95676 7.62274 2.15199 7.46253 2.28934 7.25696C2.42669 7.0514 2.5 6.80973 2.5 6.5625C2.5 6.23098 2.3683 5.91304 2.13388 5.67862C1.89946 5.4442 1.58152 5.3125 1.25 5.3125ZM6.875 5.3125C6.62777 5.3125 6.3861 5.38581 6.18054 5.52316C5.97498 5.66052 5.81476 5.85574 5.72015 6.08415C5.62554 6.31255 5.60079 6.56389 5.64902 6.80636C5.69725 7.04884 5.8163 7.27157 5.99112 7.44638C6.16593 7.6212 6.38866 7.74025 6.63114 7.78848C6.87361 7.83671 7.12495 7.81196 7.35336 7.71735C7.58176 7.62274 7.77699 7.46253 7.91434 7.25696C8.05169 7.0514 8.125 6.80973 8.125 6.5625C8.125 6.23098 7.9933 5.91304 7.75888 5.67862C7.52446 5.4442 7.20652 5.3125 6.875 5.3125ZM1.25 10.625C1.00277 10.625 0.761099 10.6983 0.555538 10.8357C0.349977 10.973 0.189761 11.1682 0.0951511 11.3966C0.000541601 11.6251 -0.0242126 11.8764 0.024019 12.1189C0.0722505 12.3613 0.191302 12.5841 0.366117 12.7589C0.540933 12.9337 0.763662 13.0528 1.00614 13.101C1.24861 13.1492 1.49995 13.1245 1.72835 13.0299C1.95676 12.9352 2.15199 12.775 2.28934 12.5695C2.42669 12.3639 2.5 12.1222 2.5 11.875C2.5 11.5435 2.3683 11.2255 2.13388 10.9911C1.89946 10.7567 1.58152 10.625 1.25 10.625ZM6.875 10.625C6.62777 10.625 6.3861 10.6983 6.18054 10.8357C5.97498 10.973 5.81476 11.1682 5.72015 11.3966C5.62554 11.6251 5.60079 11.8764 5.64902 12.1189C5.69725 12.3613 5.8163 12.5841 5.99112 12.7589C6.16593 12.9337 6.38866 13.0528 6.63114 13.101C6.87361 13.1492 7.12495 13.1245 7.35336 13.0299C7.58176 12.9352 7.77699 12.775 7.91434 12.5695C8.05169 12.3639 8.125 12.1222 8.125 11.875C8.125 11.5435 7.9933 11.2255 7.75888 10.9911C7.52446 10.7567 7.20652 10.625 6.875 10.625Z" fill="#808080"/>
</svg>
