<svg width="13" height="13" viewBox="0 0 13 13" fill="none" xmlns="http://www.w3.org/2000/svg">
<path fill-rule="evenodd" clip-rule="evenodd" d="M8.54059 1.52859C8.80094 1.26825 9.22305 1.26825 9.4834 1.5286L10.5978 2.64298C10.8581 2.90333 10.8581 3.32544 10.5978 3.58579L9.552 4.63157L7.49481 2.57438L8.54059 1.52859ZM6.0806 2.10298L7.59778 0.585786C8.37883 -0.195263 9.64516 -0.195261 10.4262 0.585787L11.5406 1.70017C12.3216 2.48122 12.3216 3.74755 11.5406 4.5286L10.0255 6.04372C10.0248 6.04441 10.0241 6.0451 10.0234 6.04579C10.0227 6.04648 10.022 6.04716 10.0213 6.04785L4.53112 11.5381C4.10044 11.9687 3.49696 12.1797 2.89175 12.1111L1.35356 11.9369C0.733904 11.8666 0.245687 11.3763 0.178168 10.7564L0.0117699 9.22852C-0.0538467 8.62604 0.157262 8.02631 0.585799 7.59777L6.0806 2.10298ZM8.60919 5.57438L3.58832 10.5953C3.44475 10.7388 3.2436 10.8091 3.04186 10.7863L1.50366 10.612L1.33727 9.08416C1.31539 8.88334 1.38576 8.68342 1.52861 8.54058L6.552 3.51719L8.60919 5.57438Z" fill="white"/>
</svg>
