<svg width="16" height="11" viewBox="0 0 16 11" fill="none" xmlns="http://www.w3.org/2000/svg">
<path d="M15.4392 4.94562C15.4161 4.895 14.8686 3.67937 13.6592 2.47C12.0411 0.854375 10.0017 0 7.75171 0C5.50171 0 3.46234 0.854375 1.84609 2.47C0.63671 3.67937 0.0892102 4.895 0.0642102 4.94562C0.0218684 5.04162 0 5.14539 0 5.25031C0 5.35523 0.0218684 5.459 0.0642102 5.555C0.0873352 5.60625 0.634835 6.82125 1.84484 8.03063C3.46234 9.64625 5.50171 10.5 7.75171 10.5C10.0017 10.5 12.0411 9.64625 13.6567 8.03063C14.8667 6.82125 15.4142 5.60625 15.4373 5.555C15.48 5.45913 15.5022 5.35543 15.5025 5.25051C15.5028 5.14559 15.4813 5.04175 15.4392 4.94562ZM12.5605 7.00813C11.2186 8.32938 9.60109 9 7.75171 9C5.90234 9 4.28484 8.32937 2.94484 7.0075C2.41755 6.48577 1.96399 5.89447 1.59671 5.25C1.96409 4.60579 2.41765 4.01471 2.94484 3.49312C4.28546 2.17062 5.90234 1.5 7.75171 1.5C9.60109 1.5 11.218 2.17062 12.5586 3.49312C13.0858 4.01467 13.5394 4.60575 13.9067 5.25C13.5394 5.89443 13.0858 6.48572 12.5586 7.0075L12.5605 7.00813ZM7.75171 2.5C7.20781 2.5 6.67613 2.66128 6.22389 2.96346C5.77166 3.26563 5.41918 3.69512 5.21104 4.19762C5.0029 4.70012 4.94844 5.25305 5.05455 5.7865C5.16066 6.31995 5.42257 6.80995 5.80717 7.19454C6.19176 7.57914 6.68176 7.84105 7.21521 7.94716C7.74866 8.05327 8.30159 7.99881 8.80409 7.79067C9.30659 7.58253 9.73608 7.23005 10.0383 6.77782C10.3404 6.32558 10.5017 5.7939 10.5017 5.25C10.5009 4.52091 10.2109 3.82192 9.69534 3.30637C9.17979 2.79082 8.4808 2.50083 7.75171 2.5ZM7.75171 6.5C7.50448 6.5 7.26281 6.42669 7.05725 6.28934C6.85169 6.15199 6.69147 5.95676 6.59686 5.72835C6.50225 5.49995 6.4775 5.24861 6.52573 5.00614C6.57396 4.76366 6.69301 4.54093 6.86783 4.36612C7.04264 4.1913 7.26537 4.07225 7.50785 4.02402C7.75032 3.97579 8.00166 4.00054 8.23006 4.09515C8.45847 4.18976 8.6537 4.34998 8.79105 4.55554C8.9284 4.7611 9.00171 5.00277 9.00171 5.25C9.00171 5.58152 8.87001 5.89946 8.63559 6.13388C8.40117 6.3683 8.08323 6.5 7.75171 6.5Z" fill="#E2FC0B"/>
</svg>
