<svg width="15" height="13" viewBox="0 0 15 13" fill="none" xmlns="http://www.w3.org/2000/svg">
<path d="M10.375 0C9.11937 0 8.005 0.495625 7.25 1.3475C6.495 0.495625 5.38063 0 4.125 0C3.03139 0.00132319 1.98295 0.436345 1.20965 1.20965C0.436345 1.98295 0.00132319 3.03139 0 4.125C0 8.64625 6.61312 12.2588 6.89437 12.4106C7.00367 12.4695 7.12586 12.5003 7.25 12.5003C7.37414 12.5003 7.49633 12.4695 7.60563 12.4106C7.88688 12.2588 14.5 8.64625 14.5 4.125C14.4987 3.03139 14.0637 1.98295 13.2904 1.20965C12.5171 0.436345 11.4686 0.00132319 10.375 0ZM10.0319 8.8975C9.16142 9.63615 8.23091 10.3009 7.25 10.885C6.26909 10.3009 5.33858 9.63615 4.46812 8.8975C3.11375 7.73563 1.5 5.96375 1.5 4.125C1.5 3.42881 1.77656 2.76113 2.26884 2.26884C2.76113 1.77656 3.42881 1.5 4.125 1.5C5.2375 1.5 6.16875 2.0875 6.55562 3.03375C6.61193 3.17169 6.70805 3.28974 6.83172 3.37283C6.95539 3.45592 7.10101 3.5003 7.25 3.5003C7.39899 3.5003 7.54461 3.45592 7.66828 3.37283C7.79195 3.28974 7.88807 3.17169 7.94438 3.03375C8.33125 2.0875 9.2625 1.5 10.375 1.5C11.0712 1.5 11.7389 1.77656 12.2312 2.26884C12.7234 2.76113 13 3.42881 13 4.125C13 5.96375 11.3862 7.73563 10.0319 8.8975Z" fill="white"/>
</svg>
