<svg width="15" height="17" viewBox="0 0 15 17" fill="none" xmlns="http://www.w3.org/2000/svg">
<path d="M14.1008 4.65L9.72578 0.275C9.63872 0.187827 9.53532 0.11867 9.42151 0.071483C9.3077 0.0242964 9.18571 5.74419e-06 9.0625 0H1.5625C1.1481 0 0.750671 0.16462 0.457646 0.457646C0.16462 0.750671 0 1.1481 0 1.5625V15.3125C0 15.7269 0.16462 16.1243 0.457646 16.4174C0.750671 16.7104 1.1481 16.875 1.5625 16.875H12.8125C13.2269 16.875 13.6243 16.7104 13.9174 16.4174C14.2104 16.1243 14.375 15.7269 14.375 15.3125V5.3125C14.375 5.06406 14.2764 4.82577 14.1008 4.65ZM9.6875 2.89062L11.4844 4.6875H9.6875V2.89062ZM1.875 15V1.875H7.8125V5.625C7.8125 5.87364 7.91127 6.1121 8.08709 6.28791C8.2629 6.46373 8.50136 6.5625 8.75 6.5625H12.5V15H1.875Z" fill="#E2FC0B"/>
</svg>
