<svg width="46" height="54" viewBox="0 0 46 54" fill="none" xmlns="http://www.w3.org/2000/svg">
<path d="M12 51C12 51.7957 11.6839 52.5587 11.1213 53.1213C10.5587 53.6839 9.79565 54 9 54H5C3.67392 54 2.40215 53.4732 1.46447 52.5355C0.526784 51.5979 0 50.3261 0 49V41C0 40.2043 0.31607 39.4413 0.878679 38.8787C1.44129 38.3161 2.20435 38 3 38C3.79565 38 4.55871 38.3161 5.12132 38.8787C5.68393 39.4413 6 40.2043 6 41V48H9C9.79565 48 10.5587 48.3161 11.1213 48.8787C11.6839 49.4413 12 50.2043 12 51ZM46 17V29C46 29.7956 45.6839 30.5587 45.1213 31.1213C44.5587 31.6839 43.7957 32 43 32C42.2043 32 41.4413 31.6839 40.8787 31.1213C40.3161 30.5587 40 29.7956 40 29V21H28C27.2044 21 26.4413 20.6839 25.8787 20.1213C25.3161 19.5587 25 18.7956 25 18V6H21C20.2044 6 19.4413 5.68393 18.8787 5.12132C18.3161 4.55871 18 3.79565 18 3C18 2.20435 18.3161 1.44129 18.8787 0.878681C19.4413 0.316072 20.2044 9.27598e-07 21 9.27598e-07H29C29.3941 -0.000308958 29.7844 0.0770272 30.1485 0.227591C30.5127 0.378156 30.8437 0.598998 31.1225 0.877501L45.1225 14.8775C45.401 15.1563 45.6218 15.4873 45.7724 15.8515C45.923 16.2156 46.0003 16.6059 46 17ZM31 15H36.75L31 9.25V15ZM11 9.27598e-07H5C3.67392 9.27598e-07 2.40215 0.526785 1.46447 1.46447C0.526784 2.40215 0 3.67392 0 5V11C0 11.7957 0.31607 12.5587 0.878679 13.1213C1.44129 13.6839 2.20435 14 3 14C3.79565 14 4.55871 13.6839 5.12132 13.1213C5.68393 12.5587 6 11.7957 6 11V6H11C11.7956 6 12.5587 5.68393 13.1213 5.12132C13.6839 4.55871 14 3.79565 14 3C14 2.20435 13.6839 1.44129 13.1213 0.878681C12.5587 0.316072 11.7956 9.27598e-07 11 9.27598e-07ZM43 36C42.2043 36 41.4413 36.3161 40.8787 36.8787C40.3161 37.4413 40 38.2043 40 39V48H39C38.2043 48 37.4413 48.3161 36.8787 48.8787C36.3161 49.4413 36 50.2043 36 51C36 51.7957 36.3161 52.5587 36.8787 53.1213C37.4413 53.6839 38.2043 54 39 54H41C42.3261 54 43.5979 53.4732 44.5355 52.5355C45.4732 51.5979 46 50.3261 46 49V39C46 38.2043 45.6839 37.4413 45.1213 36.8787C44.5587 36.3161 43.7957 36 43 36ZM3 34C3.79565 34 4.55871 33.6839 5.12132 33.1213C5.68393 32.5587 6 31.7956 6 31V21C6 20.2044 5.68393 19.4413 5.12132 18.8787C4.55871 18.3161 3.79565 18 3 18C2.20435 18 1.44129 18.3161 0.878679 18.8787C0.31607 19.4413 0 20.2044 0 21V31C0 31.7956 0.31607 32.5587 0.878679 33.1213C1.44129 33.6839 2.20435 34 3 34ZM29 48H19C18.2044 48 17.4413 48.3161 16.8787 48.8787C16.3161 49.4413 16 50.2043 16 51C16 51.7957 16.3161 52.5587 16.8787 53.1213C17.4413 53.6839 18.2044 54 19 54H29C29.7956 54 30.5587 53.6839 31.1213 53.1213C31.6839 52.5587 32 51.7957 32 51C32 50.2043 31.6839 49.4413 31.1213 48.8787C30.5587 48.3161 29.7956 48 29 48Z" fill="#E2FC01"/>
</svg>
