<svg width="10" height="13" viewBox="0 0 10 13" fill="none" xmlns="http://www.w3.org/2000/svg">
<path d="M8.25 0H1.25C0.918479 0 0.600537 0.131696 0.366117 0.366117C0.131696 0.600537 4.22803e-08 0.918479 4.22803e-08 1.25V12.25C-4.49116e-05 12.3839 0.0357583 12.5154 0.103691 12.6308C0.171624 12.7461 0.26921 12.8412 0.386314 12.9062C0.503418 12.9711 0.635769 13.0035 0.769623 13C0.903478 12.9965 1.03395 12.9572 1.1475 12.8862L4.74937 10.6362L8.3525 12.8862C8.46605 12.9572 8.59652 12.9965 8.73038 13C8.86423 13.0035 8.99658 12.9711 9.11369 12.9062C9.23079 12.8412 9.32838 12.7461 9.39631 12.6308C9.46424 12.5154 9.50004 12.3839 9.5 12.25V1.25C9.5 0.918479 9.3683 0.600537 9.13388 0.366117C8.89946 0.131696 8.58152 0 8.25 0ZM8 10.8969L5.14688 9.11375C5.02768 9.03925 4.88994 8.99975 4.74937 8.99975C4.60881 8.99975 4.47107 9.03925 4.35187 9.11375L1.5 10.8969V1.5H8V10.8969Z" fill="white"/>
</svg>
