<svg width="49" height="54" viewBox="0 0 49 54" fill="none" xmlns="http://www.w3.org/2000/svg">
<path d="M8.73282 17.5414L5.95445 33.2983C5.81629 34.0819 5.37252 34.7785 4.72076 35.2348C4.069 35.6912 3.26265 35.87 2.47908 35.7318C1.69552 35.5937 0.998938 35.1499 0.542572 34.4981C0.086206 33.8464 -0.0925583 33.04 0.0456048 32.2564L2.82398 16.4995C2.96214 15.716 3.40591 15.0194 4.05767 14.563C4.70943 14.1066 5.51578 13.9279 6.29934 14.066C7.08291 14.2042 7.77949 14.648 8.23586 15.2997C8.69222 15.9515 8.87099 16.7579 8.73282 17.5414ZM18.9258 0.0456038C18.1422 -0.0925593 17.3359 0.0862052 16.6841 0.542571C16.0324 0.998937 15.5886 1.69552 15.4504 2.47908L7.11531 49.7499C6.97715 50.5334 7.15591 51.3398 7.61228 51.9915C8.06864 52.6433 8.76523 53.0871 9.54879 53.2252C10.3324 53.3634 11.1387 53.1846 11.7905 52.7283C12.4422 52.2719 12.886 51.5753 13.0242 50.7917L21.3593 3.52097C21.4974 2.73741 21.3187 1.93106 20.8623 1.2793C20.4059 0.62754 19.7094 0.183767 18.9258 0.0456038ZM27.3847 9.66055C26.6011 9.52238 25.7948 9.70115 25.143 10.1575C24.4913 10.6139 24.0475 11.3105 23.9093 12.094L18.3526 43.6079C18.2144 44.3914 18.3932 45.1978 18.8495 45.8495C19.3059 46.5013 20.0025 46.9451 20.7861 47.0832C21.5696 47.2214 22.376 47.0426 23.0277 46.5863C23.6795 46.1299 24.1233 45.4333 24.2614 44.6498L29.8182 13.1359C29.9563 12.3524 29.7776 11.546 29.3212 10.8942C28.8648 10.2425 28.1682 9.79871 27.3847 9.66055ZM35.8436 19.2755C35.06 19.1373 34.2537 19.3161 33.6019 19.7725C32.9501 20.2288 32.5064 20.9254 32.3682 21.709L29.5898 37.4659C29.4517 38.2495 29.6304 39.0558 30.0868 39.7076C30.5432 40.3593 31.2398 40.8031 32.0233 40.9413C32.8069 41.0794 33.6132 40.9007 34.265 40.4443C34.9167 39.9879 35.3605 39.2913 35.4987 38.5078L38.2771 22.7509C38.4152 21.9673 38.2365 21.1609 37.7801 20.5092C37.3237 19.8574 36.6271 19.4137 35.8436 19.2755ZM46.3862 17.0727C45.6027 16.9346 44.7963 17.1133 44.1446 17.5697C43.4928 18.0261 43.049 18.7227 42.9109 19.5062L38.7433 43.1416C38.6052 43.9252 38.7839 44.7315 39.2403 45.3833C39.6967 46.035 40.3932 46.4788 41.1768 46.617C41.9604 46.7551 42.7667 46.5764 43.4185 46.12C44.0702 45.6636 44.514 44.9671 44.6522 44.1835L48.8197 20.5481C48.9579 19.7645 48.7791 18.9582 48.3228 18.3064C47.8664 17.6547 47.1698 17.2109 46.3862 17.0727Z" fill="black" fill-opacity="0.3"/>
</svg>
