<svg width="14" height="12" viewBox="0 0 14 12" fill="none" xmlns="http://www.w3.org/2000/svg">
<path d="M11.5456 1.99355C10.6028 1.04472 9.39952 0.39718 8.08826 0.133024C6.77701 -0.131131 5.41685 -1.07288e-05 4.1802 0.509764C2.94355 1.01954 1.88611 1.88501 1.14191 2.99647C0.39772 4.10793 0.000288167 5.41533 0 6.75292V10.2529C0 10.7171 0.184374 11.1622 0.512563 11.4904C0.840752 11.8185 1.28587 12.0029 1.75 12.0029H2.75C3.21413 12.0029 3.65925 11.8185 3.98744 11.4904C4.31563 11.1622 4.5 10.7171 4.5 10.2529V7.75292C4.5 7.28879 4.31563 6.84367 3.98744 6.51549C3.65925 6.1873 3.21413 6.00292 2.75 6.00292H1.5525C1.7335 4.75347 2.35843 3.61099 3.31289 2.78462C4.26735 1.95824 5.4875 1.50325 6.75 1.50292H6.79C8.04687 1.5083 9.25979 1.96603 10.2069 2.79236C11.1539 3.61869 11.7718 4.75838 11.9475 6.00292H10.75C10.2859 6.00292 9.84075 6.1873 9.51256 6.51549C9.18437 6.84367 9 7.28879 9 7.75292V10.2529C9 10.7171 9.18437 11.1622 9.51256 11.4904C9.84075 11.8185 10.2859 12.0029 10.75 12.0029H11.75C11.9798 12.0029 12.2074 11.9577 12.4197 11.8697C12.632 11.7818 12.8249 11.6529 12.9874 11.4904C13.1499 11.3279 13.2788 11.1349 13.3668 10.9226C13.4547 10.7103 13.5 10.4827 13.5 10.2529V6.75292C13.5034 5.87004 13.3326 4.99515 12.9972 4.17844C12.6618 3.36172 12.1685 2.61923 11.5456 1.99355ZM2.75 7.50292C2.8163 7.50292 2.87989 7.52926 2.92678 7.57615C2.97366 7.62303 3 7.68662 3 7.75292V10.2529C3 10.3192 2.97366 10.3828 2.92678 10.4297C2.87989 10.4766 2.8163 10.5029 2.75 10.5029H1.75C1.6837 10.5029 1.62011 10.4766 1.57322 10.4297C1.52634 10.3828 1.5 10.3192 1.5 10.2529V7.50292H2.75ZM12 10.2529C12 10.3192 11.9737 10.3828 11.9268 10.4297C11.8799 10.4766 11.8163 10.5029 11.75 10.5029H10.75C10.6837 10.5029 10.6201 10.4766 10.5732 10.4297C10.5263 10.3828 10.5 10.3192 10.5 10.2529V7.75292C10.5 7.68662 10.5263 7.62303 10.5732 7.57615C10.6201 7.52926 10.6837 7.50292 10.75 7.50292H12V10.2529Z" fill="#E2FC0B"/>
</svg>
