<svg width="20" height="20" viewBox="0 0 20 20" fill="none" xmlns="http://www.w3.org/2000/svg">
<path d="M17.3547 8.26998L11.1047 2.01998C10.8117 1.72706 10.4143 1.5625 10 1.5625C9.58569 1.5625 9.18833 1.72706 8.89532 2.01998L2.64532 8.26998C2.49964 8.41477 2.38415 8.58704 2.30557 8.77681C2.22698 8.96657 2.18685 9.17005 2.18751 9.37545V16.8754C2.18751 17.1241 2.28628 17.3625 2.4621 17.5384C2.63791 17.7142 2.87637 17.8129 3.12501 17.8129H8.12501C8.37365 17.8129 8.6121 17.7142 8.78792 17.5384C8.96374 17.3625 9.06251 17.1241 9.06251 16.8754V12.8129H10.9375V16.8754C10.9375 17.1241 11.0363 17.3625 11.2121 17.5384C11.3879 17.7142 11.6264 17.8129 11.875 17.8129H16.875C17.1236 17.8129 17.3621 17.7142 17.5379 17.5384C17.7137 17.3625 17.8125 17.1241 17.8125 16.8754V9.37545C17.8132 9.17005 17.773 8.96657 17.6945 8.77681C17.6159 8.58704 17.5004 8.41477 17.3547 8.26998ZM15.9375 15.9379H12.8125V11.8754C12.8125 11.6268 12.7137 11.3884 12.5379 11.2125C12.3621 11.0367 12.1236 10.9379 11.875 10.9379H8.12501C7.87637 10.9379 7.63791 11.0367 7.4621 11.2125C7.28628 11.3884 7.18751 11.6268 7.18751 11.8754V15.9379H4.06251V9.50435L10 3.56685L15.9375 9.50435V15.9379Z" fill="white"/>
</svg>
