<svg width="22" height="12" viewBox="0 0 22 12" fill="none" xmlns="http://www.w3.org/2000/svg">
<path d="M6.2477 11.5195V7.11153C6.2477 6.63153 6.20236 6.19153 6.1117 5.79153C6.02103 5.3862 5.87436 5.0342 5.6717 4.73553C5.47436 4.43153 5.2157 4.19686 4.8957 4.03153C4.58103 3.8662 4.19703 3.78353 3.7437 3.78353C3.3277 3.78353 2.9597 3.85553 2.6397 3.99953C2.32503 4.14353 2.05836 4.35153 1.8397 4.62353C1.62636 4.8902 1.4637 5.21553 1.3517 5.59953C1.2397 5.98353 1.1837 6.42086 1.1837 6.91153L0.351695 6.72753C0.351695 5.8422 0.506362 5.0982 0.815695 4.49553C1.12503 3.89286 1.5517 3.43686 2.0957 3.12753C2.6397 2.8182 3.2637 2.66353 3.9677 2.66353C4.48503 2.66353 4.9357 2.74353 5.3197 2.90353C5.70903 3.06353 6.03703 3.27953 6.3037 3.55153C6.5757 3.82353 6.79436 4.13553 6.9597 4.48753C7.12503 4.8342 7.24503 5.20486 7.3197 5.59953C7.39436 5.98886 7.4317 6.3782 7.4317 6.76753V11.5195H6.2477ZM-0.00030458 11.5195V-0.000469208H1.0637V6.50353H1.1837V11.5195H-0.00030458ZM9.5077 11.5195V2.87953H10.5637V4.95953L10.3557 4.68753C10.4517 4.43153 10.577 4.19686 10.7317 3.98353C10.8864 3.76486 11.0544 3.5862 11.2357 3.44753C11.4597 3.2502 11.721 3.10086 12.0197 2.99953C12.3184 2.89286 12.6197 2.83153 12.9237 2.81553C13.2277 2.7942 13.505 2.81553 13.7557 2.87953V3.98353C13.441 3.90353 13.097 3.88486 12.7237 3.92753C12.3504 3.9702 12.0064 4.11953 11.6917 4.37553C11.4037 4.59953 11.1877 4.86886 11.0437 5.18353C10.8997 5.49286 10.8037 5.82353 10.7557 6.17553C10.7077 6.5222 10.6837 6.8662 10.6837 7.20753V11.5195H9.5077ZM18.1848 11.7515C17.1715 11.7515 16.3368 11.5329 15.6808 11.0955C15.0302 10.6582 14.6302 10.0502 14.4808 9.27153L15.6808 9.07153C15.8088 9.5622 16.0995 9.9542 16.5528 10.2475C17.0115 10.5355 17.5768 10.6795 18.2488 10.6795C18.9048 10.6795 19.4222 10.5435 19.8008 10.2715C20.1795 9.9942 20.3688 9.6182 20.3688 9.14353C20.3688 8.87686 20.3075 8.66086 20.1848 8.49553C20.0675 8.32486 19.8248 8.16753 19.4568 8.02353C19.0888 7.87953 18.5395 7.70886 17.8088 7.51153C17.0248 7.2982 16.4115 7.08486 15.9688 6.87153C15.5262 6.6582 15.2115 6.41286 15.0248 6.13553C14.8382 5.85286 14.7448 5.50886 14.7448 5.10353C14.7448 4.61286 14.8835 4.18353 15.1608 3.81553C15.4382 3.4422 15.8222 3.1542 16.3128 2.95153C16.8035 2.74353 17.3742 2.63953 18.0248 2.63953C18.6755 2.63953 19.2568 2.7462 19.7688 2.95953C20.2862 3.16753 20.7022 3.46086 21.0168 3.83953C21.3315 4.2182 21.5182 4.6582 21.5768 5.15953L20.3768 5.37553C20.2968 4.86886 20.0435 4.46886 19.6168 4.17553C19.1955 3.87686 18.6595 3.7222 18.0088 3.71153C17.3955 3.69553 16.8968 3.81286 16.5128 4.06353C16.1288 4.30886 15.9368 4.63686 15.9368 5.04753C15.9368 5.27686 16.0062 5.4742 16.1448 5.63953C16.2835 5.79953 16.5342 5.95153 16.8968 6.09553C17.2648 6.23953 17.7875 6.39686 18.4648 6.56753C19.2595 6.7702 19.8835 6.98353 20.3368 7.20753C20.7902 7.43153 21.1128 7.69553 21.3048 7.99953C21.4968 8.30353 21.5928 8.67953 21.5928 9.12753C21.5928 9.94353 21.2888 10.5862 20.6808 11.0555C20.0782 11.5195 19.2462 11.7515 18.1848 11.7515Z" fill="white"/>
</svg>
