<svg width="34" height="29" viewBox="0 0 34 29" fill="none" xmlns="http://www.w3.org/2000/svg">
<path d="M19.375 9.375C19.375 8.88055 19.5216 8.3972 19.7963 7.98607C20.071 7.57495 20.4615 7.25452 20.9183 7.0653C21.3751 6.87608 21.8778 6.82657 22.3627 6.92304C22.8477 7.0195 23.2931 7.2576 23.6428 7.60723C23.9924 7.95686 24.2305 8.40232 24.327 8.88727C24.4234 9.37223 24.3739 9.87489 24.1847 10.3317C23.9955 10.7885 23.675 11.179 23.2639 11.4537C22.8528 11.7284 22.3695 11.875 21.875 11.875C21.212 11.875 20.5761 11.6116 20.1072 11.1428C19.6384 10.6739 19.375 10.038 19.375 9.375ZM33.75 3.125V25.625C33.75 26.4538 33.4208 27.2487 32.8347 27.8347C32.2487 28.4208 31.4538 28.75 30.625 28.75H3.125C2.2962 28.75 1.50134 28.4208 0.915291 27.8347C0.32924 27.2487 0 26.4538 0 25.625V3.125C0 2.2962 0.32924 1.50134 0.915291 0.915291C1.50134 0.32924 2.2962 0 3.125 0H30.625C31.4538 0 32.2487 0.32924 32.8347 0.915291C33.4208 1.50134 33.75 2.2962 33.75 3.125ZM3.75 3.75V16.2062L9.04062 10.9156C9.62665 10.3298 10.4214 10.0007 11.25 10.0007C12.0786 10.0007 12.8734 10.3298 13.4594 10.9156L19.8922 17.3438L22.5766 14.6609C23.1626 14.0751 23.9573 13.746 24.7859 13.746C25.6146 13.746 26.4093 14.0751 26.9953 14.6609L30 17.6703V3.75H3.75ZM3.75 25H22.2406L11.25 14.0094L3.75 21.5094V25ZM30 25V22.9688L24.7859 17.7547L22.5438 20L27.5438 25H30Z" fill="#E2FC0B"/>
</svg>
