<svg width="10" height="11" viewBox="0 0 10 11" fill="none" xmlns="http://www.w3.org/2000/svg">
<path d="M9.5 0.75C9.5 0.948912 9.42098 1.13968 9.28033 1.28033C9.13968 1.42098 8.94891 1.5 8.75 1.5H6.79062L4.29063 9H5.75C5.94891 9 6.13968 9.07902 6.28033 9.21967C6.42098 9.36032 6.5 9.55109 6.5 9.75C6.5 9.94891 6.42098 10.1397 6.28033 10.2803C6.13968 10.421 5.94891 10.5 5.75 10.5H0.75C0.551088 10.5 0.360322 10.421 0.21967 10.2803C0.0790175 10.1397 0 9.94891 0 9.75C0 9.55109 0.0790175 9.36032 0.21967 9.21967C0.360322 9.07902 0.551088 9 0.75 9H2.70937L5.20938 1.5H3.75C3.55109 1.5 3.36032 1.42098 3.21967 1.28033C3.07902 1.13968 3 0.948912 3 0.75C3 0.551088 3.07902 0.360322 3.21967 0.21967C3.36032 0.0790175 3.55109 4.19177e-09 3.75 0H8.75C8.94891 0 9.13968 0.0790175 9.28033 0.21967C9.42098 0.360322 9.5 0.551088 9.5 0.75Z" fill="white"/>
</svg>
