<svg width="10" height="12" viewBox="0 0 10 12" fill="none" xmlns="http://www.w3.org/2000/svg">
<path d="M9.5 11.25C9.5 11.4489 9.42098 11.6397 9.28033 11.7803C9.13968 11.921 8.94891 12 8.75 12H0.75C0.551088 12 0.360322 11.921 0.21967 11.7803C0.0790175 11.6397 0 11.4489 0 11.25C0 11.0511 0.0790175 10.8603 0.21967 10.7197C0.360322 10.579 0.551088 10.5 0.75 10.5H8.75C8.94891 10.5 9.13968 10.579 9.28033 10.7197C9.42098 10.8603 9.5 11.0511 9.5 11.25ZM4.75 9.5C5.87681 9.49884 6.95715 9.0507 7.75392 8.25392C8.5507 7.45715 8.99884 6.37681 9 5.25V0.75C9 0.551088 8.92098 0.360322 8.78033 0.21967C8.63968 0.0790175 8.44891 0 8.25 0C8.05109 0 7.86032 0.0790175 7.71967 0.21967C7.57902 0.360322 7.5 0.551088 7.5 0.75V5.25C7.5 5.97935 7.21027 6.67882 6.69454 7.19454C6.17882 7.71027 5.47935 8 4.75 8C4.02065 8 3.32118 7.71027 2.80546 7.19454C2.28973 6.67882 2 5.97935 2 5.25V0.75C2 0.551088 1.92098 0.360322 1.78033 0.21967C1.63968 0.0790175 1.44891 0 1.25 0C1.05109 0 0.860322 0.0790175 0.71967 0.21967C0.579018 0.360322 0.5 0.551088 0.5 0.75V5.25C0.501158 6.37681 0.949296 7.45715 1.74608 8.25392C2.54285 9.0507 3.62319 9.49884 4.75 9.5Z" fill="white"/>
</svg>
