<svg width="19" height="15" viewBox="0 0 19 15" fill="none" xmlns="http://www.w3.org/2000/svg">
<path d="M5.25 1.125C5.25 0.826631 5.36853 0.540483 5.5795 0.329505C5.79048 0.118526 6.07663 0 6.375 0H17.625C17.9234 0 18.2095 0.118526 18.4205 0.329505C18.6315 0.540483 18.75 0.826631 18.75 1.125C18.75 1.42337 18.6315 1.70952 18.4205 1.9205C18.2095 2.13147 17.9234 2.25 17.625 2.25H6.375C6.07663 2.25 5.79048 2.13147 5.5795 1.9205C5.36853 1.70952 5.25 1.42337 5.25 1.125ZM17.625 6H6.375C6.07663 6 5.79048 6.11853 5.5795 6.3295C5.36853 6.54048 5.25 6.82663 5.25 7.125C5.25 7.42337 5.36853 7.70952 5.5795 7.92049C5.79048 8.13147 6.07663 8.25 6.375 8.25H17.625C17.9234 8.25 18.2095 8.13147 18.4205 7.92049C18.6315 7.70952 18.75 7.42337 18.75 7.125C18.75 6.82663 18.6315 6.54048 18.4205 6.3295C18.2095 6.11853 17.9234 6 17.625 6ZM17.625 12H6.375C6.07663 12 5.79048 12.1185 5.5795 12.3295C5.36853 12.5405 5.25 12.8266 5.25 13.125C5.25 13.4234 5.36853 13.7095 5.5795 13.9205C5.79048 14.1315 6.07663 14.25 6.375 14.25H17.625C17.9234 14.25 18.2095 14.1315 18.4205 13.9205C18.6315 13.7095 18.75 13.4234 18.75 13.125C18.75 12.8266 18.6315 12.5405 18.4205 12.3295C18.2095 12.1185 17.9234 12 17.625 12ZM2.625 0H1.125C0.826631 0 0.540483 0.118526 0.329505 0.329505C0.118526 0.540483 0 0.826631 0 1.125C0 1.42337 0.118526 1.70952 0.329505 1.9205C0.540483 2.13147 0.826631 2.25 1.125 2.25H2.625C2.92337 2.25 3.20952 2.13147 3.4205 1.9205C3.63147 1.70952 3.75 1.42337 3.75 1.125C3.75 0.826631 3.63147 0.540483 3.4205 0.329505C3.20952 0.118526 2.92337 0 2.625 0ZM2.625 6H1.125C0.826631 6 0.540483 6.11853 0.329505 6.3295C0.118526 6.54048 0 6.82663 0 7.125C0 7.42337 0.118526 7.70952 0.329505 7.92049C0.540483 8.13147 0.826631 8.25 1.125 8.25H2.625C2.92337 8.25 3.20952 8.13147 3.4205 7.92049C3.63147 7.70952 3.75 7.42337 3.75 7.125C3.75 6.82663 3.63147 6.54048 3.4205 6.3295C3.20952 6.11853 2.92337 6 2.625 6ZM2.625 12H1.125C0.826631 12 0.540483 12.1185 0.329505 12.3295C0.118526 12.5405 0 12.8266 0 13.125C0 13.4234 0.118526 13.7095 0.329505 13.9205C0.540483 14.1315 0.826631 14.25 1.125 14.25H2.625C2.92337 14.25 3.20952 14.1315 3.4205 13.9205C3.63147 13.7095 3.75 13.4234 3.75 13.125C3.75 12.8266 3.63147 12.5405 3.4205 12.3295C3.20952 12.1185 2.92337 12 2.625 12Z" fill="#808080"/>
</svg>
