<svg width="40" height="40" viewBox="0 0 40 40" fill="none" xmlns="http://www.w3.org/2000/svg">
<path d="M32.1667 32.2336H28.6453C25.9786 28.7436 22.942 25.3599 19.9775 22.0786C19.8279 21.9161 19.681 21.7511 19.5328 21.5874C18.9413 20.9311 18.3359 20.2636 17.7319 19.5911C17.3052 19.1149 16.8785 18.6386 16.456 18.1636C16.0349 17.6886 15.6124 17.1649 15.1719 16.6599C12.9997 14.2124 10.8511 11.7012 8.87982 9.10991C8.40743 8.49116 7.91842 7.81617 7.53608 7.07492C7.34352 6.69867 7.19253 6.33492 7.08447 5.98242H10.2776C10.5422 6.55867 10.9799 7.16242 11.3997 7.71617C14.2299 11.4374 17.4867 15.0399 20.6341 18.5236C20.871 18.7861 21.1093 19.0511 21.3503 19.3161C22.1025 20.1486 22.8658 20.9961 23.6153 21.8386L23.7122 21.9486C24.1999 22.4999 24.585 22.9799 24.9936 23.4511C27.1672 25.8999 29.3172 28.4099 31.2884 31.0036C31.5835 31.3898 31.8855 31.7986 32.1639 32.2336H32.1667Z" fill="white"/>
<path d="M33.2959 35.6363C33.2793 36.0001 33.2156 36.3426 33.1089 36.6613C33.0826 36.7401 33.0535 36.8188 33.023 36.8951C33.0119 36.8951 33.0022 36.8951 32.9898 36.8926C32.5742 37.8726 31.7472 38.6201 30.7511 39.1076C30.6555 39.1563 30.5586 39.2001 30.4602 39.2426C30.4574 39.2426 30.4561 39.2426 30.4547 39.2451C30.4533 39.2476 30.4505 39.2476 30.4491 39.2476C29.7593 39.5401 29.007 39.7588 28.2604 39.8063C28.0733 39.8188 27.8877 39.8251 27.7007 39.8251C26.5675 39.8251 25.4385 39.6176 24.3718 39.3338C25.4163 38.8501 26.2877 38.0838 26.7171 37.0701H26.7199C26.7379 37.0276 26.7545 36.9838 26.7712 36.9401C27.0552 36.9613 27.335 36.9638 27.6079 36.9476C28.0235 36.9213 28.446 36.8226 28.8242 36.6613H28.827C29.1663 36.5163 29.4697 36.3226 29.6969 36.0876C29.9574 35.8201 30.1236 35.5001 30.1374 35.1388C30.1707 34.3101 29.4503 33.2901 28.7702 32.3976C28.7286 32.3438 28.687 32.2901 28.6469 32.2363H32.1683C32.3331 32.4951 32.4911 32.7638 32.6338 33.0413C33.1131 33.9663 33.3292 34.8188 33.2973 35.6388L33.2959 35.6363Z" fill="url(#paint0_linear_332_301)"/>
<path d="M15.4904 0.701023C14.522 1.19602 13.6908 1.97477 13.2863 2.92977H13.2836C13.2517 3.00602 13.2226 3.08477 13.1963 3.16352C12.9816 3.15227 12.7696 3.15352 12.5632 3.16602C12.2377 3.18727 11.9066 3.25352 11.5949 3.35852C11.581 3.36477 11.5672 3.36852 11.5533 3.37477C11.1585 3.51226 10.797 3.71601 10.5296 3.97351C10.2373 4.24976 10.0489 4.58851 10.0337 4.97601C10.0212 5.28976 10.1182 5.63226 10.2775 5.98351H7.08435C6.92366 5.46476 6.85578 4.96601 6.87517 4.47601C6.8918 4.07351 6.96799 3.69976 7.09682 3.35102C7.11622 3.29227 7.14115 3.23477 7.1647 3.17852C7.58722 2.18352 8.43225 1.42852 9.44906 0.941022C9.53218 0.899773 9.6153 0.862273 9.70118 0.826023C10.3786 0.538524 11.117 0.363524 11.8512 0.312274C11.8706 0.309774 11.89 0.308524 11.9094 0.307274C13.1201 0.228524 14.3378 0.413524 15.4904 0.701023Z" fill="url(#paint1_linear_332_301)"/>
<path d="M14.0349 22.6508L14.0247 22.6551L14.0298 22.6479L14.0349 22.6508Z" fill="url(#paint2_linear_332_301)"/>
<path d="M26.9917 35.8123C26.9751 36.2161 26.8989 36.5923 26.7701 36.9398C26.7534 36.9836 26.7368 37.0273 26.7188 37.0698H26.716C26.2866 38.0848 25.4152 38.8498 24.3707 39.3336C24.3389 39.3511 24.307 39.3648 24.2738 39.3798C24.2738 39.3798 24.271 39.3798 24.2668 39.3823H24.2641H24.2613C24.2613 39.3823 24.2613 39.3823 24.2585 39.3848C23.5645 39.6798 22.7084 39.9323 21.9562 39.9811C21.7691 39.9936 21.5835 39.9998 21.3965 39.9998C21.0432 39.9998 20.6914 39.9798 20.3409 39.9423C20.0237 39.9098 19.7092 39.8648 19.3975 39.8073L19.4003 39.8036C18.1147 39.5736 16.8832 39.1686 15.793 38.7973C15.793 38.7973 15.792 38.7973 15.7902 38.7973C15.7029 38.7623 15.6156 38.7261 15.5297 38.6898C11.7049 37.0648 9.13659 34.4898 8.52152 33.8323C6.17205 31.3248 5.08182 28.3624 5.60685 25.9074C5.6581 25.6711 5.72321 25.4386 5.80356 25.2099L8.76117 26.6274C8.74317 26.6911 8.72793 26.7561 8.71407 26.8211C8.37606 28.4049 9.15876 30.3998 10.8086 32.1598C12.1191 33.5586 14.2525 35.1911 16.7557 36.2073C16.7557 36.2073 16.7585 36.2073 16.7599 36.2073C17.8737 36.5823 18.9999 36.9373 20.0777 37.0723C20.3035 37.0998 20.5279 37.1198 20.7496 37.1273C20.938 37.1348 21.1208 37.1336 21.3037 37.1198C21.6334 37.0986 21.9645 37.0323 22.2762 36.9261C22.6862 36.7873 23.0602 36.5786 23.3387 36.3136C23.631 36.0348 23.8194 35.6961 23.8346 35.3098C23.8679 34.4811 23.1461 33.4611 22.4673 32.5686C19.8768 29.1623 16.9289 25.8561 14.0336 22.6486L14.0475 22.6436L11.8518 20.2136L11.8379 20.2199L11.8338 20.2149C11.2713 19.5911 10.7089 18.9636 10.1534 18.3386C9.73227 17.8636 9.30837 17.3399 8.86923 16.8349C6.69708 14.3874 4.54848 11.8762 2.57581 9.28491C2.10481 8.66616 1.6158 7.99242 1.23345 7.24992C1.00765 6.81242 0.84003 6.39117 0.730591 5.98242H3.90016C4.14951 6.61117 4.63298 7.27992 5.09844 7.89117C7.92861 11.6124 11.1841 15.2149 14.3328 18.6986C14.7027 19.1074 15.0781 19.5224 15.4536 19.9411C16.1074 20.6636 16.7641 21.3949 17.411 22.1224C17.4955 22.2186 17.5786 22.3136 17.659 22.4061C18.0358 22.8424 18.3544 23.2374 18.6938 23.6249C20.8659 26.0736 23.0159 28.5836 24.9886 31.1773C25.4582 31.7936 25.9472 32.4698 26.3309 33.2123C26.8102 34.1373 27.025 34.9898 26.9931 35.8098L26.9917 35.8123Z" fill="white"/>
<path d="M9.44938 0.941118C8.43257 1.42862 7.58754 2.18361 7.16502 3.17861C7.14147 3.23611 7.11792 3.29361 7.09714 3.35111C6.81039 3.32861 6.53333 3.32361 6.26042 3.34111C5.04829 3.41736 3.77104 4.11611 3.72948 5.15111C3.71978 5.41236 3.78489 5.6936 3.89987 5.9836H0.730306C0.607014 5.52735 0.555758 5.08486 0.572382 4.65236C0.673509 2.11862 3.1809 0.636119 5.60656 0.48362C6.91013 0.39862 8.22062 0.619869 9.44938 0.941118Z" fill="url(#paint3_linear_332_301)"/>
<path d="M14.0291 22.6477L14.0235 22.6552L11.8001 23.4789C10.5894 24.0589 9.66675 24.8526 9.14172 25.7426C8.97271 26.0276 8.84388 26.3239 8.75937 26.6264L5.80176 25.2089C5.99016 24.6626 6.26445 24.1401 6.61354 23.6501C7.40455 22.5352 8.59037 21.5827 10.1003 20.8714L10.2098 20.8252L11.8347 20.2227L14.0263 22.6489L14.0291 22.6477Z" fill="url(#paint4_linear_332_301)"/>
<path d="M37.1428 30.3412H33.5258C31.0433 27.2424 28.3198 24.2299 25.6712 21.2999C25.3013 20.8912 24.9259 20.4762 24.5504 20.0574C23.8966 19.3349 23.24 18.6037 22.593 17.8762C22.5085 17.7799 22.4254 17.6849 22.345 17.5924C21.9682 17.1575 21.6496 16.7612 21.3102 16.3737C19.1381 13.925 16.9881 11.415 15.0154 8.82122C14.5458 8.20498 14.0568 7.52873 13.6731 6.78623C13.1938 5.86123 12.979 5.00874 13.0109 4.18874C13.0261 3.82499 13.0899 3.48374 13.1965 3.16499C13.2228 3.08624 13.2533 3.00749 13.2838 2.93124H13.2866C13.6911 1.97624 14.5223 1.1975 15.4906 0.702498C15.5848 0.653748 15.679 0.607498 15.7746 0.564998C15.7773 0.564998 15.7787 0.564998 15.7815 0.562498C15.787 0.559998 15.7898 0.558748 15.7898 0.558748C15.805 0.551248 15.8203 0.544998 15.8355 0.537498C16.5309 0.241249 17.2915 0.0662498 18.0451 0.0187499C18.2321 0.00624998 18.4177 0 18.6047 0C18.958 0 19.3099 0.0199999 19.6603 0.0574998C19.9776 0.0899997 20.292 0.135 20.6037 0.192499L20.601 0.196249C21.8865 0.426249 23.118 0.831248 24.2083 1.2025C24.2083 1.2025 24.2092 1.2025 24.211 1.2025C24.2983 1.2375 24.3856 1.27375 24.4715 1.31C28.2963 2.93499 30.8646 5.50998 31.4797 6.16748C33.8292 8.67497 34.9194 11.6375 34.3944 14.0925C34.3431 14.3287 34.278 14.5612 34.1977 14.79L31.2401 13.3725C31.2581 13.3087 31.2733 13.2437 31.2872 13.1787C31.6252 11.595 30.8425 9.59997 29.1926 7.83998C27.8821 6.44123 25.7487 4.80874 23.2455 3.79249C23.2455 3.79249 23.2427 3.79249 23.2413 3.79249C22.1276 3.41749 21.0013 3.06249 19.9235 2.92749C19.6977 2.89999 19.4733 2.87999 19.2517 2.87249C19.0633 2.86499 18.8804 2.86624 18.6976 2.87999C18.3679 2.90124 18.0368 2.96749 17.7251 3.07374C17.315 3.21249 16.941 3.42124 16.6625 3.68624C16.3702 3.96499 16.1818 4.30374 16.1666 4.68999C16.1334 5.51873 16.8551 6.53873 17.5339 7.43123C20.1244 10.8375 23.0723 14.1437 25.9676 17.3512L25.9538 17.3562L28.1495 19.7862L28.1633 19.7799L28.1675 19.7849C28.7299 20.4087 29.2923 21.0362 29.8478 21.6612C30.269 22.1362 30.6929 22.6599 31.132 23.1649C33.2016 25.4949 35.2477 27.8824 37.1414 30.3437L37.1428 30.3412Z" fill="white"/>
<path d="M25.9807 17.3452L25.9739 17.3523L25.9705 17.3495L25.9807 17.3452Z" fill="url(#paint5_linear_332_301)"/>
<path d="M39.4301 35.3468C39.3304 37.8805 36.8216 39.363 34.3959 39.5155C33.1616 39.5955 31.9232 39.4018 30.7512 39.108C31.7473 38.6205 32.5743 37.873 32.9899 36.893C33.0009 36.893 33.0106 36.8955 33.0231 36.8955C33.055 36.8193 33.0827 36.7405 33.109 36.6618C33.3237 36.6718 33.5343 36.6705 33.7421 36.658C34.9542 36.5818 36.2315 35.883 36.273 34.848C36.3063 34.0193 35.5831 32.9993 34.9044 32.1068C34.4541 31.5155 33.9928 30.9255 33.5232 30.3418H37.1402C37.2358 30.4655 37.33 30.5893 37.4242 30.713C37.8952 31.3318 38.3842 32.0068 38.7666 32.748C39.2431 33.6755 39.4606 34.5255 39.4274 35.348L39.4301 35.3468Z" fill="url(#paint6_linear_332_301)"/>
<path d="M34.1988 14.7908C34.0104 15.3371 33.7361 15.8596 33.387 16.3496C32.596 17.4646 31.4102 18.4171 29.9002 19.1283L29.7907 19.1746L28.1658 19.777L25.9742 17.3508L25.9798 17.3433L28.2032 16.5196C29.4139 15.9396 30.3366 15.1458 30.8616 14.2558C31.0306 13.9708 31.1594 13.6746 31.2439 13.3721L34.2015 14.7896L34.1988 14.7908Z" fill="url(#paint7_linear_332_301)"/>
<defs>
<linearGradient id="paint0_linear_332_301" x1="22.9173" y1="37.0938" x2="29.3793" y2="35.584" gradientUnits="userSpaceOnUse">
<stop stop-color="white" stop-opacity="0"/>
<stop offset="1" stop-color="white"/>
</linearGradient>
<linearGradient id="paint1_linear_332_301" x1="18.4106" y1="1.98852" x2="3.98697" y2="4.7551" gradientUnits="userSpaceOnUse">
<stop stop-color="white" stop-opacity="0"/>
<stop offset="0.56" stop-color="white"/>
</linearGradient>
<linearGradient id="paint2_linear_332_301" x1="14.0298" y1="22.6479" x2="14.0298" y2="22.6551" gradientUnits="userSpaceOnUse">
<stop stop-color="#0383E4"/>
<stop offset="1" stop-color="#0662A7"/>
</linearGradient>
<linearGradient id="paint3_linear_332_301" x1="11.8418" y1="1.49112" x2="0.388581" y2="4.84777" gradientUnits="userSpaceOnUse">
<stop stop-color="white" stop-opacity="0"/>
<stop offset="0.64" stop-color="white"/>
</linearGradient>
<linearGradient id="paint4_linear_332_301" x1="13.4874" y1="20.8339" x2="6.6941" y2="26.6378" gradientUnits="userSpaceOnUse">
<stop stop-color="white" stop-opacity="0"/>
<stop offset="0.84" stop-color="white"/>
</linearGradient>
<linearGradient id="paint5_linear_332_301" x1="25.9756" y1="17.3452" x2="25.9756" y2="17.3523" gradientUnits="userSpaceOnUse">
<stop stop-color="#0383E4"/>
<stop offset="1" stop-color="#0662A7"/>
</linearGradient>
<linearGradient id="paint6_linear_332_301" x1="29.1955" y1="36.3305" x2="38.0155" y2="33.3167" gradientUnits="userSpaceOnUse">
<stop stop-color="white" stop-opacity="0"/>
<stop offset="0.64" stop-color="white"/>
</linearGradient>
<linearGradient id="paint7_linear_332_301" x1="26.523" y1="19.46" x2="31.5308" y2="15.1861" gradientUnits="userSpaceOnUse">
<stop stop-color="#D9D9D9" stop-opacity="0"/>
<stop offset="0.84" stop-color="white"/>
</linearGradient>
</defs>
</svg>
