<svg width="34" height="12" viewBox="0 0 34 12" fill="none" xmlns="http://www.w3.org/2000/svg">
<path d="M10.3117 11.5996L10.3197 5.92761C10.3197 5.26094 10.133 4.73828 9.7597 4.35961C9.3917 3.97561 8.92236 3.78361 8.3517 3.78361C8.02636 3.78361 7.70903 3.85828 7.3997 4.00761C7.09036 4.15694 6.83436 4.39694 6.6317 4.72761C6.43436 5.05828 6.3357 5.49028 6.3357 6.02361L5.6397 5.82361C5.6237 5.20494 5.7437 4.66361 5.9997 4.19961C6.26103 3.73561 6.61836 3.37561 7.0717 3.11961C7.53036 2.85828 8.0477 2.72761 8.6237 2.72761C9.49303 2.72761 10.189 2.99694 10.7117 3.53561C11.2344 4.06894 11.4957 4.79161 11.4957 5.70361L11.4877 11.5996H10.3117ZM-0.00030458 11.5996V2.95961H1.0557V5.08761H1.1837V11.5996H-0.00030458ZM5.1677 11.5996L5.1757 6.00761C5.1757 5.31961 4.9917 4.77828 4.6237 4.38361C4.26103 3.98361 3.78103 3.78361 3.1837 3.78361C2.58636 3.78361 2.1037 3.98894 1.7357 4.39961C1.3677 4.80494 1.1837 5.34628 1.1837 6.02361L0.479695 5.63961C0.479695 5.08494 0.610362 4.58894 0.871695 4.15161C1.13303 3.70894 1.49036 3.36228 1.9437 3.11161C2.39703 2.85561 2.9117 2.72761 3.4877 2.72761C4.03703 2.72761 4.52503 2.84494 4.9517 3.07961C5.3837 3.31428 5.72236 3.65561 5.9677 4.10361C6.21303 4.55161 6.3357 5.09561 6.3357 5.73561L6.3277 11.5996H5.1677ZM13.7302 1.31961V-0.000391006H14.9062V1.31961H13.7302ZM13.7302 11.5996V2.95961H14.9062V11.5996H13.7302ZM23.5446 11.5996V7.19161C23.5446 6.71161 23.4992 6.27161 23.4086 5.87161C23.3179 5.46628 23.1712 5.11428 22.9686 4.81561C22.7712 4.51161 22.5126 4.27694 22.1926 4.11161C21.8779 3.94628 21.4939 3.86361 21.0406 3.86361C20.6246 3.86361 20.2566 3.93561 19.9366 4.07961C19.6219 4.22361 19.3552 4.43161 19.1366 4.70361C18.9232 4.97028 18.7606 5.29561 18.6486 5.67961C18.5366 6.06361 18.4806 6.50094 18.4806 6.99161L17.6486 6.80761C17.6486 5.92228 17.8032 5.17828 18.1126 4.57561C18.4219 3.97294 18.8486 3.51694 19.3926 3.20761C19.9366 2.89828 20.5606 2.74361 21.2646 2.74361C21.7819 2.74361 22.2326 2.82361 22.6166 2.98361C23.0059 3.14361 23.3339 3.35961 23.6006 3.63161C23.8726 3.90361 24.0912 4.21561 24.2566 4.56761C24.4219 4.91428 24.5419 5.28494 24.6166 5.67961C24.6912 6.06894 24.7286 6.45828 24.7286 6.84761V11.5996H23.5446ZM17.2966 11.5996V2.95961H18.3606V5.08761H18.4806V11.5996H17.2966ZM30.0286 11.8316C29.0152 11.8316 28.1806 11.6129 27.5246 11.1756C26.8739 10.7383 26.4739 10.1303 26.3246 9.35161L27.5246 9.15161C27.6526 9.64228 27.9432 10.0343 28.3966 10.3276C28.8552 10.6156 29.4206 10.7596 30.0926 10.7596C30.7486 10.7596 31.2659 10.6236 31.6446 10.3516C32.0232 10.0743 32.2126 9.69828 32.2126 9.22361C32.2126 8.95694 32.1512 8.74094 32.0286 8.57561C31.9112 8.40494 31.6686 8.24761 31.3006 8.10361C30.9326 7.95961 30.3832 7.78894 29.6526 7.59161C28.8686 7.37828 28.2552 7.16494 27.8126 6.95161C27.3699 6.73828 27.0552 6.49294 26.8686 6.21561C26.6819 5.93294 26.5886 5.58894 26.5886 5.18361C26.5886 4.69294 26.7272 4.26361 27.0046 3.89561C27.2819 3.52228 27.6659 3.23428 28.1566 3.03161C28.6472 2.82361 29.2179 2.71961 29.8686 2.71961C30.5192 2.71961 31.1006 2.82628 31.6126 3.03961C32.1299 3.24761 32.5459 3.54094 32.8606 3.91961C33.1752 4.29828 33.3619 4.73828 33.4206 5.23961L32.2206 5.45561C32.1406 4.94894 31.8872 4.54894 31.4606 4.25561C31.0392 3.95694 30.5032 3.80228 29.8526 3.79161C29.2392 3.77561 28.7406 3.89294 28.3566 4.14361C27.9726 4.38894 27.7806 4.71694 27.7806 5.12761C27.7806 5.35694 27.8499 5.55428 27.9886 5.71961C28.1272 5.87961 28.3779 6.03161 28.7406 6.17561C29.1086 6.31961 29.6312 6.47694 30.3086 6.64761C31.1032 6.85028 31.7272 7.06361 32.1806 7.28761C32.6339 7.51161 32.9566 7.77561 33.1486 8.07961C33.3406 8.38361 33.4366 8.75961 33.4366 9.20761C33.4366 10.0236 33.1326 10.6663 32.5246 11.1356C31.9219 11.5996 31.0899 11.8316 30.0286 11.8316Z" fill="white"/>
</svg>
