<svg width="21" height="10" viewBox="0 0 21 10" fill="none" xmlns="http://www.w3.org/2000/svg">
<path d="M10.3117 8.87988L10.3197 3.20788C10.3197 2.54122 10.133 2.01855 9.7597 1.63988C9.3917 1.25588 8.92236 1.06388 8.3517 1.06388C8.02636 1.06388 7.70903 1.13855 7.3997 1.28788C7.09036 1.43722 6.83436 1.67722 6.6317 2.00788C6.43436 2.33855 6.3357 2.77055 6.3357 3.30388L5.6397 3.10388C5.6237 2.48522 5.7437 1.94388 5.9997 1.47988C6.26103 1.01588 6.61836 0.655882 7.0717 0.399882C7.53036 0.138549 8.0477 0.00788212 8.6237 0.00788212C9.49303 0.00788212 10.189 0.277216 10.7117 0.815883C11.2344 1.34922 11.4957 2.07188 11.4957 2.98388L11.4877 8.87988H10.3117ZM-0.00030458 8.87988V0.239882H1.0557V2.36788H1.1837V8.87988H-0.00030458ZM5.1677 8.87988L5.1757 3.28788C5.1757 2.59988 4.9917 2.05855 4.6237 1.66388C4.26103 1.26388 3.78103 1.06388 3.1837 1.06388C2.58636 1.06388 2.1037 1.26922 1.7357 1.67988C1.3677 2.08522 1.1837 2.62655 1.1837 3.30388L0.479695 2.91988C0.479695 2.36522 0.610362 1.86922 0.871695 1.43188C1.13303 0.989216 1.49036 0.642549 1.9437 0.391882C2.39703 0.135882 2.9117 0.00788212 3.4877 0.00788212C4.03703 0.00788212 4.52503 0.125216 4.9517 0.359882C5.3837 0.594549 5.72236 0.935883 5.9677 1.38388C6.21303 1.83188 6.3357 2.37588 6.3357 3.01588L6.3277 8.87988H5.1677ZM16.7942 9.11188C15.7809 9.11188 14.9462 8.89322 14.2902 8.45588C13.6395 8.01855 13.2395 7.41055 13.0902 6.63188L14.2902 6.43188C14.4182 6.92255 14.7089 7.31455 15.1622 7.60788C15.6209 7.89588 16.1862 8.03988 16.8582 8.03988C17.5142 8.03988 18.0315 7.90388 18.4102 7.63188C18.7889 7.35455 18.9782 6.97855 18.9782 6.50388C18.9782 6.23722 18.9169 6.02122 18.7942 5.85588C18.6769 5.68522 18.4342 5.52788 18.0662 5.38388C17.6982 5.23988 17.1489 5.06922 16.4182 4.87188C15.6342 4.65855 15.0209 4.44522 14.5782 4.23188C14.1355 4.01855 13.8209 3.77322 13.6342 3.49588C13.4475 3.21322 13.3542 2.86922 13.3542 2.46388C13.3542 1.97322 13.4929 1.54388 13.7702 1.17588C14.0475 0.802549 14.4315 0.514549 14.9222 0.311882C15.4129 0.103882 15.9835 -0.000117302 16.6342 -0.000117302C17.2849 -0.000117302 17.8662 0.106549 18.3782 0.319882C18.8955 0.527883 19.3115 0.821216 19.6262 1.19988C19.9409 1.57855 20.1275 2.01855 20.1862 2.51988L18.9862 2.73588C18.9062 2.22922 18.6529 1.82922 18.2262 1.53588C17.8049 1.23722 17.2689 1.08255 16.6182 1.07188C16.0049 1.05588 15.5062 1.17322 15.1222 1.42388C14.7382 1.66922 14.5462 1.99722 14.5462 2.40788C14.5462 2.63722 14.6155 2.83455 14.7542 2.99988C14.8929 3.15988 15.1435 3.31188 15.5062 3.45588C15.8742 3.59988 16.3969 3.75722 17.0742 3.92788C17.8689 4.13055 18.4929 4.34388 18.9462 4.56788C19.3995 4.79188 19.7222 5.05588 19.9142 5.35988C20.1062 5.66388 20.2022 6.03988 20.2022 6.48788C20.2022 7.30388 19.8982 7.94655 19.2902 8.41588C18.6875 8.87988 17.8555 9.11188 16.7942 9.11188Z" fill="white"/>
</svg>
