<svg width="53" height="54" viewBox="0 0 53 54" fill="none" xmlns="http://www.w3.org/2000/svg">
<path d="M17.2192 4.51486C17.1203 4.1332 17.0976 3.73579 17.1524 3.34535C17.2072 2.95492 17.3384 2.57911 17.5386 2.23942C17.7387 1.89974 18.0039 1.60283 18.3188 1.36569C18.6338 1.12854 18.9924 0.955808 19.3742 0.857362C23.8016 -0.285787 28.4468 -0.285787 32.8742 0.857362C33.2642 0.947662 33.6322 1.11511 33.9565 1.34984C34.2808 1.58458 34.5549 1.88184 34.7625 2.22413C34.9701 2.56642 35.1072 2.9468 35.1655 3.34287C35.2239 3.73893 35.2023 4.14267 35.1022 4.53029C35.0021 4.91791 34.8254 5.28157 34.5826 5.59984C34.3397 5.91812 34.0356 6.18457 33.6882 6.38349C33.3408 6.58242 32.9571 6.70979 32.5597 6.75812C32.1622 6.80644 31.7592 6.77473 31.3742 6.66486C27.9307 5.77575 24.3177 5.77575 20.8742 6.66486C20.1044 6.86401 19.2871 6.74943 18.6018 6.34629C17.9164 5.94315 17.4191 5.28443 17.2192 4.51486ZM2.19671 23.4699C2.45743 23.541 2.72646 23.5771 2.99671 23.5774C3.6527 23.5771 4.29051 23.3618 4.81248 22.9644C5.33444 22.5671 5.71178 22.0096 5.88671 21.3774C6.83937 17.9527 8.64578 14.8259 11.1367 12.2899C11.4285 12.0125 11.6615 11.6792 11.8218 11.3099C11.982 10.9406 12.0663 10.5428 12.0697 10.1402C12.073 9.73766 11.9952 9.33853 11.841 8.96663C11.6869 8.59474 11.4594 8.25768 11.1722 7.97553C10.8851 7.69338 10.544 7.47193 10.1695 7.32435C9.79489 7.17678 9.39445 7.1061 8.992 7.11654C8.58955 7.12697 8.19331 7.2183 7.82689 7.38509C7.46048 7.55188 7.13138 7.79071 6.85921 8.08736C3.65658 11.3503 1.33413 15.3725 0.109208 19.7774C-0.103448 20.5438 -0.00300628 21.3634 0.38845 22.0558C0.779906 22.7482 1.43033 23.2569 2.19671 23.4699ZM31.3742 47.3399C27.9307 48.229 24.3177 48.229 20.8742 47.3399C20.4892 47.23 20.0862 47.1983 19.6888 47.2466C19.2913 47.2949 18.9076 47.4223 18.5602 47.6212C18.2128 47.8202 17.9087 48.0866 17.6659 48.4049C17.423 48.7232 17.2463 49.0868 17.1462 49.4744C17.0461 49.8621 17.0246 50.2658 17.0829 50.6619C17.1412 51.0579 17.2783 51.4383 17.4859 51.7806C17.6935 52.1229 17.9676 52.4201 18.2919 52.6549C18.6162 52.8896 18.9842 53.0571 19.3742 53.1474C23.8016 54.2905 28.4468 54.2905 32.8742 53.1474C33.2642 53.0571 33.6322 52.8896 33.9565 52.6549C34.2808 52.4201 34.5549 52.1229 34.7625 51.7806C34.9701 51.4383 35.1072 51.0579 35.1655 50.6619C35.2239 50.2658 35.2023 49.8621 35.1022 49.4744C35.0021 49.0868 34.8254 48.7232 34.5826 48.4049C34.3397 48.0866 34.0356 47.8202 33.6882 47.6212C33.3408 47.4223 32.9571 47.2949 32.5597 47.2466C32.1622 47.1983 31.7592 47.23 31.3742 47.3399ZM46.3617 21.3824C46.5874 22.1341 47.0986 22.7674 47.7858 23.1465C48.473 23.5256 49.2815 23.6204 50.0377 23.4104C50.7939 23.2004 51.4377 22.7024 51.8311 22.0232C52.2244 21.3441 52.3359 20.5378 52.1417 19.7774C50.9186 15.3702 48.5959 11.3461 45.3917 8.08236C45.1209 7.77951 44.7914 7.53482 44.4232 7.36313C44.055 7.19144 43.6558 7.09632 43.2497 7.08355C42.8436 7.07078 42.4392 7.14062 42.0609 7.28884C41.6827 7.43705 41.3384 7.66055 41.0491 7.94579C40.7598 8.23102 40.5315 8.57204 40.3779 8.94817C40.2244 9.3243 40.1488 9.72771 40.1558 10.1339C40.1628 10.5401 40.2523 10.9407 40.4188 11.3113C40.5852 11.6819 40.8252 12.0148 41.1242 12.2899C43.6104 14.8289 45.4116 17.9574 46.3592 21.3824H46.3617ZM52.1492 34.2299C50.773 39.1833 48.0094 43.64 44.1842 47.0749C43.8421 47.3826 43.4337 47.6075 42.9908 47.7322C42.5478 47.8568 42.0821 47.8779 41.6297 47.7938C41.1773 47.7097 40.7503 47.5227 40.3817 47.2472C40.0131 46.9716 39.7129 46.615 39.5042 46.2049C38.2502 43.7349 36.3368 41.6604 33.976 40.2114C31.6152 38.7623 28.8993 37.9953 26.1292 37.9953C23.3592 37.9953 20.6432 38.7623 18.2824 40.2114C15.9216 41.6604 14.0082 43.7349 12.7542 46.2049C12.5457 46.6151 12.2456 46.9719 11.8771 47.2476C11.5086 47.5233 11.0816 47.7106 10.6292 47.7949C10.4485 47.8276 10.2653 47.8443 10.0817 47.8449C9.34298 47.8432 8.63083 47.569 8.08171 47.0749C4.25049 43.6414 1.48154 39.1835 0.101708 34.2274C-0.0622295 33.4782 0.0669756 32.6947 0.462777 32.0378C0.858579 31.3809 1.49092 30.9005 2.22988 30.6954C2.96885 30.4903 3.75832 30.5759 4.4361 30.9347C5.11387 31.2936 5.62849 31.8984 5.87421 32.6249C6.61983 35.3095 7.89484 37.8178 9.62421 40.0024C11.5672 37.5245 14.0458 35.5186 16.8742 34.1349C15.0725 32.3103 13.8506 29.9937 13.3622 27.4765C12.8738 24.9592 13.1408 22.3537 14.1295 19.9878C15.1182 17.6219 16.7845 15.6012 18.9188 14.18C21.0531 12.7588 23.56 12.0004 26.1242 12.0004C28.6884 12.0004 31.1953 12.7588 33.3296 14.18C35.4639 15.6012 37.1302 17.6219 38.1189 19.9878C39.1077 22.3537 39.3746 24.9592 38.8862 27.4765C38.3978 29.9937 37.1759 32.3103 35.3742 34.1349C38.202 35.5195 40.6804 37.5253 42.6242 40.0024C44.3521 37.8187 45.627 35.3123 46.3742 32.6299C46.587 31.8631 47.0958 31.2122 47.7885 30.8205C48.4812 30.4288 49.3011 30.3283 50.068 30.5411C50.8348 30.7539 51.4856 31.2627 51.8773 31.9554C52.269 32.6481 52.3695 33.4681 52.1567 34.2349L52.1492 34.2299ZM26.1242 32.0024C27.5087 32.0024 28.8621 31.5918 30.0132 30.8226C31.1643 30.0535 32.0616 28.9602 32.5914 27.6811C33.1212 26.4021 33.2598 24.9946 32.9897 23.6367C32.7196 22.2789 32.0529 21.0316 31.074 20.0526C30.095 19.0736 28.8477 18.407 27.4898 18.1369C26.132 17.8668 24.7245 18.0054 23.4454 18.5352C22.1663 19.065 21.0731 19.9622 20.3039 21.1134C19.5347 22.2645 19.1242 23.6179 19.1242 25.0024C19.1242 26.8589 19.8617 28.6394 21.1745 29.9521C22.4872 31.2649 24.2677 32.0024 26.1242 32.0024Z" fill="#E2FC01"/>
</svg>
