<svg width="64" height="64" viewBox="0 0 64 64" fill="none" xmlns="http://www.w3.org/2000/svg">
<path d="M35.9999 50.9999C35.9999 51.791 35.7653 52.5644 35.3257 53.2222C34.8862 53.88 34.2615 54.3927 33.5306 54.6954C32.7997 54.9982 31.9954 55.0774 31.2195 54.923C30.4436 54.7687 29.7309 54.3877 29.1714 53.8283C28.612 53.2689 28.2311 52.5562 28.0767 51.7803C27.9224 51.0043 28.0016 50.2001 28.3044 49.4692C28.6071 48.7383 29.1198 48.1135 29.7776 47.674C30.4354 47.2345 31.2087 46.9999 31.9999 46.9999C33.0607 46.9999 34.0782 47.4213 34.8283 48.1715C35.5784 48.9216 35.9999 49.939 35.9999 50.9999ZM54.2499 19.9999L58.1299 16.1224C58.6935 15.5588 59.0101 14.7944 59.0101 13.9974C59.0101 13.2004 58.6935 12.436 58.1299 11.8724C57.5663 11.3088 56.8019 10.9922 56.0049 10.9922C55.2078 10.9922 54.4435 11.3088 53.8799 11.8724L49.9999 15.7499L46.1224 11.8774C45.5588 11.3138 44.7944 10.9972 43.9974 10.9972C43.2003 10.9972 42.436 11.3138 41.8724 11.8774C41.3088 12.441 40.9922 13.2054 40.9922 14.0024C40.9922 14.7994 41.3088 15.5638 41.8724 16.1274L45.7499 19.9999L41.8774 23.8774C41.3138 24.441 40.9972 25.2054 40.9972 26.0024C40.9972 26.7994 41.3138 27.5638 41.8774 28.1274C42.441 28.691 43.2053 29.0076 44.0024 29.0076C44.7994 29.0076 45.5638 28.691 46.1274 28.1274L49.9999 24.2499L53.8774 28.1299C54.1564 28.4089 54.4877 28.6303 54.8523 28.7813C55.2169 28.9324 55.6077 29.0101 56.0024 29.0101C56.397 29.0101 56.7878 28.9324 57.1524 28.7813C57.517 28.6303 57.8483 28.4089 58.1274 28.1299C58.4064 27.8508 58.6278 27.5195 58.7788 27.1549C58.9298 26.7903 59.0076 26.3995 59.0076 26.0049C59.0076 25.6102 58.9298 25.2195 58.7788 24.8548C58.6278 24.4902 58.4064 24.1589 58.1274 23.8799L54.2499 19.9999ZM43.7749 38.8249C40.3559 36.3375 36.2367 34.9976 32.0086 34.9976C27.7806 34.9976 23.6613 36.3375 20.2424 38.8249C19.5992 39.2933 19.1685 39.9981 19.045 40.7841C18.9214 41.5701 19.1152 42.373 19.5836 43.0161C20.0521 43.6593 20.7568 44.09 21.5428 44.2136C22.3288 44.3371 23.1317 44.1433 23.7749 43.6749C26.1676 41.9349 29.0501 40.9977 32.0086 40.9977C34.9671 40.9977 37.8496 41.9349 40.2424 43.6749C40.8855 44.1433 41.6884 44.3371 42.4744 44.2136C43.2604 44.09 43.9652 43.6593 44.4336 43.0161C44.9021 42.373 45.0958 41.5701 44.9723 40.7841C44.8487 39.9981 44.418 39.2933 43.7749 38.8249ZM34.9999 13.9999C34.9999 13.2042 34.6838 12.4412 34.1212 11.8786C33.5586 11.316 32.7955 10.9999 31.9999 10.9999C21.8261 11.0051 11.9676 14.5304 4.09737 20.9774C3.79287 21.2274 3.54059 21.5349 3.35494 21.8824C3.16929 22.2299 3.0539 22.6106 3.01536 23.0027C2.97683 23.3948 3.0159 23.7906 3.13034 24.1676C3.24479 24.5446 3.43237 24.8954 3.68237 25.1999C3.93238 25.5044 4.23991 25.7567 4.58741 25.9423C4.93491 26.128 5.31558 26.2434 5.70767 26.2819C6.09977 26.3204 6.49561 26.2814 6.87261 26.1669C7.24961 26.0525 7.60037 25.8649 7.90487 25.6149C14.7015 20.0484 23.2146 17.0046 31.9999 16.9999C32.7955 16.9999 33.5586 16.6838 34.1212 16.1212C34.6838 15.5586 34.9999 14.7955 34.9999 13.9999ZM34.9999 25.9999C34.9999 25.2042 34.6838 24.4412 34.1212 23.8786C33.5586 23.316 32.7955 22.9999 31.9999 22.9999C24.7852 22.9732 17.7777 25.411 12.1374 29.9099C11.5293 30.409 11.1417 31.1269 11.0578 31.909C10.974 32.6912 11.2007 33.4749 11.6891 34.0916C12.1776 34.7082 12.8886 35.1083 13.6692 35.2057C14.4498 35.3031 15.2374 35.09 15.8624 34.6124C20.4449 30.9575 26.1383 28.9774 31.9999 28.9999C32.7955 28.9999 33.5586 28.6838 34.1212 28.1212C34.6838 27.5586 34.9999 26.7955 34.9999 25.9999Z" fill="#E2FC01"/>
</svg>
