<svg width="17" height="20" viewBox="0 0 17 20" fill="none" xmlns="http://www.w3.org/2000/svg">
<path fill-rule="evenodd" clip-rule="evenodd" d="M8.36365 2C7.76089 2 7.18281 2.23945 6.75659 2.66567C6.33037 3.09189 6.09092 3.66996 6.09092 4.27273V7.36364H10.6364V4.27273C10.6364 3.66996 10.3969 3.09189 9.97072 2.66567C9.5445 2.23945 8.96642 2 8.36365 2ZM12.6364 7.36364V4.27273C12.6364 3.13953 12.1862 2.05275 11.3849 1.25145C10.5836 0.450161 9.49685 0 8.36365 0C7.23046 0 6.14367 0.450161 5.34238 1.25145C4.54109 2.05275 4.09092 3.13953 4.09092 4.27273V7.36364H2.63636C1.18034 7.36364 0 8.54398 0 10V17.3636C0 18.8197 1.18034 20 2.63636 20H14.0909C15.5469 20 16.7273 18.8197 16.7273 17.3637V10C16.7273 8.54398 15.5469 7.36364 14.0909 7.36364H12.6364ZM2.63636 9.36364C2.28491 9.36364 2 9.64855 2 10V17.3636C2 17.7151 2.28491 18 2.63636 18H14.0909C14.4424 18 14.7273 17.7151 14.7273 17.3637V10C14.7273 9.64855 14.4424 9.36364 14.0909 9.36364H2.63636Z" fill="white"/>
</svg>
