<svg width="58" height="52" viewBox="0 0 58 52" fill="none" xmlns="http://www.w3.org/2000/svg">
<path d="M57.0683 41.5258L35.2058 3.55826C34.5725 2.47529 33.6668 1.57699 32.5786 0.952732C31.4905 0.328469 30.2578 0 29.0033 0C27.7488 0 26.5161 0.328469 25.4279 0.952732C24.3398 1.57699 23.434 2.47529 22.8008 3.55826L0.938283 41.5258C0.323834 42.5767 0 43.7721 0 44.9895C0 46.2069 0.323834 47.4023 0.938283 48.4533C1.56451 49.5416 2.46901 50.4438 3.55899 51.0672C4.64897 51.6906 5.88518 52.0128 7.14078 52.0008H50.8658C52.1205 52.0119 53.3557 51.6893 54.4447 51.0659C55.5338 50.4426 56.4375 49.5409 57.0633 48.4533C57.6785 47.4028 58.0032 46.2076 58.0041 44.9902C58.0049 43.7728 57.682 42.5771 57.0683 41.5258ZM51.8683 45.4508C51.7666 45.624 51.62 45.7666 51.444 45.8634C51.268 45.9602 51.0691 46.0077 50.8683 46.0008H7.14078C6.94001 46.0077 6.7411 45.9602 6.56508 45.8634C6.38906 45.7666 6.24246 45.624 6.14078 45.4508C6.05454 45.3105 6.00888 45.1491 6.00888 44.9845C6.00888 44.8199 6.05454 44.6585 6.14078 44.5183L28.0033 6.55076C28.1115 6.38413 28.2597 6.24719 28.4344 6.15238C28.609 6.05758 28.8046 6.00792 29.0033 6.00792C29.202 6.00792 29.3976 6.05758 29.5722 6.15238C29.7468 6.24719 29.895 6.38413 30.0033 6.55076L51.8633 44.5183C51.9503 44.658 51.9968 44.8192 51.9977 44.9838C51.9986 45.1484 51.9538 45.3101 51.8683 45.4508ZM26.0033 29.0008V21.0008C26.0033 20.2051 26.3194 19.4421 26.882 18.8794C27.4446 18.3168 28.2076 18.0008 29.0033 18.0008C29.7989 18.0008 30.562 18.3168 31.1246 18.8794C31.6872 19.4421 32.0033 20.2051 32.0033 21.0008V29.0008C32.0033 29.7964 31.6872 30.5595 31.1246 31.1221C30.562 31.6847 29.7989 32.0008 29.0033 32.0008C28.2076 32.0008 27.4446 31.6847 26.882 31.1221C26.3194 30.5595 26.0033 29.7964 26.0033 29.0008ZM33.0033 39.0008C33.0033 39.7919 32.7687 40.5653 32.3292 41.223C31.8896 41.8808 31.2649 42.3935 30.534 42.6963C29.8031 42.999 28.9988 43.0782 28.2229 42.9239C27.447 42.7696 26.7343 42.3886 26.1749 41.8292C25.6154 41.2698 25.2345 40.557 25.0801 39.7811C24.9258 39.0052 25.005 38.2009 25.3078 37.47C25.6105 36.7391 26.1232 36.1144 26.781 35.6749C27.4388 35.2354 28.2122 35.0008 29.0033 35.0008C30.0641 35.0008 31.0816 35.4222 31.8317 36.1723C32.5819 36.9225 33.0033 37.9399 33.0033 39.0008Z" fill="#E2FC01"/>
</svg>
