<svg width="24" height="25" viewBox="0 0 24 25" fill="none" xmlns="http://www.w3.org/2000/svg">
<path d="M18.625 3.00085C18.3266 3.00085 18.0405 3.11938 17.8295 3.33036C17.6185 3.54134 17.5 3.82748 17.5 4.12585V9.93835L6.86406 3.2821C6.58087 3.10626 6.25591 3.00909 5.92267 3.00061C5.58943 2.99213 5.25995 3.07264 4.96818 3.23386C4.67641 3.39507 4.43289 3.63116 4.26271 3.9178C4.09253 4.20443 4.00185 4.53126 4 4.8646V19.8871C4.00185 20.2204 4.09253 20.5473 4.26271 20.8339C4.43289 21.1205 4.67641 21.3566 4.96818 21.5178C5.25995 21.6791 5.58943 21.7596 5.92267 21.7511C6.25591 21.7426 6.58087 21.6454 6.86406 21.4696L17.5 14.8134V20.6259C17.5 20.9242 17.6185 21.2104 17.8295 21.4213C18.0405 21.6323 18.3266 21.7509 18.625 21.7509C18.9234 21.7509 19.2095 21.6323 19.4205 21.4213C19.6315 21.2104 19.75 20.9242 19.75 20.6259V4.12585C19.75 3.82748 19.6315 3.54134 19.4205 3.33036C19.2095 3.11938 18.9234 3.00085 18.625 3.00085ZM6.25 19.1943V5.55741L17.1531 12.3759L6.25 19.1943Z" fill="white"/>
</svg>
