<svg width="54" height="47" viewBox="0 0 54 47" fill="none" xmlns="http://www.w3.org/2000/svg">
<path d="M20 44C20 44.7957 19.6839 45.5587 19.1213 46.1213C18.5587 46.6839 17.7956 47 17 47H4.845C3.56064 46.998 2.32944 46.4869 1.42126 45.5787C0.513074 44.6706 0.00198358 43.4394 0 42.155V40C0 39.2043 0.316071 38.4413 0.87868 37.8787C1.44129 37.3161 2.20435 37 3 37C3.79565 37 4.55871 37.3161 5.12132 37.8787C5.68393 38.4413 6 39.2043 6 40V41H17C17.7956 41 18.5587 41.3161 19.1213 41.8787C19.6839 42.4413 20 43.2043 20 44ZM35 41H27C26.2044 41 25.4413 41.3161 24.8787 41.8787C24.3161 42.4413 24 43.2043 24 44C24 44.7957 24.3161 45.5587 24.8787 46.1213C25.4413 46.6839 26.2044 47 27 47H35C35.7957 47 36.5587 46.6839 37.1213 46.1213C37.6839 45.5587 38 44.7957 38 44C38 43.2043 37.6839 42.4413 37.1213 41.8787C36.5587 41.3161 35.7957 41 35 41ZM51 27C50.2043 27 49.4413 27.3161 48.8787 27.8787C48.3161 28.4413 48 29.2044 48 30V41H45C44.2043 41 43.4413 41.3161 42.8787 41.8787C42.3161 42.4413 42 43.2043 42 44C42 44.7957 42.3161 45.5587 42.8787 46.1213C43.4413 46.6839 44.2043 47 45 47H49.2225C50.4892 46.9987 51.7036 46.4949 52.5992 45.5992C53.4949 44.7036 53.9987 43.4892 54 42.2225V30C54 29.2044 53.6839 28.4413 53.1213 27.8787C52.5587 27.3161 51.7957 27 51 27ZM49 9H37C36.2043 9 35.4413 9.31607 34.8787 9.87868C34.3161 10.4413 34 11.2044 34 12C34 12.7956 34.3161 13.5587 34.8787 14.1213C35.4413 14.6839 36.2043 15 37 15H48V20C48 20.7956 48.3161 21.5587 48.8787 22.1213C49.4413 22.6839 50.2043 23 51 23C51.7957 23 52.5587 22.6839 53.1213 22.1213C53.6839 21.5587 54 20.7956 54 20V14C54 12.6739 53.4732 11.4021 52.5355 10.4645C51.5979 9.52678 50.3261 9 49 9ZM3 33C3.79565 33 4.55871 32.6839 5.12132 32.1213C5.68393 31.5587 6 30.7956 6 30V22C6 21.2044 5.68393 20.4413 5.12132 19.8787C4.55871 19.3161 3.79565 19 3 19C2.20435 19 1.44129 19.3161 0.87868 19.8787C0.316071 20.4413 0 21.2044 0 22V30C0 30.7956 0.316071 31.5587 0.87868 32.1213C1.44129 32.6839 2.20435 33 3 33ZM0 12V5C0 3.67392 0.526784 2.40215 1.46447 1.46447C2.40215 0.526784 3.67392 0 5 0H18.1025C18.8082 0.000203451 19.5058 0.149785 20.1496 0.438909C20.7933 0.728032 21.3686 1.15015 21.8375 1.6775L29.25 10C29.6369 10.4325 29.89 10.968 29.9787 11.5415C30.0674 12.115 29.9879 12.7019 29.7497 13.2311C29.5116 13.7603 29.1251 14.2091 28.637 14.5231C28.149 14.837 27.5803 15.0027 27 15H3C2.20435 15 1.44129 14.6839 0.87868 14.1213C0.316071 13.5587 0 12.7956 0 12ZM6 9H20.32L17.6525 6H6V9Z" fill="#E2FC01"/>
</svg>
