<svg width="12" height="14" viewBox="0 0 12 14" fill="none" xmlns="http://www.w3.org/2000/svg">
<path d="M10.9056 5.69082L1.90063 0.182694C1.71178 0.0675675 1.49577 0.00460882 1.27464 0.000243549C1.05351 -0.00412172 0.83518 0.0502628 0.641937 0.157846C0.448694 0.265429 0.287455 0.422359 0.174678 0.612618C0.0619014 0.802877 0.00162456 1.01965 0 1.24082V12.2571C0.00162456 12.4782 0.0619014 12.695 0.174678 12.8853C0.287455 13.0755 0.448694 13.2325 0.641937 13.34C0.83518 13.4476 1.05351 13.502 1.27464 13.4976C1.49577 13.4933 1.71178 13.4303 1.90063 13.3152L10.9056 7.80707C11.0872 7.69654 11.2373 7.54114 11.3414 7.35583C11.4456 7.17051 11.5003 6.96152 11.5003 6.74894C11.5003 6.53637 11.4456 6.32737 11.3414 6.14206C11.2373 5.95675 11.0872 5.80135 10.9056 5.69082ZM1.5 11.8021V1.69582L9.76 6.74894L1.5 11.8021Z" fill="white"/>
</svg>
