<svg width="13" height="12" viewBox="0 0 13 12" fill="none" xmlns="http://www.w3.org/2000/svg">
<path d="M1.28004 11.7598L0.480039 10.9598L11.224 0.239765L12.024 1.03176L1.28004 11.7598ZM9.62404 11.9998C9.09604 11.9998 8.61337 11.8718 8.17604 11.6158C7.74404 11.3544 7.39737 11.0078 7.13604 10.5758C6.87471 10.1384 6.74404 9.6531 6.74404 9.11977C6.74404 8.5971 6.87737 8.1171 7.14404 7.67977C7.41071 7.24243 7.76271 6.8931 8.20004 6.63177C8.63737 6.37043 9.11204 6.23977 9.62404 6.23977C10.152 6.23977 10.6347 6.37043 11.072 6.63177C11.5094 6.88777 11.856 7.23443 12.112 7.67177C12.3734 8.10377 12.504 8.58643 12.504 9.11977C12.504 9.6531 12.3734 10.1384 12.112 10.5758C11.856 11.0078 11.5094 11.3544 11.072 11.6158C10.6347 11.8718 10.152 11.9998 9.62404 11.9998ZM9.62404 10.9358C9.94937 10.9358 10.2507 10.8531 10.528 10.6878C10.8054 10.5224 11.0267 10.3038 11.192 10.0318C11.3574 9.75443 11.44 9.45043 11.44 9.11977C11.44 8.7891 11.3574 8.48777 11.192 8.21577C11.0267 7.93843 10.8054 7.7171 10.528 7.55177C10.2507 7.38643 9.94937 7.30377 9.62404 7.30377C9.29337 7.30377 8.98937 7.38643 8.71204 7.55177C8.44004 7.7171 8.21871 7.93843 8.04804 8.21577C7.88271 8.48777 7.80004 8.7891 7.80004 9.11977C7.80004 9.45043 7.88271 9.75443 8.04804 10.0318C8.21871 10.3038 8.44004 10.5224 8.71204 10.6878C8.98937 10.8531 9.29337 10.9358 9.62404 10.9358ZM2.88004 5.75977C2.35204 5.75977 1.86937 5.63177 1.43204 5.37577C0.994706 5.11443 0.645372 4.76777 0.384039 4.33577C0.128039 3.89843 3.91006e-05 3.4131 3.91006e-05 2.87977C3.91006e-05 2.3571 0.133372 1.8771 0.400039 1.43976C0.666706 1.00243 1.01871 0.653098 1.45604 0.391765C1.89337 0.130432 2.36804 -0.000234604 2.88004 -0.000234604C3.40804 -0.000234604 3.88804 0.130432 4.32004 0.391765C4.75737 0.647765 5.10671 0.994432 5.36804 1.43177C5.62937 1.86377 5.76004 2.34643 5.76004 2.87977C5.76004 3.4131 5.62937 3.89843 5.36804 4.33577C5.10671 4.76777 4.75737 5.11443 4.32004 5.37577C3.88804 5.63177 3.40804 5.75977 2.88004 5.75977ZM2.88004 4.69577C3.21071 4.69577 3.51204 4.6131 3.78404 4.44777C4.06137 4.28243 4.28271 4.06377 4.44804 3.79177C4.61337 3.51443 4.69604 3.21043 4.69604 2.87977C4.69604 2.5491 4.61337 2.24777 4.44804 1.97577C4.28271 1.69843 4.06137 1.4771 3.78404 1.31176C3.51204 1.14643 3.21071 1.06377 2.88004 1.06377C2.54937 1.06377 2.24537 1.14643 1.96804 1.31176C1.69604 1.4771 1.47737 1.69843 1.31204 1.97577C1.14671 2.24777 1.06404 2.5491 1.06404 2.87977C1.06404 3.21043 1.14671 3.51443 1.31204 3.79177C1.47737 4.06377 1.69604 4.28243 1.96804 4.44777C2.24537 4.6131 2.54937 4.69577 2.88004 4.69577Z" fill="white"/>
</svg>
