<svg width="24" height="24" viewBox="0 0 24 24" fill="none" xmlns="http://www.w3.org/2000/svg">
<path d="M22.2806 16.719C22.3504 16.7886 22.4057 16.8714 22.4434 16.9624C22.4812 17.0535 22.5006 17.1511 22.5006 17.2496C22.5006 17.3482 22.4812 17.4458 22.4434 17.5368C22.4057 17.6279 22.3504 17.7106 22.2806 17.7802L20.0306 20.0302C19.9257 20.1353 19.792 20.2068 19.6465 20.2358C19.5009 20.2647 19.35 20.2499 19.2129 20.1931C19.0758 20.1363 18.9586 20.04 18.8762 19.9166C18.7938 19.7932 18.7499 19.648 18.75 19.4996V17.9996C17.6908 17.9847 16.6499 17.7213 15.7111 17.2305C14.7724 16.7397 13.962 16.0353 13.3453 15.174L9.43406 9.69899C8.94789 9.01937 8.30677 8.46537 7.56382 8.08289C6.82088 7.70041 5.99749 7.50047 5.16188 7.49961H3C2.80109 7.49961 2.61032 7.4206 2.46967 7.27994C2.32902 7.13929 2.25 6.94853 2.25 6.74961C2.25 6.5507 2.32902 6.35994 2.46967 6.21928C2.61032 6.07863 2.80109 5.99961 3 5.99961H5.16188C6.23615 6.00051 7.29474 6.25737 8.24996 6.74892C9.20518 7.24046 10.0295 7.95255 10.6547 8.82618L14.5659 14.3012C15.0434 14.9688 15.6704 15.5153 16.397 15.8971C17.1235 16.2788 17.9294 16.4852 18.75 16.4996V14.9996C18.7499 14.8512 18.7938 14.7061 18.8762 14.5826C18.9586 14.4592 19.0758 14.363 19.2129 14.3061C19.35 14.2493 19.5009 14.2345 19.6465 14.2635C19.792 14.2925 19.9257 14.364 20.0306 14.469L22.2806 16.719ZM13.4062 10.0309C13.4864 10.0881 13.577 10.129 13.673 10.1512C13.7689 10.1735 13.8683 10.1766 13.9655 10.1604C14.0626 10.1442 14.1557 10.109 14.2392 10.0569C14.3228 10.0047 14.3953 9.93664 14.4525 9.85649L14.565 9.69993C15.0423 9.03186 15.6695 8.48487 16.3962 8.10277C17.1229 7.72068 17.9291 7.51411 18.75 7.49961V8.99961C18.7499 9.14804 18.7938 9.29316 18.8762 9.4166C18.9586 9.54005 19.0758 9.63627 19.2129 9.69308C19.35 9.7499 19.5009 9.76475 19.6465 9.73576C19.792 9.70677 19.9257 9.63525 20.0306 9.53024L22.2806 7.28024C22.3504 7.21059 22.4057 7.12787 22.4434 7.03682C22.4812 6.94577 22.5006 6.84818 22.5006 6.74961C22.5006 6.65105 22.4812 6.55346 22.4434 6.46241C22.4057 6.37136 22.3504 6.28864 22.2806 6.21899L20.0306 3.96899C19.9257 3.86398 19.792 3.79245 19.6465 3.76347C19.5009 3.73448 19.35 3.74933 19.2129 3.80615C19.0758 3.86296 18.9586 3.95918 18.8762 4.08263C18.7938 4.20607 18.7499 4.35119 18.75 4.49961V5.99961C17.6908 6.01449 16.6499 6.27794 15.7111 6.76873C14.7724 7.25952 13.962 7.96394 13.3453 8.82524L13.2328 8.9818C13.1751 9.06199 13.1338 9.15279 13.1112 9.24899C13.0887 9.34519 13.0854 9.4449 13.1015 9.54238C13.1176 9.63986 13.1528 9.7332 13.2051 9.81703C13.2574 9.90086 13.3258 9.97353 13.4062 10.0309ZM10.5938 13.9684C10.5136 13.9111 10.423 13.8702 10.327 13.848C10.2311 13.8258 10.1317 13.8227 10.0345 13.8389C9.93736 13.8551 9.84434 13.8902 9.76078 13.9424C9.67722 13.9945 9.60475 14.0626 9.5475 14.1427L9.435 14.2993C8.94883 14.9792 8.30761 15.5335 7.56448 15.9161C6.82136 16.2988 5.99773 16.4988 5.16188 16.4996H3C2.80109 16.4996 2.61032 16.5786 2.46967 16.7193C2.32902 16.8599 2.25 17.0507 2.25 17.2496C2.25 17.4485 2.32902 17.6393 2.46967 17.7799C2.61032 17.9206 2.80109 17.9996 3 17.9996H5.16188C6.23615 17.9987 7.29474 17.7419 8.24996 17.2503C9.20518 16.7588 10.0295 16.0467 10.6547 15.1731L10.7672 15.0165C10.8248 14.9363 10.866 14.8456 10.8884 14.7495C10.9109 14.6534 10.9142 14.5538 10.898 14.4564C10.8819 14.3591 10.8468 14.2658 10.7945 14.1821C10.7423 14.0983 10.6741 14.0257 10.5938 13.9684Z" fill="white"/>
</svg>
