<svg width="19" height="20" viewBox="0 0 19 20" fill="none" xmlns="http://www.w3.org/2000/svg">
<path d="M16.875 0H1.875C1.37772 0 0.900805 0.197544 0.549175 0.549175C0.197544 0.900805 0 1.37772 0 1.875V7.125C0 12.2147 2.4675 15.3019 4.5375 16.9959C6.76031 18.8137 8.985 19.4334 9.07875 19.4606C9.27276 19.5131 9.47724 19.5131 9.67125 19.4606C9.765 19.4344 11.9897 18.8137 14.2125 16.9959C16.2825 15.3019 18.75 12.2147 18.75 7.125V1.875C18.75 1.37772 18.5525 0.900805 18.2008 0.549175C17.8492 0.197544 17.3723 0 16.875 0ZM16.5 7.125C16.5 10.4728 15.2728 13.1897 12.8522 15.2016C11.8146 16.0577 10.6387 16.7308 9.375 17.1919C8.11117 16.731 6.93523 16.0579 5.89781 15.2016C3.47719 13.1897 2.25 10.4728 2.25 7.125V2.25H16.5V7.125Z" fill="#E2FC0B"/>
</svg>
