<svg width="16" height="17" viewBox="0 0 16 17" fill="none" xmlns="http://www.w3.org/2000/svg">
<path d="M14.0625 0H1.5625C1.1481 0 0.750671 0.16462 0.457646 0.457646C0.16462 0.750671 0 1.1481 0 1.5625V5.9375C0 10.1789 2.05625 12.7516 3.78125 14.1633C5.63359 15.6781 7.4875 16.1945 7.56562 16.2172C7.7273 16.2609 7.8977 16.2609 8.05938 16.2172C8.1375 16.1953 9.99141 15.6781 11.8438 14.1633C13.5688 12.7516 15.625 10.1789 15.625 5.9375V1.5625C15.625 1.1481 15.4604 0.750671 15.1674 0.457646C14.8743 0.16462 14.4769 0 14.0625 0ZM13.75 5.9375C13.75 8.72734 12.7273 10.9914 10.7102 12.668C9.84552 13.3814 8.8656 13.9423 7.8125 14.3266C6.75931 13.9425 5.77936 13.3816 4.91484 12.668C2.89766 10.9914 1.875 8.72734 1.875 5.9375V1.875H13.75V5.9375Z" fill="#808080"/>
</svg>
