<svg width="20" height="20" viewBox="0 0 20 20" fill="none" xmlns="http://www.w3.org/2000/svg">
<path d="M16.25 2.8125H3.75C3.3356 2.8125 2.93817 2.97712 2.64515 3.27015C2.35212 3.56317 2.1875 3.9606 2.1875 4.375V8.75C2.1875 12.9914 4.24375 15.5641 5.96875 16.9758C7.82109 18.4906 9.675 19.007 9.75312 19.0297C9.9148 19.0734 10.0852 19.0734 10.2469 19.0297C10.325 19.0078 12.1789 18.4906 14.0312 16.9758C15.7563 15.5641 17.8125 12.9914 17.8125 8.75V4.375C17.8125 3.9606 17.6479 3.56317 17.3549 3.27015C17.0618 2.97712 16.6644 2.8125 16.25 2.8125ZM15.9375 8.75C15.9375 11.5398 14.9148 13.8039 12.8977 15.4805C12.033 16.1939 11.0531 16.7548 10 17.1391C8.94681 16.755 7.96686 16.1941 7.10234 15.4805C5.08516 13.8039 4.0625 11.5398 4.0625 8.75V4.6875H15.9375V8.75Z" fill="black"/>
</svg>
