<svg width="13" height="13" viewBox="0 0 13 13" fill="none" xmlns="http://www.w3.org/2000/svg">
<path d="M0.258757 1.17968C0.177117 1.25045 0.11173 1.33802 0.0670714 1.4364C0.0224125 1.53478 -0.000464231 1.64164 7.13891e-06 1.74968V12.2497C7.13891e-06 12.4486 0.0790247 12.6394 0.219677 12.78C0.360329 12.9207 0.551095 12.9997 0.750007 12.9997C0.94892 12.9997 1.13969 12.9207 1.28034 12.78C1.42099 12.6394 1.50001 12.4486 1.50001 12.2497V9.60718C2.92751 8.53718 4.13126 9.03718 5.91751 9.91968C6.93188 10.4197 8.08876 10.9947 9.34251 10.9947C10.2625 10.9947 11.235 10.6859 12.2413 9.81468C12.3223 9.74447 12.3873 9.65771 12.4319 9.56024C12.4765 9.46278 12.4998 9.35688 12.5 9.24968V1.74968C12.5 1.60588 12.4587 1.4651 12.381 1.34412C12.3033 1.22313 12.1924 1.12705 12.0616 1.06731C11.9308 1.00757 11.7855 0.986694 11.6432 1.00717C11.5009 1.02765 11.3674 1.08862 11.2588 1.18281C9.71438 2.52093 8.47563 2.01468 6.58251 1.07781C4.82438 0.204057 2.63563 -0.879068 0.258757 1.17968ZM11 8.89093C9.57251 9.96156 8.36876 9.46031 6.58251 8.57843C5.13501 7.85968 3.39563 6.99968 1.50001 7.86656V2.10531C2.92751 1.03531 4.13126 1.53531 5.91751 2.41781C6.93188 2.91781 8.08876 3.49281 9.34251 3.49281C9.91483 3.49366 10.4805 3.36975 11 3.12968V8.89093Z" fill="white"/>
</svg>
