<svg width="24" height="18" viewBox="0 0 24 18" fill="none" xmlns="http://www.w3.org/2000/svg">
<path d="M17.25 4.69781V4.5C17.25 3.12937 16.2347 1.91719 14.3897 1.0875C12.8316 0.38625 10.7812 0 8.625 0C6.46875 0 4.41844 0.38625 2.86031 1.0875C1.01531 1.91719 0 3.12937 0 4.5V8.25C0 9.62062 1.01531 10.8328 2.86031 11.6625C3.86294 12.0964 4.91872 12.3952 6 12.5513V12.75C6 14.1206 7.01531 15.3328 8.86031 16.1625C10.4184 16.8637 12.4688 17.25 14.625 17.25C16.7812 17.25 18.8316 16.8637 20.3897 16.1625C22.2347 15.3328 23.25 14.1206 23.25 12.75V9C23.25 6.92438 20.8791 5.2575 17.25 4.69781ZM21 9C21 9.72656 18.9591 11.1075 15.2053 11.2388C16.5309 10.4438 17.25 9.40312 17.25 8.25V6.97875C19.6763 7.42031 21 8.38875 21 9ZM9.69094 10.4653C9.35063 10.4878 8.99531 10.5 8.625 10.5C8.14875 10.5 7.69781 10.4794 7.27219 10.4428C7.23673 10.4381 7.20106 10.4353 7.16531 10.4344C7.02375 10.4213 6.88406 10.4063 6.75 10.3894V8.89969C7.37276 8.96659 7.99866 9.00008 8.625 9C9.25134 9.00008 9.87724 8.96659 10.5 8.89969V10.3894C10.2666 10.4175 10.0247 10.4419 9.77344 10.4597C9.75 10.4606 9.71813 10.4625 9.69094 10.4653ZM15 7.60687V8.25C15 8.69812 14.2238 9.39469 12.75 9.89437V8.48812C13.3111 8.34086 13.8594 8.14868 14.3897 7.91344C14.6047 7.81656 14.8081 7.71438 15 7.60687ZM8.625 2.25C12.75 2.25 15 3.73594 15 4.5C15 5.26406 12.75 6.75 8.625 6.75C4.5 6.75 2.25 5.26406 2.25 4.5C2.25 3.73594 4.5 2.25 8.625 2.25ZM2.25 8.25V7.60687C2.4425 7.71375 2.64594 7.81563 2.86031 7.9125C3.39057 8.14774 3.9389 8.33993 4.5 8.48719V9.89344C3.02625 9.39469 2.25 8.69812 2.25 8.25ZM8.25 12.75C8.37469 12.75 8.49938 12.75 8.625 12.75C8.965 12.75 9.30156 12.74 9.63469 12.72C9.91281 12.8181 10.2013 12.9075 10.5 12.9881V14.3944C9.02625 13.8947 8.25 13.1981 8.25 12.75ZM12.75 14.8894V13.4006C13.3728 13.4673 13.9987 13.5005 14.625 13.5C15.2513 13.5001 15.8772 13.4666 16.5 13.3997V14.8894C15.2544 15.0369 13.9956 15.0369 12.75 14.8894ZM18.75 14.3944V12.9881C19.3111 12.8409 19.8594 12.6487 20.3897 12.4134C20.6047 12.3172 20.8081 12.2153 21 12.1078V12.75C21 13.1981 20.2237 13.8947 18.75 14.3944Z" fill="#E2FC0B"/>
</svg>
