<svg width="20" height="15" viewBox="0 0 20 15" fill="none" xmlns="http://www.w3.org/2000/svg">
<path d="M14.375 3.91484V3.75C14.375 2.60781 13.5289 1.59766 11.9914 0.90625C10.693 0.321875 8.98438 0 7.1875 0C5.39062 0 3.68203 0.321875 2.38359 0.90625C0.846094 1.59766 0 2.60781 0 3.75V6.875C0 8.01719 0.846094 9.02734 2.38359 9.71875C3.21911 10.0803 4.09893 10.3294 5 10.4594V10.625C5 11.7672 5.84609 12.7773 7.38359 13.4688C8.68203 14.0531 10.3906 14.375 12.1875 14.375C13.9844 14.375 15.693 14.0531 16.9914 13.4688C18.5289 12.7773 19.375 11.7672 19.375 10.625V7.5C19.375 5.77031 17.3992 4.38125 14.375 3.91484ZM17.5 7.5C17.5 8.10547 15.7992 9.25625 12.6711 9.36563C13.7758 8.70312 14.375 7.83594 14.375 6.875V5.81563C16.3969 6.18359 17.5 6.99062 17.5 7.5ZM8.07578 8.72109C7.79219 8.73984 7.49609 8.75 7.1875 8.75C6.79063 8.75 6.41484 8.73281 6.06016 8.70234C6.03061 8.69845 6.00088 8.6961 5.97109 8.69531C5.85313 8.68437 5.73672 8.67188 5.625 8.65781V7.41641C6.14397 7.47216 6.66555 7.50007 7.1875 7.5C7.70945 7.50007 8.23103 7.47216 8.75 7.41641V8.65781C8.55547 8.68125 8.35391 8.70156 8.14453 8.71641C8.125 8.71719 8.09844 8.71875 8.07578 8.72109ZM12.5 6.33906V6.875C12.5 7.24844 11.8531 7.82891 10.625 8.24531V7.07344C11.0926 6.95072 11.5495 6.79057 11.9914 6.59453C12.1706 6.5138 12.3401 6.42865 12.5 6.33906ZM7.1875 1.875C10.625 1.875 12.5 3.11328 12.5 3.75C12.5 4.38672 10.625 5.625 7.1875 5.625C3.75 5.625 1.875 4.38672 1.875 3.75C1.875 3.11328 3.75 1.875 7.1875 1.875ZM1.875 6.875V6.33906C2.03542 6.42812 2.20495 6.51302 2.38359 6.59375C2.82548 6.78979 3.28242 6.94994 3.75 7.07266V8.24453C2.52187 7.82891 1.875 7.24844 1.875 6.875ZM6.875 10.625C6.97891 10.625 7.08281 10.625 7.1875 10.625C7.47083 10.625 7.7513 10.6167 8.02891 10.6C8.26068 10.6818 8.50104 10.7562 8.75 10.8234V11.9953C7.52187 11.5789 6.875 10.9984 6.875 10.625ZM10.625 12.4078V11.1672C11.144 11.2228 11.6656 11.2504 12.1875 11.25C12.7095 11.2501 13.231 11.2222 13.75 11.1664V12.4078C12.712 12.5307 11.663 12.5307 10.625 12.4078ZM15.625 11.9953V10.8234C16.0926 10.7007 16.5495 10.5406 16.9914 10.3445C17.1706 10.2643 17.3401 10.1794 17.5 10.0898V10.625C17.5 10.9984 16.8531 11.5789 15.625 11.9953Z" fill="#808080"/>
</svg>
