<svg width="54" height="54" viewBox="0 0 54 54" fill="none" xmlns="http://www.w3.org/2000/svg">
<path d="M27 0C21.6599 0 16.4397 1.58352 11.9996 4.55032C7.55949 7.51712 4.09883 11.7339 2.05526 16.6675C0.0116987 21.6012 -0.522991 27.0299 0.51881 32.2674C1.56061 37.5049 4.13211 42.3159 7.90813 46.0919C11.6841 49.8679 16.4951 52.4394 21.7326 53.4812C26.9701 54.523 32.3989 53.9883 37.3325 51.9447C42.2661 49.9012 46.4829 46.4405 49.4497 42.0004C52.4165 37.5603 54 32.3401 54 27C53.9921 19.8416 51.1449 12.9786 46.0831 7.91689C41.0214 2.85513 34.1584 0.00794056 27 0ZM27 48C22.8466 48 18.7865 46.7684 15.333 44.4609C11.8796 42.1534 9.18798 38.8736 7.59854 35.0364C6.0091 31.1991 5.59323 26.9767 6.40352 22.9031C7.21381 18.8295 9.21387 15.0877 12.1508 12.1508C15.0877 9.21385 18.8295 7.2138 22.9031 6.40351C26.9767 5.59322 31.1991 6.00909 35.0364 7.59853C38.8736 9.18797 42.1534 11.8796 44.4609 15.333C46.7684 18.7865 48 22.8466 48 27C47.9941 32.5677 45.7796 37.9057 41.8427 41.8427C37.9057 45.7796 32.5677 47.994 27 48ZM27 12C24.9023 11.9995 22.8482 12.5987 21.0799 13.7271C19.3116 14.8556 17.9028 16.4661 17.0196 18.3688C16.1364 20.2715 15.8157 22.3871 16.0953 24.466C16.3749 26.545 17.2431 28.5007 18.5975 30.1025L16.1325 38.1175C15.9944 38.5662 15.9635 39.0411 16.0424 39.5039C16.1213 39.9668 16.3077 40.4046 16.5866 40.7823C16.8655 41.16 17.2292 41.4669 17.6484 41.6784C18.0676 41.8899 18.5305 42 19 42H35C35.4695 42 35.9325 41.8899 36.3516 41.6784C36.7708 41.4669 37.1345 41.16 37.4134 40.7823C37.6924 40.4046 37.8787 39.9668 37.9576 39.5039C38.0365 39.0411 38.0056 38.5662 37.8675 38.1175L35.4025 30.1025C36.757 28.5007 37.6251 26.545 37.9047 24.466C38.1843 22.3871 37.8636 20.2715 36.9804 18.3688C36.0972 16.4661 34.6884 14.8556 32.9201 13.7271C31.1518 12.5987 29.0977 11.9995 27 12ZM29.1325 30.1275L30.9375 36H23.0625L24.8675 30.1275C25.0432 29.552 25.0418 28.937 24.8635 28.3623C24.6852 27.7877 24.3381 27.2799 23.8675 26.905C23.0589 26.2576 22.4713 25.3749 22.1859 24.3791C21.9006 23.3832 21.9316 22.3234 22.2747 21.3459C22.6178 20.3685 23.256 19.5217 24.1011 18.9227C24.9463 18.3236 25.9566 18.0019 26.9925 18.0019C28.0284 18.0019 29.0388 18.3236 29.8839 18.9227C30.729 19.5217 31.3672 20.3685 31.7103 21.3459C32.0534 22.3234 32.0844 23.3832 31.7991 24.3791C31.5138 25.3749 30.9262 26.2576 30.1175 26.905C29.6495 27.2818 29.3054 27.7903 29.1298 28.3649C28.9542 28.9394 28.9551 29.5535 29.1325 30.1275Z" fill="#E2FC01"/>
</svg>
