<svg width="12" height="12" viewBox="0 0 12 12" fill="none" xmlns="http://www.w3.org/2000/svg">
<path fill-rule="evenodd" clip-rule="evenodd" d="M8.19436 1.33333C7.93937 1.33333 7.68688 1.3837 7.45141 1.48155C7.21593 1.57939 7.0021 1.72279 6.82219 1.9035L5.38643 3.33926C5.12608 3.59961 4.70397 3.59961 4.44362 3.33926C4.18328 3.07891 4.18328 2.6568 4.44362 2.39645L5.87728 0.962794C5.87746 0.962615 5.87764 0.962436 5.87782 0.962257C6.1815 0.657358 6.54239 0.415405 6.93979 0.250277C7.33742 0.0850534 7.76377 0 8.19436 0C8.62496 0 9.05131 0.0850537 9.44894 0.250278C9.84614 0.415322 10.2069 0.657115 10.5105 0.961799C10.8151 1.26536 11.0568 1.62605 11.2219 2.0232C11.3871 2.42083 11.4721 2.84718 11.4721 3.27777C11.4721 3.70836 11.3871 4.13472 11.2219 4.53235C11.0567 4.92975 10.8148 5.29064 10.5099 5.59433C10.5097 5.5945 10.5095 5.59468 10.5093 5.59485L9.07569 7.02851C8.81534 7.28886 8.39323 7.28886 8.13288 7.02851C7.87253 6.76816 7.87253 6.34605 8.13288 6.0857L9.56759 4.65099L9.56864 4.64994C9.74935 4.47004 9.89275 4.25621 9.99059 4.02073C10.0884 3.78525 10.1388 3.53277 10.1388 3.27777C10.1388 3.02278 10.0884 2.77029 9.99059 2.53481C9.89275 2.29934 9.74935 2.08551 9.56864 1.9056L9.56653 1.9035C9.38663 1.72279 9.1728 1.57939 8.93732 1.48155C8.70185 1.3837 8.44936 1.33333 8.19436 1.33333ZM7.39913 4.07301C7.65948 4.33336 7.65948 4.75547 7.39913 5.01582L5.01341 7.40153C4.75306 7.66188 4.33095 7.66188 4.0706 7.40153C3.81025 7.14118 3.81025 6.71907 4.0706 6.45872L6.45632 4.07301C6.71667 3.81266 7.13878 3.81266 7.39913 4.07301ZM3.33685 4.44603C3.5972 4.70638 3.5972 5.12849 3.33685 5.38884L1.90214 6.82355C1.53794 7.18775 1.33333 7.68172 1.33333 8.19678C1.33333 8.71183 1.53794 9.2058 1.90214 9.57C2.26634 9.9342 2.7603 10.1388 3.27536 10.1388C3.79042 10.1388 4.28438 9.9342 4.64859 9.57L6.08329 8.13529C6.34364 7.87494 6.76575 7.87494 7.0261 8.13529C7.28645 8.39564 7.28645 8.81775 7.0261 9.0781L5.59139 10.5128C4.97714 11.1271 4.14404 11.4721 3.27536 11.4721C2.40668 11.4721 1.57358 11.1271 0.959332 10.5128C0.345083 9.89856 -7.94728e-08 9.06546 0 8.19678C1.19209e-07 7.3281 0.345083 6.49499 0.959332 5.88074L2.39404 4.44603C2.65439 4.18569 3.0765 4.18569 3.33685 4.44603Z" fill="white"/>
</svg>
