<svg width="12" height="14" viewBox="0 0 12 14" fill="none" xmlns="http://www.w3.org/2000/svg">
<path d="M9.14339 8.42302C8.5155 8.42201 7.90904 8.65134 7.4389 9.06755L5.04769 7.53239C5.19611 7.04341 5.19611 6.52138 5.04769 6.03239L7.4389 4.49724C7.90434 4.90628 8.50197 5.13325 9.1216 5.1363C9.74122 5.13935 10.3411 4.91827 10.8105 4.51383C11.2799 4.10939 11.5873 3.54885 11.676 2.93559C11.7646 2.32233 11.6286 1.6977 11.2929 1.17687C10.9572 0.656042 10.4445 0.274141 9.8494 0.101589C9.25428 -0.0709635 8.61683 -0.0225309 8.05461 0.237956C7.49239 0.498442 7.0433 0.953417 6.79016 1.51898C6.53702 2.08455 6.49689 2.72257 6.67718 3.3154L4.28539 4.8488C3.91344 4.52009 3.45451 4.30575 2.96371 4.23151C2.47292 4.15727 1.97112 4.22629 1.5186 4.43029C1.06607 4.63428 0.68206 4.96458 0.412678 5.3815C0.143296 5.79843 0 6.28425 0 6.78063C0 7.27701 0.143296 7.76284 0.412678 8.17977C0.68206 8.59669 1.06607 8.92698 1.5186 9.13098C1.97112 9.33498 2.47292 9.404 2.96371 9.32976C3.45451 9.25552 3.91344 9.04118 4.28539 8.71247L6.6766 10.2511C6.51882 10.77 6.52871 11.3255 6.70484 11.8384C6.88097 12.3514 7.21439 12.7957 7.65765 13.1082C8.10091 13.4207 8.63143 13.5855 9.17374 13.5791C9.71605 13.5727 10.2425 13.3954 10.6783 13.0725C11.114 12.7495 11.4368 12.2974 11.6007 11.7805C11.7647 11.2635 11.7614 10.708 11.5914 10.193C11.4214 9.67794 11.0933 9.22966 10.6538 8.91189C10.2143 8.59413 9.68574 8.42305 9.14339 8.42302ZM9.14339 1.39177C9.37517 1.39177 9.60174 1.4605 9.79445 1.58926C9.98717 1.71803 10.1374 1.90105 10.2261 2.11518C10.3148 2.32932 10.338 2.56494 10.2928 2.79226C10.2475 3.01958 10.1359 3.22839 9.97203 3.39228C9.80814 3.55617 9.59934 3.66778 9.37201 3.713C9.14469 3.75822 8.90907 3.73501 8.69494 3.64631C8.4808 3.55762 8.29778 3.40741 8.16901 3.2147C8.04025 3.02199 7.97152 2.79542 7.97152 2.56364C7.97152 2.25284 8.09498 1.95477 8.31475 1.735C8.53452 1.51523 8.83259 1.39177 9.14339 1.39177ZM2.58089 7.95427C2.34912 7.95427 2.12255 7.88554 1.92983 7.75677C1.73712 7.628 1.58692 7.44498 1.49822 7.23085C1.40953 7.01672 1.38632 6.78109 1.43154 6.55377C1.47675 6.32645 1.58836 6.11764 1.75225 5.95375C1.91614 5.78986 2.12495 5.67825 2.35227 5.63303C2.57959 5.58782 2.81522 5.61102 3.02935 5.69972C3.24348 5.78842 3.4265 5.93862 3.55527 6.13133C3.68404 6.32405 3.75277 6.55062 3.75277 6.78239C3.75277 7.09319 3.6293 7.39126 3.40953 7.61103C3.18976 7.8308 2.89169 7.95427 2.58089 7.95427ZM9.14339 12.173C8.91162 12.173 8.68505 12.1043 8.49233 11.9755C8.29962 11.8468 8.14942 11.6637 8.06072 11.4496C7.97203 11.2355 7.94882 10.9998 7.99404 10.7725C8.03925 10.5452 8.15086 10.3364 8.31475 10.1725C8.47864 10.0086 8.68745 9.897 8.91477 9.85178C9.14209 9.80657 9.37772 9.82977 9.59185 9.91847C9.80598 10.0072 9.989 10.1574 10.1178 10.3501C10.2465 10.5428 10.3153 10.7694 10.3153 11.0011C10.3153 11.3119 10.1918 11.61 9.97203 11.8298C9.75226 12.0496 9.45419 12.173 9.14339 12.173Z" fill="#E2FC0B"/>
</svg>
