<svg width="13" height="15" viewBox="0 0 13 15" fill="none" xmlns="http://www.w3.org/2000/svg">
<path d="M9.75295 8.98455C9.0832 8.98348 8.43631 9.22809 7.93483 9.67205L5.3842 8.03455C5.54252 7.51297 5.54252 6.95614 5.3842 6.43455L7.93483 4.79705C8.43129 5.23336 9.06877 5.47547 9.7297 5.47872C10.3906 5.48197 11.0305 5.24615 11.5312 4.81475C12.0319 4.38334 12.3598 3.78544 12.4544 3.1313C12.5489 2.47716 12.4038 1.81088 12.0457 1.25533C11.6877 0.699778 11.1408 0.292417 10.506 0.108361C9.87123 -0.0756944 9.19129 -0.024033 8.59159 0.253819C7.99188 0.531672 7.51286 1.01698 7.24284 1.62025C6.97282 2.22352 6.93002 2.90408 7.12233 3.53643L4.57108 5.17205C4.17434 4.82143 3.68481 4.59279 3.16129 4.51361C2.63778 4.43442 2.10253 4.50804 1.61984 4.72564C1.13714 4.94324 0.72753 5.29555 0.44019 5.74027C0.152849 6.18499 0 6.7032 0 7.23268C0 7.76215 0.152849 8.28036 0.44019 8.72508C0.72753 9.1698 1.13714 9.52212 1.61984 9.73971C2.10253 9.95731 2.63778 10.0309 3.16129 9.95175C3.68481 9.87256 4.17434 9.64392 4.57108 9.2933L7.1217 10.9346C6.95341 11.488 6.96395 12.0805 7.15183 12.6276C7.33971 13.1748 7.69535 13.6488 8.16816 13.9821C8.64097 14.3155 9.20686 14.4912 9.78532 14.4844C10.3638 14.4775 10.9254 14.2884 11.3901 13.944C11.8549 13.5995 12.1993 13.1173 12.3741 12.5658C12.549 12.0144 12.5455 11.4218 12.3642 10.8725C12.1828 10.3231 11.8328 9.84497 11.364 9.50602C10.8952 9.16707 10.3315 8.98459 9.75295 8.98455ZM9.75295 1.48455C10.0002 1.48455 10.2419 1.55786 10.4474 1.69521C10.653 1.83257 10.8132 2.02779 10.9078 2.2562C11.0024 2.4846 11.0272 2.73594 10.9789 2.97841C10.9307 3.22089 10.8117 3.44362 10.6368 3.61843C10.462 3.79325 10.2393 3.9123 9.99682 3.96053C9.75434 4.00876 9.50301 3.98401 9.2746 3.8894C9.04619 3.79479 8.85097 3.63458 8.71362 3.42901C8.57626 3.22345 8.50295 2.98178 8.50295 2.73455C8.50295 2.40303 8.63465 2.08509 8.86907 1.85067C9.10349 1.61625 9.42143 1.48455 9.75295 1.48455ZM2.75295 8.48455C2.50573 8.48455 2.26405 8.41124 2.05849 8.27389C1.85293 8.13654 1.69271 7.94131 1.5981 7.71291C1.50349 7.4845 1.47874 7.23316 1.52697 6.99069C1.5752 6.74821 1.69425 6.52548 1.86907 6.35067C2.04389 6.17585 2.26661 6.0568 2.50909 6.00857C2.75157 5.96034 3.0029 5.98509 3.23131 6.0797C3.45972 6.17431 3.65494 6.33453 3.79229 6.54009C3.92964 6.74565 4.00295 6.98732 4.00295 7.23455C4.00295 7.56607 3.87126 7.88401 3.63684 8.11843C3.40242 8.35286 3.08447 8.48455 2.75295 8.48455ZM9.75295 12.9846C9.50573 12.9846 9.26405 12.9112 9.05849 12.7739C8.85293 12.6365 8.69271 12.4413 8.5981 12.2129C8.5035 11.9845 8.47874 11.7332 8.52697 11.4907C8.5752 11.2482 8.69425 11.0255 8.86907 10.8507C9.04389 10.6759 9.26661 10.5568 9.50909 10.5086C9.75157 10.4603 10.0029 10.4851 10.2313 10.5797C10.4597 10.6743 10.6549 10.8345 10.7923 11.0401C10.9296 11.2457 11.003 11.4873 11.003 11.7346C11.003 12.0661 10.8713 12.384 10.6368 12.6184C10.4024 12.8529 10.0845 12.9846 9.75295 12.9846Z" fill="white"/>
</svg>
