<svg width="20" height="20" viewBox="0 0 20 20" fill="none" xmlns="http://www.w3.org/2000/svg">
<path d="M16.5195 4.10208L10.2695 2.22708C10.1296 2.18507 9.98171 2.17635 9.83778 2.20164C9.69384 2.22693 9.55781 2.28552 9.44055 2.37273C9.32328 2.45994 9.22803 2.57335 9.16239 2.70392C9.09675 2.83449 9.06255 2.9786 9.0625 3.12474V10.9544C8.30222 10.4686 7.40184 10.2497 6.50338 10.3322C5.60491 10.4148 4.75948 10.794 4.10044 11.4103C3.44139 12.0265 3.00623 12.8445 2.86359 13.7354C2.72096 14.6263 2.87895 15.5394 3.31267 16.3305C3.74638 17.1217 4.43113 17.746 5.25892 18.1049C6.08671 18.4638 7.01042 18.537 7.88438 18.3128C8.75834 18.0886 9.5328 17.5799 10.0856 16.8668C10.6384 16.1538 10.9382 15.277 10.9375 14.3747V8.13489L15.9805 9.64739C16.1204 9.68941 16.2683 9.69812 16.4122 9.67283C16.5562 9.64754 16.6922 9.58896 16.8095 9.50175C16.9267 9.41454 17.022 9.30112 17.0876 9.17055C17.1533 9.03998 17.1875 8.89588 17.1875 8.74974V4.99974C17.1874 4.79819 17.1224 4.60203 17.0021 4.44033C16.8818 4.27864 16.7126 4.16003 16.5195 4.10208ZM6.875 16.5622C6.44236 16.5622 6.01943 16.4339 5.65969 16.1936C5.29996 15.9532 5.01959 15.6116 4.85402 15.2119C4.68845 14.8121 4.64513 14.3723 4.72954 13.948C4.81394 13.5236 5.02228 13.1339 5.32821 12.8279C5.63414 12.522 6.02391 12.3137 6.44824 12.2293C6.87258 12.1449 7.31241 12.1882 7.71212 12.3538C8.11184 12.5193 8.45348 12.7997 8.69384 13.1594C8.93421 13.5192 9.0625 13.9421 9.0625 14.3747C9.0625 14.9549 8.83204 15.5113 8.4218 15.9215C8.01156 16.3318 7.45517 16.5622 6.875 16.5622ZM15.3125 7.48958L10.9375 6.17708V4.38489L15.3125 5.69739V7.48958Z" fill="white"/>
</svg>
