<svg width="15" height="17" viewBox="0 0 15 17" fill="none" xmlns="http://www.w3.org/2000/svg">
<path d="M1.875 5.9375V10.9375C1.875 11.1861 1.77623 11.4246 1.60041 11.6004C1.4246 11.7762 1.18614 11.875 0.9375 11.875C0.68886 11.875 0.450403 11.7762 0.274587 11.6004C0.0987719 11.4246 0 11.1861 0 10.9375V5.9375C0 5.68886 0.0987719 5.4504 0.274587 5.27459C0.450403 5.09877 0.68886 5 0.9375 5C1.18614 5 1.4246 5.09877 1.60041 5.27459C1.77623 5.4504 1.875 5.68886 1.875 5.9375ZM4.0625 0C3.81386 0 3.5754 0.0987721 3.39959 0.274587C3.22377 0.450403 3.125 0.68886 3.125 0.9375V15.9375C3.125 16.1861 3.22377 16.4246 3.39959 16.6004C3.5754 16.7762 3.81386 16.875 4.0625 16.875C4.31114 16.875 4.5496 16.7762 4.72541 16.6004C4.90123 16.4246 5 16.1861 5 15.9375V0.9375C5 0.68886 4.90123 0.450403 4.72541 0.274587C4.5496 0.0987721 4.31114 0 4.0625 0ZM7.1875 2.5C6.93886 2.5 6.7004 2.59877 6.52459 2.77459C6.34877 2.9504 6.25 3.18886 6.25 3.4375V13.4375C6.25 13.6861 6.34877 13.9246 6.52459 14.1004C6.7004 14.2762 6.93886 14.375 7.1875 14.375C7.43614 14.375 7.6746 14.2762 7.85041 14.1004C8.02623 13.9246 8.125 13.6861 8.125 13.4375V3.4375C8.125 3.18886 8.02623 2.9504 7.85041 2.77459C7.6746 2.59877 7.43614 2.5 7.1875 2.5ZM10.3125 5C10.0639 5 9.8254 5.09877 9.64959 5.27459C9.47377 5.4504 9.375 5.68886 9.375 5.9375V10.9375C9.375 11.1861 9.47377 11.4246 9.64959 11.6004C9.8254 11.7762 10.0639 11.875 10.3125 11.875C10.5611 11.875 10.7996 11.7762 10.9754 11.6004C11.1512 11.4246 11.25 11.1861 11.25 10.9375V5.9375C11.25 5.68886 11.1512 5.4504 10.9754 5.27459C10.7996 5.09877 10.5611 5 10.3125 5ZM13.4375 3.75C13.1889 3.75 12.9504 3.84877 12.7746 4.02459C12.5988 4.2004 12.5 4.43886 12.5 4.6875V12.1875C12.5 12.4361 12.5988 12.6746 12.7746 12.8504C12.9504 13.0262 13.1889 13.125 13.4375 13.125C13.6861 13.125 13.9246 13.0262 14.1004 12.8504C14.2762 12.6746 14.375 12.4361 14.375 12.1875V4.6875C14.375 4.43886 14.2762 4.2004 14.1004 4.02459C13.9246 3.84877 13.6861 3.75 13.4375 3.75Z" fill="#E2FC0B"/>
</svg>
