<svg width="24" height="24" viewBox="0 0 24 24" fill="none" xmlns="http://www.w3.org/2000/svg">
<g clip-path="url(#clip0_258_7818)">
<path d="M20.4 0H3.6C1.61177 0 0 1.61177 0 3.6V20.4C0 22.3882 1.61177 24 3.6 24H20.4C22.3882 24 24 22.3882 24 20.4V3.6C24 1.61177 22.3882 0 20.4 0Z" fill="#FF5500"/>
<path d="M2.76562 12.6559L2.625 13.6872L2.76562 14.7184C2.76562 14.8122 2.90625 14.8122 2.90625 14.7184L3.04688 13.6872L2.90625 12.6559C2.90625 12.5153 2.76562 12.5153 2.76562 12.6559ZM3.60938 11.9997C3.60938 11.859 3.46875 11.859 3.46875 11.9997L3.23438 13.6872L3.42188 15.3278C3.42188 15.4684 3.60938 15.4684 3.60938 15.3278L3.79688 13.6872L3.60938 11.9997ZM6.375 10.5934L6.23438 13.6872L6.32812 15.5622C6.32812 15.9372 6.65625 15.9372 6.65625 15.5622L6.84375 13.6872L6.65625 10.5934C6.65625 10.359 6.375 10.359 6.375 10.5934ZM4.92188 11.6247L4.73438 13.6872L4.875 15.5622C4.875 15.8434 5.10938 15.8434 5.10938 15.5622L5.29688 13.6872L5.10938 11.6247C5.10938 11.484 4.92188 11.484 4.92188 11.6247ZM8.20312 15.5622L8.34375 13.6872L8.20312 9.56215C8.20312 9.2809 7.875 9.2809 7.875 9.56215L7.73438 13.6872L7.82812 15.5622C7.82812 15.9372 8.20312 15.9372 8.20312 15.5622ZM11.3906 15.5622L11.4844 13.6872L11.3906 8.9059C11.3906 8.57778 10.9219 8.57778 10.9219 8.9059L10.8281 13.6872L10.9219 15.5622C10.9219 15.9372 11.3906 15.9372 11.3906 15.5622ZM9.79688 15.5622L9.9375 13.6872L9.79688 9.51528C9.79688 9.23403 9.375 9.23403 9.375 9.51528L9.28125 13.6872L9.375 15.5622C9.375 15.9372 9.79688 15.9372 9.79688 15.5622ZM5.90625 15.5622L6.04688 13.6872L5.90625 11.7653C5.90625 11.6247 5.625 11.6247 5.625 11.7653L5.48438 13.6872L5.625 15.5622C5.625 15.8903 5.90625 15.8903 5.90625 15.5622ZM4.35938 15.5622L4.54688 13.6872L4.35938 11.6715C4.35938 11.5309 4.17188 11.5309 4.17188 11.6715L3.98438 13.6872L4.17188 15.5622C4.17188 15.7497 4.35938 15.7497 4.35938 15.5622ZM10.1719 9.70278L10.0781 13.6872L10.125 15.5622C10.125 15.9372 10.5938 15.9372 10.5938 15.5622L10.6875 13.6872L10.5938 9.70278C10.5938 9.37465 10.1719 9.37465 10.1719 9.70278ZM7.45312 15.5622L7.59375 13.6872L7.45312 9.89028C7.45312 9.60903 7.125 9.60903 7.125 9.89028L6.98438 13.6872L7.07812 15.5622C7.07812 15.9372 7.45312 15.9372 7.45312 15.5622ZM9 15.5622L9.14062 13.6872L9 9.42153C9 9.14028 8.625 9.14028 8.625 9.42153L8.48438 13.6872L8.625 15.5622C8.625 15.9372 9 15.9372 9 15.5622ZM18.1875 11.3903C17.9531 8.7184 15.1875 6.98403 12.6562 7.9684C12.4688 8.06215 12.4219 8.10903 12.4219 8.24965V15.5622C12.4219 15.7028 12.5156 15.8434 12.6562 15.8434H19.0781C20.3438 15.8434 21.375 14.8122 21.375 13.5465C21.375 11.8122 19.7344 10.8747 18.1875 11.3903ZM11.7188 8.48403L11.5781 13.6872L11.7188 15.5622C11.7188 15.9372 12.1875 15.9372 12.1875 15.5622L12.3281 13.6872L12.1875 8.48403C12.1875 8.1559 11.7188 8.1559 11.7188 8.48403Z" fill="white"/>
</g>
<defs>
<clipPath id="clip0_258_7818">
<rect width="24" height="24" fill="white"/>
</clipPath>
</defs>
</svg>
