<svg width="134" height="41" viewBox="0 0 134 41" fill="none" xmlns="http://www.w3.org/2000/svg">
<path d="M30.4123 32.8357H27.023C24.4564 29.2805 21.5337 25.8336 18.6804 22.4911C18.5364 22.3255 18.3951 22.1574 18.2524 21.9906C17.6831 21.3221 17.1004 20.6422 16.5191 19.9571C16.1085 19.472 15.6978 18.9868 15.2911 18.503C14.8858 18.0191 14.4791 17.4856 14.0552 16.9711C11.9645 14.4779 9.89653 11.9198 7.99922 9.28014C7.54456 8.64983 7.0739 7.96223 6.7059 7.20714C6.52057 6.82386 6.37524 6.45332 6.27124 6.09424H9.34454C9.5992 6.68125 10.0205 7.29627 10.4245 7.86036C13.1485 11.6511 16.2831 15.3209 19.3124 18.8697C19.5404 19.1371 19.7698 19.407 20.0017 19.677C20.7257 20.525 21.4604 21.3883 22.1817 22.2466L22.2751 22.3586C22.7444 22.9202 23.115 23.4091 23.5084 23.8892C25.6003 26.3837 27.6697 28.9405 29.567 31.5827C29.851 31.9762 30.1416 32.3926 30.4096 32.8357H30.4123Z" fill="white"/>
<path d="M31.4982 36.3019C31.4822 36.6724 31.4208 37.0213 31.3182 37.346C31.2928 37.4262 31.2648 37.5064 31.2355 37.5841C31.2248 37.5841 31.2155 37.5841 31.2035 37.5816C30.8035 38.5799 30.0075 39.3413 29.0489 39.8379C28.9569 39.8876 28.8635 39.9322 28.7689 39.9755C28.7662 39.9755 28.7649 39.9755 28.7635 39.978C28.7622 39.9805 28.7595 39.9806 28.7582 39.9806C28.0942 40.2785 27.3702 40.5013 26.6516 40.5497C26.4716 40.5625 26.2929 40.5688 26.1129 40.5688C25.0222 40.5688 23.9356 40.3575 22.9089 40.0684C23.9143 39.5756 24.7529 38.7951 25.1662 37.7624H25.1689C25.1862 37.7191 25.2022 37.6745 25.2182 37.63C25.4916 37.6516 25.7609 37.6542 26.0236 37.6376C26.4236 37.6109 26.8302 37.5103 27.1942 37.346H27.1969C27.5235 37.1983 27.8155 37.0009 28.0342 36.7615C28.2849 36.489 28.4449 36.1631 28.4582 35.7951C28.4902 34.9508 27.7969 33.9118 27.1422 33.0026C27.1022 32.9479 27.0622 32.8931 27.0236 32.8384H30.4128C30.5715 33.102 30.7235 33.3757 30.8608 33.6584C31.3222 34.6007 31.5302 35.4691 31.4995 36.3044L31.4982 36.3019Z" fill="url(#paint0_linear_958_7023)"/>
<path d="M14.3614 0.714332C13.4294 1.21858 12.6294 2.01187 12.2401 2.9847H12.2374C12.2068 3.06237 12.1788 3.14259 12.1534 3.22282C11.9468 3.21135 11.7428 3.21263 11.5441 3.22536C11.2308 3.24701 10.9121 3.3145 10.6121 3.42146C10.5988 3.42782 10.5855 3.43164 10.5721 3.43801C10.1921 3.57808 9.84413 3.78563 9.5868 4.04794C9.30547 4.32935 9.12414 4.67443 9.10947 5.06916C9.09748 5.38877 9.19081 5.73767 9.34414 6.09547H6.27084C6.11618 5.56704 6.05084 5.05897 6.06951 4.55982C6.08551 4.14981 6.15884 3.76908 6.28284 3.41382C6.30151 3.35397 6.32551 3.2954 6.34817 3.2381C6.75484 2.22452 7.56816 1.45542 8.54681 0.958814C8.62681 0.916794 8.70681 0.878593 8.78948 0.841666C9.44147 0.548798 10.1521 0.37053 10.8588 0.318323C10.8775 0.315776 10.8961 0.314503 10.9148 0.31323C12.0801 0.233009 13.2521 0.421464 14.3614 0.714332Z" fill="url(#paint1_linear_958_7023)"/>
<path d="M12.9632 23.0754L12.9512 23.0809L12.9572 23.0718L12.9632 23.0754Z" fill="#00DA5F"/>
<path d="M25.4307 36.4813C25.4147 36.8925 25.3414 37.2758 25.2174 37.6298C25.2014 37.6744 25.1854 37.7189 25.1681 37.7622H25.1654C24.7521 38.7962 23.9134 39.5755 22.9081 40.0683C22.8774 40.0861 22.8468 40.1001 22.8148 40.1154C22.8148 40.1154 22.8121 40.1154 22.8081 40.1179H22.8054H22.8028C22.8028 40.1179 22.8028 40.1179 22.8001 40.1205C22.1321 40.421 21.3081 40.6782 20.5841 40.7278C20.4041 40.7406 20.2255 40.747 20.0455 40.747C19.7055 40.747 19.3668 40.7266 19.0295 40.6884C18.7241 40.6553 18.4215 40.6094 18.1215 40.5508L18.1242 40.547C16.8868 40.3127 15.7015 39.9002 14.6522 39.522C14.6522 39.522 14.6513 39.522 14.6495 39.522C14.5655 39.4863 14.4815 39.4494 14.3989 39.4125C10.7176 37.7571 8.2456 35.1341 7.65361 34.4643C5.3923 31.91 4.34298 28.8921 4.84831 26.3913C4.89764 26.1506 4.96031 25.9138 5.03764 25.6808L7.88427 27.1247C7.86694 27.1897 7.85227 27.2559 7.83894 27.3221C7.51361 28.9354 8.26693 30.9677 9.85492 32.7606C11.1162 34.1854 13.1695 35.8484 15.5788 36.8836C15.5788 36.8836 15.5815 36.8836 15.5828 36.8836C16.6548 37.2656 17.7388 37.6273 18.7761 37.7648C18.9935 37.7928 19.2095 37.8132 19.4228 37.8208C19.6041 37.8284 19.7801 37.8272 19.9561 37.8132C20.2735 37.7915 20.5921 37.724 20.8921 37.6158C21.2868 37.4745 21.6468 37.2618 21.9148 36.9919C22.1961 36.7079 22.3774 36.3628 22.3921 35.9694C22.4241 35.1251 21.7294 34.0861 21.0761 33.1769C18.5828 29.7071 15.7455 26.3391 12.9589 23.0717L12.9722 23.0666L10.8589 20.5912L10.8456 20.5976L10.8416 20.5925C10.3002 19.9571 9.75892 19.3179 9.22426 18.6812C8.81893 18.1973 8.41093 17.6638 7.98827 17.1494C5.89763 14.6562 3.82965 12.098 1.93101 9.45841C1.47768 8.8281 1.00702 8.14177 0.639024 7.38541C0.421693 6.93974 0.260361 6.51062 0.155029 6.09424H3.20566C3.44566 6.73473 3.91099 7.41597 4.35898 8.03863C7.08295 11.8294 10.2162 15.4991 13.2469 19.0479C13.6029 19.4643 13.9642 19.8871 14.3255 20.3136C14.9549 21.0496 15.5868 21.7945 16.2095 22.5356C16.2908 22.6337 16.3708 22.7304 16.4482 22.8247C16.8108 23.2691 17.1175 23.6714 17.4442 24.0662C19.5348 26.5607 21.6041 29.1175 23.5028 31.7597C23.9548 32.3875 24.4254 33.0763 24.7947 33.8327C25.2561 34.775 25.4627 35.6434 25.4321 36.4787L25.4307 36.4813Z" fill="white"/>
<path d="M8.54683 0.959038C7.56818 1.45564 6.75485 2.22474 6.34819 3.23832C6.32553 3.29689 6.30286 3.35547 6.28286 3.41404C6.00686 3.39112 5.7402 3.38603 5.47754 3.40385C4.31088 3.48153 3.08156 4.19332 3.04156 5.24765C3.03223 5.51378 3.0949 5.80028 3.20556 6.0957H0.15493C0.0362644 5.63093 -0.0130684 5.18016 0.00293144 4.73959C0.100264 2.15853 2.51357 0.648342 4.84821 0.492995C6.10286 0.406407 7.36418 0.631789 8.54683 0.959038Z" fill="url(#paint2_linear_958_7023)"/>
<path d="M12.955 23.0716L12.9496 23.0792L10.8096 23.9184C9.64432 24.5092 8.75633 25.3178 8.25101 26.2244C8.08834 26.5147 7.96434 26.8165 7.88301 27.1246L5.03638 25.6807C5.21771 25.1242 5.48171 24.592 5.8177 24.0928C6.57903 22.957 7.72035 21.9867 9.17366 21.2622L9.27899 21.2151L10.843 20.6013L12.9523 23.0729L12.955 23.0716Z" fill="url(#paint3_linear_958_7023)"/>
<path d="M35.2008 30.9078H31.7195C29.3302 27.7512 26.7089 24.6824 24.1596 21.6977C23.8036 21.2814 23.4423 20.8586 23.0809 20.432C22.4516 19.696 21.8196 18.9511 21.197 18.2101C21.1156 18.112 21.0356 18.0152 20.9583 17.921C20.5956 17.4779 20.289 17.0742 19.9623 16.6795C17.8717 14.185 15.8024 11.6282 13.9037 8.98597C13.4517 8.35821 12.9811 7.66933 12.6117 6.91297C12.1504 5.9707 11.9437 5.10228 11.9744 4.26697C11.9891 3.89642 12.0504 3.5488 12.1531 3.2241C12.1784 3.14388 12.2077 3.06366 12.2371 2.98599H12.2397C12.6291 2.01315 13.4291 1.21986 14.361 0.715618C14.4517 0.665958 14.5424 0.618844 14.6344 0.57555C14.637 0.57555 14.6384 0.57555 14.641 0.573004C14.6464 0.570457 14.649 0.569184 14.649 0.569184C14.6637 0.561544 14.6784 0.555177 14.693 0.547537C15.3624 0.245755 16.0944 0.0674871 16.8197 0.0191001C16.9997 0.00636671 17.1783 0 17.3583 0C17.6983 0 18.037 0.0203735 18.3743 0.0585737C18.6797 0.0916806 18.9823 0.137521 19.2823 0.196095L19.2797 0.199915C20.517 0.434209 21.7023 0.846772 22.7516 1.22495C22.7516 1.22495 22.7525 1.22495 22.7543 1.22495C22.8383 1.26061 22.9223 1.29753 23.0049 1.33446C26.6862 2.98981 29.1582 5.61289 29.7502 6.28267C32.0115 8.83699 33.0608 11.8548 32.5555 14.3556C32.5062 14.5963 32.4435 14.8332 32.3662 15.0662L29.5195 13.6222C29.5369 13.5573 29.5515 13.4911 29.5649 13.4248C29.8902 11.8115 29.1369 9.77926 27.5489 7.9864C26.2876 6.56153 24.2343 4.89854 21.825 3.86332C21.825 3.86332 21.8223 3.86332 21.821 3.86332C20.749 3.48132 19.665 3.11969 18.6277 2.98217C18.4103 2.95415 18.1943 2.93378 17.981 2.92614C17.7997 2.9185 17.6237 2.91977 17.4477 2.93378C17.1303 2.95543 16.8117 3.02291 16.5117 3.13115C16.117 3.27249 15.757 3.48514 15.489 3.75508C15.2077 4.03904 15.0264 4.38411 15.0117 4.77758C14.9797 5.6218 15.6744 6.66085 16.3277 7.57001C18.821 11.0399 21.6583 14.4079 24.4449 17.6753L24.4316 17.6803L26.5449 20.1557L26.5582 20.1494L26.5622 20.1544C27.1036 20.7898 27.6449 21.4291 28.1795 22.0657C28.5849 22.5496 28.9929 23.0831 29.4155 23.5976C31.4075 25.9711 33.3768 28.4032 35.1995 30.9104L35.2008 30.9078Z" fill="white"/>
<path d="M24.4598 17.6689L24.4518 17.678L24.4478 17.6744L24.4598 17.6689Z" fill="#00DA5F"/>
<path d="M37.4021 36.0076C37.3061 38.5887 34.8914 40.0989 32.5568 40.2542C31.3688 40.3357 30.1768 40.1384 29.0488 39.8391C30.0075 39.3425 30.8035 38.5811 31.2035 37.5828C31.2141 37.5828 31.2235 37.5853 31.2355 37.5853C31.2661 37.5076 31.2928 37.4274 31.3181 37.3472C31.5248 37.3574 31.7275 37.3561 31.9275 37.3434C33.0941 37.2657 34.3234 36.5539 34.3634 35.4996C34.3954 34.6554 33.6994 33.6163 33.0461 32.7071C32.6128 32.1048 32.1688 31.5038 31.7168 30.9092H35.1981C35.2901 31.0352 35.3808 31.1613 35.4714 31.2874C35.9248 31.9177 36.3954 32.6053 36.7634 33.3604C37.2221 34.3052 37.4314 35.1711 37.3994 36.0089L37.4021 36.0076Z" fill="url(#paint4_linear_958_7023)"/>
<path d="M32.3678 15.0676C32.1865 15.624 31.9225 16.1563 31.5865 16.6554C30.8252 17.7912 29.6838 18.7615 28.2305 19.4861L28.1252 19.5332L26.5612 20.1469L24.4519 17.6754L24.4572 17.6677L26.5972 16.8286C27.7625 16.2378 28.6505 15.4292 29.1559 14.5226C29.3185 14.2322 29.4425 13.9305 29.5238 13.6223L32.3705 15.0663L32.3678 15.0676Z" fill="url(#paint5_linear_958_7023)"/>
<path d="M56.3293 29.7667C54.2266 29.7667 52.4573 29.3172 51.0213 28.4195C49.5854 27.5218 48.5747 26.3006 47.988 24.7561L51.5667 22.7582C52.396 24.8248 54.0226 25.8575 56.4493 25.8575C57.6213 25.8575 58.4812 25.655 59.0279 25.2488C59.5732 24.8439 59.8466 24.332 59.8466 23.7132C59.8466 22.9988 59.5132 22.4437 58.8452 22.0477C58.1786 21.6517 56.9853 21.2225 55.2666 20.759C54.316 20.4891 53.512 20.2191 52.856 19.9479C52.1987 19.678 51.5413 19.3151 50.884 18.8618C50.2267 18.4085 49.7267 17.8329 49.3827 17.1389C49.0387 16.4437 48.8667 15.6326 48.8667 14.7056C48.8667 12.8707 49.5494 11.4089 50.9133 10.3176C52.2787 9.22639 53.9213 8.6814 55.8413 8.6814C57.5599 8.6814 59.0719 9.0825 60.3759 9.88343C61.6799 10.6844 62.6959 11.7998 63.4239 13.2285L59.9052 15.1691C59.0559 13.431 57.7013 12.5625 55.8413 12.5625C54.972 12.5625 54.2893 12.751 53.7946 13.1266C53.2986 13.5035 53.052 13.9912 53.052 14.5897C53.052 15.2264 53.3293 15.7433 53.8866 16.1394C54.4426 16.5354 55.5093 16.9645 57.0866 17.428C57.7333 17.6215 58.2239 17.7705 58.5572 17.8775C58.8906 17.9832 59.3452 18.1487 59.9226 18.3703C60.4986 18.5918 60.9439 18.8006 61.2572 18.9929C61.5705 19.1865 61.9292 19.4475 62.3332 19.7747C62.7372 20.1033 63.0465 20.4407 63.2585 20.7883C63.4705 21.1359 63.6532 21.5562 63.8039 22.0489C63.9559 22.5417 64.0319 23.0778 64.0319 23.6559C64.0319 25.529 63.3185 27.0162 61.8932 28.1164C60.4679 29.2166 58.6119 29.7679 56.3279 29.7679L56.3293 29.7667Z" fill="white"/>
<path d="M75.4058 14.4742C77.4484 14.4742 79.1911 15.2127 80.6377 16.6898C82.0831 18.1669 82.8057 19.9776 82.8057 22.1206C82.8057 24.2636 82.0831 26.0743 80.6377 27.5514C79.1924 29.0285 77.4484 29.767 75.4058 29.767C73.3632 29.767 71.6445 29.0628 70.4925 27.652V35.1545H66.5806V14.8791H70.4925V16.5879C71.6445 15.1783 73.2832 14.4729 75.4058 14.4729V14.4742ZM71.6752 25.0607C72.4632 25.8235 73.4645 26.2042 74.6778 26.2042C75.8911 26.2042 76.8964 25.8235 77.6951 25.0607C78.4938 24.298 78.8924 23.3188 78.8924 22.1206C78.8924 20.9224 78.4924 19.9432 77.6951 19.1804C76.8964 18.4177 75.8911 18.037 74.6778 18.037C73.4645 18.037 72.4632 18.419 71.6752 19.1804C70.8872 19.9432 70.4925 20.9236 70.4925 22.1206C70.4925 23.3175 70.8872 24.298 71.6752 25.0607Z" fill="white"/>
<path d="M94.8472 14.8792H99.0325L93.5032 29.3851C92.7152 31.453 91.6685 32.9555 90.3672 33.8927C89.0646 34.8299 87.4433 35.2501 85.5059 35.1546V31.6783C86.5566 31.6974 87.3913 31.4848 88.0086 31.0417C88.6246 30.5973 89.1152 29.8829 89.4792 28.8986L83.262 14.8792H87.5379L91.4925 24.6126L94.8472 14.8792Z" fill="white"/>
<path d="M104.793 17.3708C105.157 16.4438 105.759 15.7486 106.597 15.2851C107.436 14.8216 108.372 14.5898 109.403 14.5898V18.7613C108.209 18.6263 107.143 18.8581 106.203 19.4566C105.263 20.055 104.792 21.0495 104.792 22.44V29.3632H100.88V14.8802H104.792V17.3708H104.793Z" fill="white"/>
<path d="M122.628 14.879H126.54V29.362H122.628V27.6532C121.455 29.0627 119.808 29.7682 117.684 29.7682C115.56 29.7682 113.928 29.0296 112.483 27.5526C111.037 26.0755 110.315 24.2648 110.315 22.1218C110.315 19.9787 111.037 18.168 112.483 16.691C113.928 15.2139 115.663 14.4753 117.684 14.4753C119.807 14.4753 121.455 15.1808 122.628 16.5904V14.8815V14.879ZM115.409 25.0606C116.197 25.8234 117.199 26.2041 118.412 26.2041C119.625 26.2041 120.631 25.8234 121.429 25.0606C122.228 24.2979 122.627 23.3187 122.627 22.1205C122.627 20.9223 122.227 19.9431 121.429 19.1803C120.631 18.4176 119.625 18.0369 118.412 18.0369C117.199 18.0369 116.197 18.4189 115.409 19.1803C114.621 19.9431 114.227 20.9235 114.227 22.1205C114.227 23.3174 114.621 24.2979 115.409 25.0606Z" fill="white"/>
<path d="M130.088 29.3621V8.21826H134V29.3621H130.088Z" fill="white"/>
<defs>
<linearGradient id="paint0_linear_958_7023" x1="21.509" y1="37.7866" x2="27.7632" y2="36.4059" gradientUnits="userSpaceOnUse">
<stop stop-color="white" stop-opacity="0"/>
<stop offset="1" stop-color="white"/>
</linearGradient>
<linearGradient id="paint1_linear_958_7023" x1="17.172" y1="2.02587" x2="3.23662" y2="4.55135" gradientUnits="userSpaceOnUse">
<stop stop-color="white" stop-opacity="0"/>
<stop offset="0.56" stop-color="white"/>
</linearGradient>
<linearGradient id="paint2_linear_958_7023" x1="10.8495" y1="1.51931" x2="-0.268329" y2="4.59789" gradientUnits="userSpaceOnUse">
<stop stop-color="white" stop-opacity="0"/>
<stop offset="0.64" stop-color="white"/>
</linearGradient>
<linearGradient id="paint3_linear_958_7023" x1="12.4336" y1="21.224" x2="5.58519" y2="26.7522" gradientUnits="userSpaceOnUse">
<stop stop-color="white" stop-opacity="0"/>
<stop offset="0.84" stop-color="white"/>
</linearGradient>
<linearGradient id="paint4_linear_958_7023" x1="27.5515" y1="37.0098" x2="36.1369" y2="34.2379" gradientUnits="userSpaceOnUse">
<stop stop-color="white" stop-opacity="0"/>
<stop offset="0.64" stop-color="white"/>
</linearGradient>
<linearGradient id="paint5_linear_958_7023" x1="24.9801" y1="19.824" x2="30.0282" y2="15.7533" gradientUnits="userSpaceOnUse">
<stop stop-color="#D9D9D9" stop-opacity="0"/>
<stop offset="0.84" stop-color="white"/>
</linearGradient>
</defs>
</svg>
