<svg width="20" height="20" viewBox="0 0 20 20" fill="none" xmlns="http://www.w3.org/2000/svg">
<path d="M18.9844 7.49973C18.8875 7.20075 18.7041 6.93724 18.4574 6.74254C18.2107 6.54784 17.9117 6.43072 17.5984 6.40598L13.1773 6.04895L11.4711 1.92317C11.3512 1.63158 11.1473 1.3822 10.8854 1.2067C10.6234 1.0312 10.3153 0.9375 9.99998 0.9375C9.6847 0.9375 9.37652 1.0312 9.11459 1.2067C8.85267 1.3822 8.6488 1.63158 8.52889 1.92317L6.8242 6.04973L2.40311 6.40598C2.08922 6.43187 1.78999 6.54995 1.54301 6.7454C1.29603 6.94084 1.11233 7.20492 1.01499 7.50446C0.917645 7.80399 0.911009 8.12562 0.995911 8.42891C1.08081 8.73221 1.25347 9.00364 1.49217 9.20911L4.86561 12.1185L3.83436 16.47C3.75914 16.7768 3.77694 17.0991 3.88547 17.3958C3.99401 17.6924 4.18838 17.9501 4.44383 18.1359C4.69927 18.3217 5.00425 18.4273 5.31991 18.4392C5.63558 18.4512 5.94765 18.3689 6.21639 18.2029L9.99998 15.874L13.7836 18.2029C14.0522 18.3678 14.3638 18.4493 14.6788 18.437C14.9938 18.4247 15.2981 18.3193 15.5531 18.134C15.8082 17.9487 16.0025 17.6919 16.1116 17.3962C16.2206 17.1004 16.2394 16.7789 16.1656 16.4724L15.1344 12.1208L18.5078 9.21145C18.7479 9.00549 18.9214 8.73281 19.0063 8.42804C19.0911 8.12327 19.0835 7.80016 18.9844 7.49973ZM13.4789 11.07C13.3488 11.1822 13.252 11.3279 13.1991 11.4913C13.1462 11.6547 13.1392 11.8295 13.1789 11.9966L14.1859 16.2497L10.4914 13.9779C10.3436 13.8869 10.1735 13.8387 9.99998 13.8387C9.82647 13.8387 9.65635 13.8869 9.50858 13.9779L5.81405 16.2497L6.82108 11.9997C6.86074 11.8326 6.85374 11.6578 6.80084 11.4944C6.74793 11.331 6.65116 11.1853 6.52108 11.0732L3.21873 8.22161L7.54686 7.87239C7.7191 7.85855 7.88416 7.79738 8.02382 7.69564C8.16347 7.59389 8.2723 7.45553 8.33827 7.29583L9.99998 3.27239L11.6617 7.29583C11.7277 7.45553 11.8365 7.59389 11.9762 7.69564C12.1158 7.79738 12.2809 7.85855 12.4531 7.87239L16.7812 8.22161L13.4789 11.07Z" fill="white"/>
</svg>
