<svg width="12" height="14" viewBox="0 0 12 14" fill="none" xmlns="http://www.w3.org/2000/svg">
    <path d="M11.2806 3.72L7.78063 0.22C7.71097 0.150261 7.62826 0.0949356 7.53721 0.0571864C7.44616 0.0194371 7.34856 4.59535e-06 7.25 0H1.25C0.918479 0 0.600537 0.131696 0.366117 0.366117C0.131696 0.600537 0 0.918479 0 1.25V12.25C0 12.5815 0.131696 12.8995 0.366117 13.1339C0.600537 13.3683 0.918479 13.5 1.25 13.5H10.25C10.5815 13.5 10.8995 13.3683 11.1339 13.1339C11.3683 12.8995 11.5 12.5815 11.5 12.25V4.25C11.5 4.05124 11.4211 3.86062 11.2806 3.72ZM7.75 2.3125L9.1875 3.75H7.75V2.3125ZM1.5 12V1.5H6.25V4.5C6.25 4.69891 6.32902 4.88968 6.46967 5.03033C6.61032 5.17098 6.80109 5.25 7 5.25H10V12H1.5Z" fill="#E2FC0B"/>
    </svg>
    