<svg width="19" height="17" viewBox="0 0 19 17" fill="none" xmlns="http://www.w3.org/2000/svg">
<path d="M18.0258 14.893L13.6508 6.14297C13.5729 5.98737 13.4532 5.85653 13.3051 5.76509C13.1571 5.67365 12.9865 5.62522 12.8125 5.62522C12.6385 5.62522 12.4679 5.67365 12.3199 5.76509C12.1718 5.85653 12.0521 5.98737 11.9742 6.14297L10.3711 9.34609C9.29107 9.25168 8.25111 8.89179 7.34375 8.29844C8.44637 7.01616 9.1361 5.43083 9.32266 3.75H10.9375C11.1861 3.75 11.4246 3.65123 11.6004 3.47541C11.7762 3.2996 11.875 3.06114 11.875 2.8125C11.875 2.56386 11.7762 2.3254 11.6004 2.14959C11.4246 1.97377 11.1861 1.875 10.9375 1.875H6.875V0.9375C6.875 0.68886 6.77623 0.450403 6.60041 0.274587C6.4246 0.0987721 6.18614 0 5.9375 0C5.68886 0 5.4504 0.0987721 5.27459 0.274587C5.09877 0.450403 5 0.68886 5 0.9375V1.875H0.9375C0.68886 1.875 0.450403 1.97377 0.274587 2.14959C0.0987721 2.3254 0 2.56386 0 2.8125C0 3.06114 0.0987721 3.2996 0.274587 3.47541C0.450403 3.65123 0.68886 3.75 0.9375 3.75H7.43203C7.25617 4.97184 6.73802 6.11893 5.9375 7.05859C5.54685 6.60145 5.22088 6.09278 4.96875 5.54688C4.91937 5.43206 4.84752 5.32828 4.75745 5.24163C4.66737 5.15499 4.56088 5.08723 4.44423 5.04234C4.32758 4.99745 4.20314 4.97634 4.07821 4.98025C3.95329 4.98416 3.83041 5.01301 3.7168 5.0651C3.60318 5.11719 3.50113 5.19147 3.41665 5.28358C3.33217 5.37569 3.26695 5.48376 3.22484 5.60144C3.18273 5.71911 3.16458 5.84402 3.17145 5.96882C3.17832 6.09362 3.21007 6.21578 3.26484 6.32812C3.59279 7.04135 4.01907 7.70509 4.53125 8.3C3.46434 9.00228 2.2148 9.37605 0.9375 9.375C0.68886 9.375 0.450403 9.47377 0.274587 9.64959C0.0987721 9.8254 0 10.0639 0 10.3125C0 10.5611 0.0987721 10.7996 0.274587 10.9754C0.450403 11.1512 0.68886 11.25 0.9375 11.25C2.73753 11.2515 4.49038 10.6744 5.9375 9.60391C6.98695 10.3762 8.20047 10.8959 9.48359 11.1227L7.59844 14.893C7.53985 15.0034 7.50393 15.1244 7.49281 15.249C7.4817 15.3735 7.4956 15.499 7.5337 15.6181C7.5718 15.7371 7.63333 15.8474 7.71467 15.9423C7.79601 16.0373 7.89552 16.115 8.00734 16.1709C8.11916 16.2268 8.24103 16.2598 8.36579 16.2679C8.49054 16.276 8.61566 16.2591 8.73378 16.2181C8.85189 16.1771 8.96062 16.113 9.05357 16.0294C9.14652 15.9457 9.22181 15.8444 9.275 15.7312L10.2664 13.75H15.3578L16.3484 15.7312C16.4596 15.9537 16.6546 16.1228 16.8905 16.2015C17.1263 16.2802 17.3838 16.2619 17.6063 16.1508C17.8287 16.0396 17.9978 15.8446 18.0765 15.6088C18.1552 15.3729 18.1369 15.1154 18.0258 14.893ZM11.2039 11.875L12.8125 8.65859L14.4203 11.875H11.2039Z" fill="black"/>
</svg>
