<svg width="24" height="18" viewBox="0 0 24 18" fill="none" xmlns="http://www.w3.org/2000/svg">
<path d="M18.0538 10.8291C18.2651 11.0404 18.3838 11.3271 18.3838 11.6259C18.3838 11.9248 18.2651 12.2115 18.0538 12.4228C17.8424 12.6342 17.5558 12.7529 17.2569 12.7529C16.958 12.7529 16.6714 12.6342 16.46 12.4228L15.3828 11.3438V16.125C15.3828 16.4234 15.2643 16.7095 15.0533 16.9205C14.8423 17.1315 14.5562 17.25 14.2578 17.25C13.9595 17.25 13.6733 17.1315 13.4623 16.9205C13.2514 16.7095 13.1328 16.4234 13.1328 16.125V11.3438L12.0538 12.4237C11.8424 12.6351 11.5558 12.7538 11.2569 12.7538C10.958 12.7538 10.6714 12.6351 10.46 12.4237C10.2487 12.2124 10.1299 11.9258 10.1299 11.6269C10.1299 11.328 10.2487 11.0413 10.46 10.83L13.46 7.83C13.5645 7.72512 13.6887 7.6419 13.8255 7.58512C13.9622 7.52834 14.1088 7.49911 14.2569 7.49911C14.405 7.49911 14.5516 7.52834 14.6883 7.58512C14.8251 7.6419 14.9493 7.72512 15.0538 7.83L18.0538 10.8291ZM14.6328 0C13.0758 0.000747505 11.5479 0.422617 10.2111 1.22092C8.87424 2.01923 7.77821 3.16425 7.03908 4.53469C6.17828 4.44453 5.30814 4.53059 4.48169 4.78764C3.65524 5.04469 2.88978 5.46733 2.23197 6.02981C1.57416 6.59229 1.03777 7.28283 0.655503 8.05934C0.273233 8.83585 0.0530842 9.68207 0.00847398 10.5464C-0.0361362 11.4108 0.0957264 12.2752 0.396026 13.0869C0.696325 13.8986 1.15877 14.6407 1.75518 15.2679C2.35159 15.8952 3.06947 16.3944 3.86507 16.7351C4.66067 17.0759 5.51733 17.2511 6.38283 17.25H9.00783C9.3062 17.25 9.59235 17.1315 9.80333 16.9205C10.0143 16.7095 10.1328 16.4234 10.1328 16.125C10.1328 15.8266 10.0143 15.5405 9.80333 15.3295C9.59235 15.1185 9.3062 15 9.00783 15H6.38283C5.30791 14.9934 4.27801 14.5675 3.51244 13.8129C2.74687 13.0583 2.3061 12.0347 2.28398 10.96C2.26186 9.88523 2.66015 8.84434 3.39402 8.05889C4.1279 7.27344 5.1394 6.80549 6.21314 6.75469C6.07648 7.36874 6.00763 7.99593 6.00783 8.625C6.00783 8.92337 6.12636 9.20952 6.33734 9.42049C6.54831 9.63147 6.83446 9.75 7.13283 9.75C7.4312 9.75 7.71735 9.63147 7.92833 9.42049C8.1393 9.20952 8.25783 8.92337 8.25783 8.625C8.25861 7.70279 8.45945 6.79173 8.84651 5.95468C9.23358 5.11764 9.79764 4.37453 10.4998 3.77664C11.2019 3.17876 12.0254 2.74032 12.9134 2.49159C13.8015 2.24287 14.7329 2.18977 15.6434 2.33597C16.554 2.48216 17.422 2.82417 18.1875 3.33839C18.953 3.85261 19.5979 4.5268 20.0776 5.31444C20.5573 6.10208 20.8603 6.98441 20.9659 7.90055C21.0715 8.8167 20.977 9.74484 20.6891 10.6209C20.6429 10.7613 20.6247 10.9094 20.6357 11.0567C20.6467 11.2041 20.6866 11.3478 20.7532 11.4798C20.8197 11.6117 20.9116 11.7292 21.0236 11.8256C21.1356 11.9221 21.2654 11.9955 21.4058 12.0417C21.5462 12.0879 21.6942 12.1061 21.8416 12.0951C21.9889 12.0841 22.1327 12.0442 22.2646 11.9776C22.3966 11.9111 22.5141 11.8192 22.6105 11.7072C22.7069 11.5952 22.7804 11.4654 22.8266 11.325C23.2524 10.0292 23.365 8.65093 23.1552 7.30319C22.9455 5.95545 22.4192 4.67662 21.6197 3.57156C20.8202 2.46649 19.7701 1.56666 18.5556 0.945834C17.3411 0.325009 15.9968 0.000872306 14.6328 0Z" fill="#E2FC0B"/>
</svg>
