<svg width="20" height="15" viewBox="0 0 20 15" fill="none" xmlns="http://www.w3.org/2000/svg">
<path d="M15.0448 9.02422C15.2209 9.20034 15.3199 9.43921 15.3199 9.68828C15.3199 9.93735 15.2209 10.1762 15.0448 10.3523C14.8687 10.5285 14.6298 10.6274 14.3807 10.6274C14.1317 10.6274 13.8928 10.5285 13.7167 10.3523L12.819 9.45312V13.4375C12.819 13.6861 12.7203 13.9246 12.5444 14.1004C12.3686 14.2762 12.1302 14.375 11.8815 14.375C11.6329 14.375 11.3944 14.2762 11.2186 14.1004C11.0428 13.9246 10.944 13.6861 10.944 13.4375V9.45312L10.0448 10.3531C9.86869 10.5292 9.62982 10.6282 9.38074 10.6282C9.13167 10.6282 8.8928 10.5292 8.71668 10.3531C8.54056 10.177 8.44162 9.93813 8.44162 9.68906C8.44162 9.43999 8.54056 9.20112 8.71668 9.025L11.2167 6.525C11.3038 6.4376 11.4073 6.36825 11.5212 6.32094C11.6352 6.27362 11.7574 6.24926 11.8807 6.24926C12.0041 6.24926 12.1263 6.27362 12.2403 6.32094C12.3542 6.36825 12.4577 6.4376 12.5448 6.525L15.0448 9.02422ZM12.194 0C10.8965 0.000622921 9.62326 0.352181 8.50923 1.01744C7.3952 1.68269 6.48184 2.63687 5.8659 3.77891C5.14857 3.70377 4.42345 3.7755 3.73474 3.9897C3.04603 4.20391 2.40815 4.55611 1.85997 5.02484C1.3118 5.49358 0.864811 6.06902 0.546253 6.71612C0.227694 7.36321 0.0442368 8.06839 0.00706165 8.78868C-0.0301135 9.50898 0.079772 10.2293 0.330021 10.9058C0.580271 11.5822 0.965642 12.2006 1.46265 12.7233C1.95966 13.246 2.55789 13.662 3.22089 13.9459C3.88389 14.2299 4.59777 14.3759 5.31903 14.375H7.50653C7.75517 14.375 7.99362 14.2762 8.16944 14.1004C8.34525 13.9246 8.44403 13.6861 8.44403 13.4375C8.44403 13.1889 8.34525 12.9504 8.16944 12.7746C7.99362 12.5988 7.75517 12.5 7.50653 12.5H5.31903C4.42325 12.4945 3.56501 12.1396 2.92703 11.5107C2.28906 10.8819 1.92175 10.0289 1.90332 9.13329C1.88489 8.23769 2.21679 7.37028 2.82835 6.71574C3.43992 6.0612 4.28283 5.67125 5.17762 5.62891C5.06374 6.14061 5.00636 6.66327 5.00653 7.1875C5.00653 7.43614 5.1053 7.6746 5.28111 7.85041C5.45693 8.02623 5.69538 8.125 5.94403 8.125C6.19267 8.125 6.43112 8.02623 6.60694 7.85041C6.78275 7.6746 6.88153 7.43614 6.88153 7.1875C6.88217 6.41899 7.04954 5.65978 7.3721 4.96224C7.69465 4.2647 8.1647 3.64544 8.74981 3.1472C9.33493 2.64896 10.0212 2.2836 10.7612 2.07633C11.5012 1.86906 12.2774 1.82481 13.0362 1.94664C13.795 2.06847 14.5183 2.35347 15.1563 2.78199C15.7942 3.21051 16.3316 3.77233 16.7313 4.4287C17.1311 5.08506 17.3836 5.82034 17.4716 6.58379C17.5596 7.34725 17.4809 8.1207 17.2409 8.85078C17.2024 8.96774 17.1873 9.09114 17.1964 9.21394C17.2056 9.33674 17.2389 9.45653 17.2943 9.56647C17.3498 9.67641 17.4264 9.77436 17.5197 9.85471C17.613 9.93506 17.7212 9.99624 17.8382 10.0348C17.9551 10.0733 18.0785 10.0884 18.2013 10.0792C18.3241 10.0701 18.4439 10.0368 18.5539 9.98134C18.6638 9.92588 18.7617 9.84931 18.8421 9.756C18.9224 9.66268 18.9836 9.55446 19.0222 9.4375C19.377 8.35767 19.4709 7.20911 19.296 6.08599C19.1212 4.96288 18.6827 3.89719 18.0164 2.9763C17.3501 2.05541 16.4751 1.30555 15.463 0.788195C14.451 0.270841 13.3307 0.000726921 12.194 0Z" fill="#E2FC0B"/>
</svg>
