<svg width="21" height="18" viewBox="0 0 21 18" fill="none" xmlns="http://www.w3.org/2000/svg">
<path d="M11.625 5.625C11.625 5.32833 11.713 5.03832 11.8778 4.79165C12.0426 4.54497 12.2769 4.35271 12.551 4.23918C12.8251 4.12565 13.1267 4.09594 13.4176 4.15382C13.7086 4.2117 13.9759 4.35456 14.1857 4.56434C14.3954 4.77412 14.5383 5.04139 14.5962 5.33236C14.6541 5.62334 14.6244 5.92494 14.5108 6.19903C14.3973 6.47311 14.205 6.70738 13.9584 6.8722C13.7117 7.03703 13.4217 7.125 13.125 7.125C12.7272 7.125 12.3456 6.96696 12.0643 6.68566C11.783 6.40436 11.625 6.02282 11.625 5.625ZM20.25 1.875V15.375C20.25 15.8723 20.0525 16.3492 19.7008 16.7008C19.3492 17.0525 18.8723 17.25 18.375 17.25H1.875C1.37772 17.25 0.900805 17.0525 0.549175 16.7008C0.197544 16.3492 0 15.8723 0 15.375V1.875C0 1.37772 0.197544 0.900805 0.549175 0.549175C0.900805 0.197544 1.37772 0 1.875 0H18.375C18.8723 0 19.3492 0.197544 19.7008 0.549175C20.0525 0.900805 20.25 1.37772 20.25 1.875ZM2.25 2.25V9.72375L5.42438 6.54938C5.77599 6.19787 6.25282 6.0004 6.75 6.0004C7.24718 6.0004 7.72401 6.19787 8.07562 6.54938L11.9353 10.4062L13.5459 8.79656C13.8976 8.44505 14.3744 8.24759 14.8716 8.24759C15.3687 8.24759 15.8456 8.44505 16.1972 8.79656L18 10.6022V2.25H2.25ZM2.25 15H13.3444L6.75 8.40563L2.25 12.9056V15ZM18 15V13.7812L14.8716 10.6528L13.5262 12L16.5262 15H18Z" fill="#E2FC0B"/>
</svg>
