<svg width="24" height="24" viewBox="0 0 24 24" fill="none" xmlns="http://www.w3.org/2000/svg">
<g clip-path="url(#clip0_258_7823)">
<path d="M12 24C18.6274 24 24 18.6274 24 12C24 5.37258 18.6274 0 12 0C5.37258 0 0 5.37258 0 12C0 18.6274 5.37258 24 12 24Z" fill="#FF0000"/>
<path d="M11.9993 6.27299C15.1493 6.27299 17.7266 8.83663 17.7266 12.0003C17.7266 15.1639 15.1629 17.7275 11.9993 17.7275C8.83565 17.7275 6.27202 15.1639 6.27202 12.0003C6.27202 8.83663 8.84929 6.27299 11.9993 6.27299ZM11.9993 5.72754C8.53565 5.72754 5.72656 8.53663 5.72656 12.0003C5.72656 15.4639 8.53565 18.273 11.9993 18.273C15.4629 18.273 18.272 15.4639 18.272 12.0003C18.272 8.53663 15.4629 5.72754 11.9993 5.72754Z" fill="white"/>
<path d="M9.81836 15.136L15.1365 11.8633L9.81836 8.86328V15.136Z" fill="white"/>
</g>
<defs>
<clipPath id="clip0_258_7823">
<rect width="24" height="24" fill="white"/>
</clipPath>
</defs>
</svg>
