<svg width="1512" height="982" viewBox="0 0 1512 982" fill="none" xmlns="http://www.w3.org/2000/svg">
<g opacity="0.07">
<path d="M1299.4 1141.8H1131.85C1004.97 956.028 860.494 775.912 719.442 601.252C712.324 592.602 705.337 583.819 698.285 575.103C670.14 540.171 641.337 504.64 612.599 468.843C592.298 443.492 571.997 418.142 551.894 392.858C531.857 367.573 511.754 339.694 490.794 312.813C387.444 182.534 285.214 48.8604 191.422 -89.0711C168.946 -122.007 145.679 -157.937 127.487 -197.394C118.325 -217.421 111.141 -236.784 106 -255.547H257.927C270.516 -224.873 291.344 -192.736 311.316 -163.26C445.974 34.8211 600.933 226.581 750.685 412.02C761.955 425.993 773.292 440.099 784.761 454.205C820.551 498.519 856.869 543.631 892.527 588.477L897.141 594.332C920.342 623.675 938.665 649.225 958.109 674.31C1061.53 804.656 1163.82 938.263 1257.61 1076.33C1271.65 1096.89 1286.02 1118.65 1299.27 1141.8H1299.4Z" fill="white"/>
<path d="M436.674 631.748L436.213 631.981L436.443 631.592L436.674 631.748Z" fill="url(#paint0_linear_46_223)"/>
<path d="M1060.49 1331.84C1059.7 1353.33 1056.08 1373.36 1049.95 1391.86C1049.16 1394.19 1048.36 1396.52 1047.51 1398.78H1047.38C1026.94 1452.81 985.485 1493.53 935.787 1519.28C934.271 1520.21 932.755 1520.94 931.173 1521.74C931.173 1521.74 931.042 1521.74 930.844 1521.87H930.712H930.58C930.58 1521.87 930.58 1521.87 930.448 1522.01C897.427 1537.71 856.693 1551.15 820.903 1553.74C812.005 1554.41 803.172 1554.74 794.274 1554.74C777.467 1554.74 760.725 1553.68 744.049 1551.68C728.956 1549.95 713.994 1547.56 699.163 1544.5L699.295 1544.3C638.129 1532.05 579.533 1510.5 527.661 1490.73C527.661 1490.73 527.617 1490.73 527.529 1490.73C523.376 1488.87 519.224 1486.94 515.137 1485.01C333.154 1398.51 210.954 1261.45 181.689 1226.45C69.9021 1092.97 18.0294 935.281 43.01 804.602C45.4488 792.027 48.5466 779.651 52.3695 767.475L193.092 842.928C192.235 846.321 191.51 849.781 190.851 853.241C174.768 937.544 212.008 1043.74 290.509 1137.42C352.862 1211.88 454.366 1298.77 573.469 1352.87C573.469 1352.87 573.601 1352.87 573.667 1352.87C626.66 1372.83 680.247 1391.73 731.526 1398.91C742.27 1400.38 752.948 1401.44 763.493 1401.84C772.457 1402.24 781.158 1402.17 789.858 1401.44C805.545 1400.31 821.298 1396.78 836.128 1391.13C855.638 1383.74 873.435 1372.63 886.683 1358.52C900.59 1343.69 909.554 1325.66 910.279 1305.1C911.861 1260.98 877.521 1206.69 845.224 1159.18C721.969 977.865 581.708 801.874 443.952 631.14L444.611 630.874L340.141 501.526L339.482 501.858L339.284 501.592C312.524 468.39 285.764 434.989 259.333 401.72C239.296 376.436 219.127 348.557 198.233 321.676C94.8827 191.396 -7.34669 57.7227 -101.205 -80.2088C-123.615 -113.145 -146.882 -149.008 -165.074 -188.531C-175.818 -211.819 -183.793 -234.242 -189 -256H-38.1935C-26.3293 -222.532 -3.32607 -186.934 18.8203 -154.398C153.478 43.6834 308.371 235.443 458.189 420.883C475.788 442.64 493.65 464.731 511.512 487.021C542.623 525.479 573.865 564.403 604.646 603.128C608.666 608.251 612.621 613.308 616.444 618.232C634.372 641.453 649.532 662.479 665.68 683.106C769.03 813.452 871.325 947.058 965.184 1085.12C987.528 1117.93 1010.8 1153.92 1029.05 1193.45C1051.86 1242.68 1062.07 1288.06 1060.56 1331.71L1060.49 1331.84Z" fill="white"/>
<path d="M436.41 631.581L436.146 631.98L330.358 675.828C272.751 706.701 228.853 748.953 203.873 796.327C195.831 811.498 189.701 827.267 185.681 843.369L44.9589 767.916C53.9229 738.839 66.9735 711.026 83.5833 684.944C121.219 625.593 177.64 574.891 249.484 537.032L254.691 534.57L332.005 502.499L436.278 631.647L436.41 631.581Z" fill="url(#paint1_linear_46_223)"/>
<path d="M1536.15 1041.06H1364.06C1245.94 876.111 1116.36 715.757 990.336 559.793C972.737 538.036 954.875 515.946 937.013 493.656C905.903 455.197 874.66 416.273 843.879 377.548C839.859 372.425 835.904 367.368 832.081 362.444C814.153 339.289 798.993 318.197 782.845 297.57C679.495 167.224 577.2 33.6175 483.341 -104.447C460.997 -137.25 437.73 -173.247 419.472 -212.77C396.667 -262.007 386.451 -307.386 387.967 -351.034C388.692 -370.396 391.724 -388.561 396.799 -405.528C398.051 -409.72 399.501 -413.912 400.951 -417.97H401.083C420.329 -468.805 459.876 -510.257 505.949 -536.606C510.431 -539.201 514.913 -541.663 519.461 -543.925C519.593 -543.925 519.659 -543.925 519.79 -544.058C520.054 -544.191 520.186 -544.258 520.186 -544.258C520.911 -544.657 521.636 -544.99 522.361 -545.389C555.449 -561.158 591.634 -570.474 627.491 -573.002C636.389 -573.667 645.221 -574 654.119 -574C670.927 -574 687.668 -572.935 704.344 -570.939C719.438 -569.209 734.4 -566.814 749.23 -563.753L749.098 -563.554C810.264 -551.311 868.86 -529.753 920.733 -509.991C920.733 -509.991 920.777 -509.991 920.865 -509.991C925.017 -508.128 929.169 -506.199 933.256 -504.269C1115.24 -417.771 1237.44 -280.704 1266.7 -245.706C1378.49 -112.232 1430.36 45.4611 1405.38 176.14C1402.94 188.716 1399.85 201.092 1396.02 213.268L1255.3 137.815C1256.16 134.421 1256.88 130.961 1257.54 127.501C1273.63 43.1988 1236.39 -62.9945 1157.88 -156.679C1095.53 -231.134 994.027 -318.031 874.924 -372.126C874.924 -372.126 874.792 -372.126 874.726 -372.126C821.733 -392.087 768.147 -410.984 716.867 -418.17C706.124 -419.634 695.446 -420.698 684.9 -421.098C675.936 -421.497 667.235 -421.43 658.535 -420.698C642.848 -419.567 627.095 -416.041 612.265 -410.385C592.755 -402.999 574.959 -391.888 561.71 -377.782C547.803 -362.944 538.839 -344.913 538.114 -324.353C536.532 -280.238 570.872 -225.944 603.169 -178.436C726.424 2.87731 866.685 178.868 1004.44 349.603L1003.78 349.869L1108.25 479.217L1108.91 478.884L1109.11 479.15C1135.87 512.352 1162.63 545.754 1189.06 579.023C1209.1 604.307 1229.27 632.186 1250.16 659.067C1348.63 783.092 1445.98 910.178 1536.09 1041.19L1536.15 1041.06Z" fill="white"/>
<path d="M1005.03 349.275L1004.72 349.663L1004.56 349.508L1005.03 349.275Z" fill="url(#paint2_linear_46_223)"/>
<path d="M1396.09 213.335C1387.13 242.411 1374.08 270.224 1357.47 296.307C1319.83 355.658 1263.41 406.359 1191.57 444.219L1186.36 446.68L1109.04 478.751L1004.77 349.603L1005.04 349.204L1110.82 305.356C1168.43 274.482 1212.33 232.231 1237.31 184.857C1245.35 169.686 1251.48 153.917 1255.5 137.815L1396.22 213.268L1396.09 213.335Z" fill="url(#paint3_linear_46_223)"/>
</g>
<defs>
<linearGradient id="paint0_linear_46_223" x1="436.443" y1="631.592" x2="436.443" y2="631.981" gradientUnits="userSpaceOnUse">
<stop stop-color="#E2FC0B"/>
<stop offset="1" stop-color="#A5C000"/>
</linearGradient>
<linearGradient id="paint1_linear_46_223" x1="410.638" y1="535.035" x2="57.4582" y2="804.746" gradientUnits="userSpaceOnUse">
<stop stop-color="white" stop-opacity="0.02"/>
<stop offset="0.84" stop-color="white"/>
</linearGradient>
<linearGradient id="paint2_linear_46_223" x1="1004.79" y1="349.275" x2="1004.79" y2="349.663" gradientUnits="userSpaceOnUse">
<stop stop-color="#E2FC0B"/>
<stop offset="1" stop-color="#A5C000"/>
</linearGradient>
<linearGradient id="paint3_linear_46_223" x1="1030.88" y1="461.877" x2="1291.2" y2="263.284" gradientUnits="userSpaceOnUse">
<stop offset="0.1158" stop-color="white" stop-opacity="0.02"/>
<stop offset="1" stop-color="white"/>
</linearGradient>
</defs>
</svg>
